<?xml version="1.0" encoding="UTF-8" standalone="no"?>
<!DOCTYPE svg PUBLIC "-//W3C//DTD SVG 1.1//EN" "http://www.w3.org/Graphics/SVG/1.1/DTD/svg11.dtd">
<svg width="100%" height="100%" viewBox="0 0 1024 636" version="1.1" xmlns="http://www.w3.org/2000/svg" xmlns:xlink="http://www.w3.org/1999/xlink" xml:space="preserve" xmlns:serif="http://www.serif.com/" style="fill-rule:evenodd;clip-rule:evenodd;stroke-linecap:round;stroke-linejoin:round;stroke-miterlimit:1.5;">
    <g transform="matrix(2.40679,0,0,2.52484,-1585.76,-940.515)">
        <rect x="658.867" y="372.505" width="425.591" height="251.897" style="stroke:white;stroke-width:8.11px;"/>
    </g>
    <g transform="matrix(1,0,0,1,-454.675,-273.26)">
        <g transform="matrix(64,0,0,64,499.675,367.604)">
            <path d="M0.204,-0C0.177,-0 0.152,-0.007 0.13,-0.02C0.107,-0.033 0.089,-0.051 0.076,-0.074C0.063,-0.096 0.056,-0.121 0.056,-0.148L0.056,-0.572C0.056,-0.599 0.063,-0.624 0.076,-0.647C0.089,-0.669 0.107,-0.687 0.13,-0.7C0.152,-0.713 0.177,-0.72 0.204,-0.72L0.774,-0.72L0.774,-0.564L0.244,-0.564C0.233,-0.564 0.225,-0.561 0.22,-0.556C0.214,-0.551 0.211,-0.542 0.211,-0.531L0.211,-0.189C0.211,-0.178 0.214,-0.17 0.22,-0.165C0.225,-0.159 0.233,-0.156 0.244,-0.156L0.774,-0.156L0.774,-0L0.204,-0Z" style="fill:white;fill-rule:nonzero;"/>
        </g>
        <g transform="matrix(64,0,0,64,552.283,367.604)">
            <path d="M0.202,-0C0.175,-0 0.15,-0.007 0.128,-0.02C0.105,-0.033 0.087,-0.051 0.074,-0.074C0.061,-0.096 0.054,-0.121 0.054,-0.148L0.054,-0.572C0.054,-0.599 0.061,-0.624 0.074,-0.646C0.087,-0.669 0.105,-0.687 0.128,-0.7C0.15,-0.713 0.175,-0.72 0.202,-0.72L0.626,-0.72C0.653,-0.72 0.677,-0.713 0.7,-0.7C0.722,-0.687 0.74,-0.669 0.754,-0.646C0.767,-0.624 0.774,-0.599 0.774,-0.572L0.774,-0.148C0.774,-0.121 0.767,-0.096 0.754,-0.074C0.74,-0.051 0.722,-0.033 0.7,-0.02C0.677,-0.007 0.653,-0 0.626,-0L0.202,-0ZM0.209,-0.156L0.617,-0.156L0.617,-0.564L0.209,-0.564L0.209,-0.156Z" style="fill:white;fill-rule:nonzero;"/>
        </g>
        <g transform="matrix(64,0,0,64,605.275,367.604)">
            <path d="M0.056,-0L0.056,-0.72L0.216,-0.72L0.46,-0.429L0.703,-0.72L0.864,-0.72L0.864,-0L0.708,-0L0.708,-0.483L0.46,-0.187L0.211,-0.482L0.211,-0L0.056,-0Z" style="fill:white;fill-rule:nonzero;"/>
        </g>
        <g transform="matrix(64,0,0,64,664.667,367.604)">
            <path d="M0.056,-0L0.056,-0.719L0.627,-0.719C0.654,-0.719 0.679,-0.712 0.701,-0.699C0.724,-0.686 0.742,-0.668 0.756,-0.645C0.769,-0.622 0.776,-0.598 0.776,-0.571L0.776,-0.385C0.776,-0.358 0.769,-0.334 0.756,-0.311C0.742,-0.288 0.724,-0.27 0.701,-0.257C0.679,-0.244 0.654,-0.237 0.627,-0.237L0.211,-0.236L0.211,-0L0.056,-0ZM0.211,-0.393L0.619,-0.393L0.619,-0.564L0.211,-0.564L0.211,-0.393Z" style="fill:white;fill-rule:nonzero;"/>
        </g>
        <g transform="matrix(64,0,0,64,715.291,367.604)">
            <path d="M0.202,-0C0.175,-0 0.15,-0.007 0.128,-0.02C0.105,-0.033 0.087,-0.051 0.074,-0.074C0.061,-0.096 0.054,-0.121 0.054,-0.148L0.054,-0.72L0.209,-0.72L0.209,-0.156L0.617,-0.156L0.617,-0.72L0.774,-0.72L0.774,-0.148C0.774,-0.121 0.767,-0.096 0.754,-0.074C0.74,-0.051 0.722,-0.033 0.7,-0.02C0.677,-0.007 0.653,-0 0.626,-0L0.202,-0Z" style="fill:white;fill-rule:nonzero;"/>
        </g>
        <g transform="matrix(64,0,0,64,768.283,367.604)">
            <path d="M0.302,-0L0.302,-0.564L0.02,-0.564L0.02,-0.72L0.74,-0.72L0.74,-0.564L0.458,-0.564L0.458,-0L0.302,-0Z" style="fill:white;fill-rule:nonzero;"/>
        </g>
        <g transform="matrix(64,0,0,64,816.859,367.604)">
            <path d="M0.058,-0L0.058,-0.72L0.723,-0.72L0.723,-0.564L0.215,-0.564L0.215,-0.438L0.624,-0.438L0.624,-0.282L0.215,-0.282L0.215,-0.156L0.723,-0.156L0.723,-0L0.058,-0Z" style="fill:white;fill-rule:nonzero;"/>
        </g>
        <g transform="matrix(64,0,0,64,865.883,367.604)">
            <path d="M0.615,-0L0.406,-0.249L0.609,-0.249L0.775,-0.053L0.775,-0L0.615,-0ZM0.056,-0L0.056,-0.719L0.627,-0.719C0.654,-0.719 0.679,-0.712 0.701,-0.699C0.724,-0.686 0.742,-0.668 0.756,-0.645C0.769,-0.622 0.776,-0.598 0.776,-0.571L0.776,-0.385C0.776,-0.358 0.769,-0.334 0.756,-0.311C0.742,-0.288 0.724,-0.27 0.701,-0.257C0.679,-0.244 0.654,-0.237 0.627,-0.237L0.211,-0.236L0.211,-0L0.056,-0ZM0.211,-0.393L0.619,-0.393L0.619,-0.564L0.211,-0.564L0.211,-0.393Z" style="fill:white;fill-rule:nonzero;"/>
        </g>
        <g transform="matrix(64,0,0,64,939.291,367.604)">
            <path d="M0.202,-0C0.175,-0 0.15,-0.007 0.128,-0.02C0.105,-0.033 0.087,-0.051 0.074,-0.074C0.061,-0.096 0.054,-0.121 0.054,-0.148L0.054,-0.215L0.209,-0.215L0.209,-0.156L0.617,-0.156L0.617,-0.282L0.202,-0.282C0.175,-0.282 0.15,-0.289 0.128,-0.302C0.105,-0.315 0.087,-0.333 0.074,-0.356C0.061,-0.378 0.054,-0.403 0.054,-0.43L0.054,-0.572C0.054,-0.599 0.061,-0.624 0.074,-0.646C0.087,-0.669 0.105,-0.687 0.128,-0.7C0.15,-0.713 0.175,-0.72 0.202,-0.72L0.626,-0.72C0.653,-0.72 0.677,-0.713 0.7,-0.7C0.722,-0.687 0.74,-0.669 0.754,-0.646C0.767,-0.624 0.774,-0.599 0.774,-0.572L0.774,-0.505L0.617,-0.505L0.617,-0.564L0.209,-0.564L0.209,-0.438L0.626,-0.438C0.653,-0.438 0.677,-0.431 0.7,-0.418C0.722,-0.405 0.74,-0.387 0.754,-0.364C0.767,-0.342 0.774,-0.317 0.774,-0.29L0.774,-0.148C0.774,-0.121 0.767,-0.096 0.754,-0.074C0.74,-0.051 0.722,-0.033 0.7,-0.02C0.677,-0.007 0.653,-0 0.626,-0L0.202,-0Z" style="fill:white;fill-rule:nonzero;"/>
        </g>
        <g transform="matrix(64,0,0,64,992.283,367.604)">
            <path d="M0.204,-0C0.177,-0 0.152,-0.007 0.13,-0.02C0.107,-0.033 0.089,-0.051 0.076,-0.074C0.063,-0.096 0.056,-0.121 0.056,-0.148L0.056,-0.572C0.056,-0.599 0.063,-0.624 0.076,-0.647C0.089,-0.669 0.107,-0.687 0.13,-0.7C0.152,-0.713 0.177,-0.72 0.204,-0.72L0.774,-0.72L0.774,-0.564L0.244,-0.564C0.233,-0.564 0.225,-0.561 0.22,-0.556C0.214,-0.551 0.211,-0.542 0.211,-0.531L0.211,-0.189C0.211,-0.178 0.214,-0.17 0.22,-0.165C0.225,-0.159 0.233,-0.156 0.244,-0.156L0.774,-0.156L0.774,-0L0.204,-0Z" style="fill:white;fill-rule:nonzero;"/>
        </g>
        <g transform="matrix(64,0,0,64,1044.89,367.604)">
            <rect x="0.031" y="-0.72" width="0.153" height="0.72" style="fill:white;fill-rule:nonzero;"/>
        </g>
        <g transform="matrix(64,0,0,64,1058.59,367.604)">
            <path d="M0.058,-0L0.058,-0.72L0.723,-0.72L0.723,-0.564L0.215,-0.564L0.215,-0.438L0.624,-0.438L0.624,-0.282L0.215,-0.282L0.215,-0.156L0.723,-0.156L0.723,-0L0.058,-0Z" style="fill:white;fill-rule:nonzero;"/>
        </g>
        <g transform="matrix(64,0,0,64,1107.61,367.604)">
            <path d="M0.056,-0L0.056,-0.72L0.216,-0.72L0.619,-0.24L0.619,-0.72L0.776,-0.72L0.776,-0L0.616,-0L0.211,-0.482L0.211,-0L0.056,-0Z" style="fill:white;fill-rule:nonzero;"/>
        </g>
        <g transform="matrix(64,0,0,64,1160.86,367.604)">
            <path d="M0.204,-0C0.177,-0 0.152,-0.007 0.13,-0.02C0.107,-0.033 0.089,-0.051 0.076,-0.074C0.063,-0.096 0.056,-0.121 0.056,-0.148L0.056,-0.572C0.056,-0.599 0.063,-0.624 0.076,-0.647C0.089,-0.669 0.107,-0.687 0.13,-0.7C0.152,-0.713 0.177,-0.72 0.204,-0.72L0.774,-0.72L0.774,-0.564L0.244,-0.564C0.233,-0.564 0.225,-0.561 0.22,-0.556C0.214,-0.551 0.211,-0.542 0.211,-0.531L0.211,-0.189C0.211,-0.178 0.214,-0.17 0.22,-0.165C0.225,-0.159 0.233,-0.156 0.244,-0.156L0.774,-0.156L0.774,-0L0.204,-0Z" style="fill:white;fill-rule:nonzero;"/>
        </g>
        <g transform="matrix(64,0,0,64,1213.47,367.604)">
            <path d="M0.058,-0L0.058,-0.72L0.723,-0.72L0.723,-0.564L0.215,-0.564L0.215,-0.438L0.624,-0.438L0.624,-0.282L0.215,-0.282L0.215,-0.156L0.723,-0.156L0.723,-0L0.058,-0Z" style="fill:white;fill-rule:nonzero;"/>
        </g>
        <g transform="matrix(64,0,0,64,499.675,431.604)">
            <path d="M0.056,-0L0.056,-0.719L0.627,-0.719C0.654,-0.719 0.679,-0.712 0.701,-0.699C0.724,-0.686 0.742,-0.668 0.756,-0.645C0.769,-0.622 0.776,-0.598 0.776,-0.571L0.776,-0.385C0.776,-0.358 0.769,-0.334 0.756,-0.311C0.742,-0.288 0.724,-0.27 0.701,-0.257C0.679,-0.244 0.654,-0.237 0.627,-0.237L0.211,-0.236L0.211,-0L0.056,-0ZM0.211,-0.393L0.619,-0.393L0.619,-0.564L0.211,-0.564L0.211,-0.393Z" style="fill:white;fill-rule:nonzero;"/>
        </g>
        <g transform="matrix(64,0,0,64,550.299,431.604)">
            <path d="M0.615,-0L0.406,-0.249L0.609,-0.249L0.775,-0.053L0.775,-0L0.615,-0ZM0.056,-0L0.056,-0.719L0.627,-0.719C0.654,-0.719 0.679,-0.712 0.701,-0.699C0.724,-0.686 0.742,-0.668 0.756,-0.645C0.769,-0.622 0.776,-0.598 0.776,-0.571L0.776,-0.385C0.776,-0.358 0.769,-0.334 0.756,-0.311C0.742,-0.288 0.724,-0.27 0.701,-0.257C0.679,-0.244 0.654,-0.237 0.627,-0.237L0.211,-0.236L0.211,-0L0.056,-0ZM0.211,-0.393L0.619,-0.393L0.619,-0.564L0.211,-0.564L0.211,-0.393Z" style="fill:white;fill-rule:nonzero;"/>
        </g>
        <g transform="matrix(64,0,0,64,603.099,431.604)">
            <rect x="0.031" y="-0.72" width="0.153" height="0.72" style="fill:white;fill-rule:nonzero;"/>
        </g>
        <g transform="matrix(64,0,0,64,616.795,431.604)">
            <path d="M0.056,-0L0.056,-0.72L0.216,-0.72L0.619,-0.24L0.619,-0.72L0.776,-0.72L0.776,-0L0.616,-0L0.211,-0.482L0.211,-0L0.056,-0Z" style="fill:white;fill-rule:nonzero;"/>
        </g>
        <g transform="matrix(64,0,0,64,670.043,431.604)">
            <path d="M0.204,-0C0.177,-0 0.152,-0.007 0.13,-0.02C0.107,-0.033 0.089,-0.051 0.076,-0.074C0.063,-0.096 0.056,-0.121 0.056,-0.148L0.056,-0.572C0.056,-0.599 0.063,-0.624 0.076,-0.647C0.089,-0.669 0.107,-0.687 0.13,-0.7C0.152,-0.713 0.177,-0.72 0.204,-0.72L0.774,-0.72L0.774,-0.564L0.244,-0.564C0.233,-0.564 0.225,-0.561 0.22,-0.556C0.214,-0.551 0.211,-0.542 0.211,-0.531L0.211,-0.189C0.211,-0.178 0.214,-0.17 0.22,-0.165C0.225,-0.159 0.233,-0.156 0.244,-0.156L0.774,-0.156L0.774,-0L0.204,-0Z" style="fill:white;fill-rule:nonzero;"/>
        </g>
        <g transform="matrix(64,0,0,64,722.651,431.604)">
            <rect x="0.031" y="-0.72" width="0.153" height="0.72" style="fill:white;fill-rule:nonzero;"/>
        </g>
        <g transform="matrix(64,0,0,64,736.347,431.604)">
            <path d="M0.056,-0L0.056,-0.719L0.627,-0.719C0.654,-0.719 0.679,-0.712 0.701,-0.699C0.724,-0.686 0.742,-0.668 0.756,-0.645C0.769,-0.622 0.776,-0.598 0.776,-0.571L0.776,-0.385C0.776,-0.358 0.769,-0.334 0.756,-0.311C0.742,-0.288 0.724,-0.27 0.701,-0.257C0.679,-0.244 0.654,-0.237 0.627,-0.237L0.211,-0.236L0.211,-0L0.056,-0ZM0.211,-0.393L0.619,-0.393L0.619,-0.564L0.211,-0.564L0.211,-0.393Z" style="fill:white;fill-rule:nonzero;"/>
        </g>
        <g transform="matrix(64,0,0,64,786.971,431.604)">
            <path d="M0.057,-0L0.057,-0.721L0.212,-0.721L0.212,-0.156L0.777,-0.156L0.777,-0L0.057,-0Z" style="fill:white;fill-rule:nonzero;"/>
        </g>
        <g transform="matrix(64,0,0,64,836.827,431.604)">
            <path d="M0.058,-0L0.058,-0.72L0.723,-0.72L0.723,-0.564L0.215,-0.564L0.215,-0.438L0.624,-0.438L0.624,-0.282L0.215,-0.282L0.215,-0.156L0.723,-0.156L0.723,-0L0.058,-0Z" style="fill:white;fill-rule:nonzero;"/>
        </g>
        <g transform="matrix(64,0,0,64,885.851,431.604)">
            <path d="M0.202,-0C0.175,-0 0.15,-0.007 0.128,-0.02C0.105,-0.033 0.087,-0.051 0.074,-0.074C0.061,-0.096 0.054,-0.121 0.054,-0.148L0.054,-0.215L0.209,-0.215L0.209,-0.156L0.617,-0.156L0.617,-0.282L0.202,-0.282C0.175,-0.282 0.15,-0.289 0.128,-0.302C0.105,-0.315 0.087,-0.333 0.074,-0.356C0.061,-0.378 0.054,-0.403 0.054,-0.43L0.054,-0.572C0.054,-0.599 0.061,-0.624 0.074,-0.646C0.087,-0.669 0.105,-0.687 0.128,-0.7C0.15,-0.713 0.175,-0.72 0.202,-0.72L0.626,-0.72C0.653,-0.72 0.677,-0.713 0.7,-0.7C0.722,-0.687 0.74,-0.669 0.754,-0.646C0.767,-0.624 0.774,-0.599 0.774,-0.572L0.774,-0.505L0.617,-0.505L0.617,-0.564L0.209,-0.564L0.209,-0.438L0.626,-0.438C0.653,-0.438 0.677,-0.431 0.7,-0.418C0.722,-0.405 0.74,-0.387 0.754,-0.364C0.767,-0.342 0.774,-0.317 0.774,-0.29L0.774,-0.148C0.774,-0.121 0.767,-0.096 0.754,-0.074C0.74,-0.051 0.722,-0.033 0.7,-0.02C0.677,-0.007 0.653,-0 0.626,-0L0.202,-0Z" style="fill:white;fill-rule:nonzero;"/>
        </g>
    </g>
    <g transform="matrix(1.73373,0,0,1.73373,-197.464,-3775.22)">
        <path d="M114.04,2385.08L127.564,2371.55L127.564,2190.27L232.9,2190.26L245.641,2177.52L113.896,2177.52L114.04,2385.08Z" style="fill:white;fill-rule:nonzero;"/>
    </g>
    <g transform="matrix(-1.73373,0,0,-1.73373,1219.87,4411.22)">
        <path d="M114.04,2385.08L127.564,2371.55L127.564,2190.27L232.9,2190.26L245.641,2177.52L113.896,2177.52L114.04,2385.08Z" style="fill:white;fill-rule:nonzero;"/>
    </g>
    <g transform="matrix(3.16206,0,0,3.16206,332.401,-774.535)">
        <g transform="matrix(64,0,0,64,100.442,356.78)">
            <path d="M0.178,-0C0.155,-0 0.135,-0.006 0.117,-0.017C0.098,-0.028 0.084,-0.042 0.073,-0.061C0.062,-0.079 0.057,-0.099 0.057,-0.121L0.057,-0.598C0.057,-0.621 0.062,-0.641 0.073,-0.66C0.084,-0.678 0.098,-0.693 0.117,-0.704C0.135,-0.715 0.155,-0.72 0.178,-0.72L0.663,-0.72C0.685,-0.72 0.705,-0.715 0.724,-0.704C0.742,-0.693 0.756,-0.678 0.768,-0.66C0.779,-0.641 0.784,-0.621 0.784,-0.598L0.784,-0.121C0.784,-0.099 0.779,-0.079 0.768,-0.061C0.756,-0.042 0.742,-0.028 0.724,-0.017C0.705,-0.006 0.685,-0 0.663,-0L0.178,-0ZM0.149,-0.082L0.663,-0.082C0.674,-0.082 0.683,-0.086 0.691,-0.094C0.698,-0.101 0.702,-0.11 0.702,-0.121L0.702,-0.538L0.149,-0.082ZM0.139,-0.181L0.691,-0.637L0.178,-0.637C0.167,-0.637 0.158,-0.633 0.151,-0.626C0.143,-0.618 0.139,-0.609 0.139,-0.598L0.139,-0.181Z" style="fill:rgb(27,212,215);fill-rule:nonzero;"/>
        </g>
        <g transform="matrix(64,0,0,64,153.818,356.78)">
            <path d="M0.219,-0L0.219,-0.628L0.108,-0.495L0.001,-0.495L0.19,-0.72L0.302,-0.72L0.302,-0L0.219,-0Z" style="fill:rgb(27,212,215);fill-rule:nonzero;"/>
        </g>
        <g transform="matrix(64,0,0,64,100.442,420.78)">
            <path d="M0.219,-0L0.219,-0.628L0.108,-0.495L0.001,-0.495L0.19,-0.72L0.302,-0.72L0.302,-0L0.219,-0Z" style="fill:rgb(254,1,85);fill-rule:nonzero;"/>
        </g>
        <g transform="matrix(64,0,0,64,125.466,420.78)">
            <path d="M0.178,-0C0.155,-0 0.135,-0.006 0.117,-0.017C0.098,-0.028 0.084,-0.042 0.073,-0.061C0.062,-0.079 0.057,-0.099 0.057,-0.121L0.057,-0.598C0.057,-0.621 0.062,-0.641 0.073,-0.66C0.084,-0.678 0.098,-0.693 0.117,-0.704C0.135,-0.715 0.155,-0.72 0.178,-0.72L0.663,-0.72C0.685,-0.72 0.705,-0.715 0.724,-0.704C0.742,-0.693 0.756,-0.678 0.768,-0.66C0.779,-0.641 0.784,-0.621 0.784,-0.598L0.784,-0.121C0.784,-0.099 0.779,-0.079 0.768,-0.061C0.756,-0.042 0.742,-0.028 0.724,-0.017C0.705,-0.006 0.685,-0 0.663,-0L0.178,-0ZM0.149,-0.082L0.663,-0.082C0.674,-0.082 0.683,-0.086 0.691,-0.094C0.698,-0.101 0.702,-0.11 0.702,-0.121L0.702,-0.538L0.149,-0.082ZM0.139,-0.181L0.691,-0.637L0.178,-0.637C0.167,-0.637 0.158,-0.633 0.151,-0.626C0.143,-0.618 0.139,-0.609 0.139,-0.598L0.139,-0.181Z" style="fill:rgb(254,1,85);fill-rule:nonzero;"/>
        </g>
    </g>
</svg>
