<?xml version="1.0" encoding="UTF-8" standalone="no"?>
<!DOCTYPE svg PUBLIC "-//W3C//DTD SVG 1.1//EN" "http://www.w3.org/Graphics/SVG/1.1/DTD/svg11.dtd">
<svg width="100%" height="100%" viewBox="0 0 238 349" version="1.1" xmlns="http://www.w3.org/2000/svg" xmlns:xlink="http://www.w3.org/1999/xlink" xml:space="preserve" xmlns:serif="http://www.serif.com/" style="fill-rule:evenodd;clip-rule:evenodd;stroke-linejoin:round;stroke-miterlimit:2;">
    <g transform="matrix(1,0,0,1,-650.208,-207.92)">
        <g transform="matrix(3.16206,0,0,3.16206,332.401,-774.535)">
            <g transform="matrix(64,0,0,64,100.442,356.78)">
                <path d="M0.178,-0C0.155,-0 0.135,-0.006 0.117,-0.017C0.098,-0.028 0.084,-0.042 0.073,-0.061C0.062,-0.079 0.057,-0.099 0.057,-0.121L0.057,-0.598C0.057,-0.621 0.062,-0.641 0.073,-0.66C0.084,-0.678 0.098,-0.693 0.117,-0.704C0.135,-0.715 0.155,-0.72 0.178,-0.72L0.663,-0.72C0.685,-0.72 0.705,-0.715 0.724,-0.704C0.742,-0.693 0.756,-0.678 0.768,-0.66C0.779,-0.641 0.784,-0.621 0.784,-0.598L0.784,-0.121C0.784,-0.099 0.779,-0.079 0.768,-0.061C0.756,-0.042 0.742,-0.028 0.724,-0.017C0.705,-0.006 0.685,-0 0.663,-0L0.178,-0ZM0.149,-0.082L0.663,-0.082C0.674,-0.082 0.683,-0.086 0.691,-0.094C0.698,-0.101 0.702,-0.11 0.702,-0.121L0.702,-0.538L0.149,-0.082ZM0.139,-0.181L0.691,-0.637L0.178,-0.637C0.167,-0.637 0.158,-0.633 0.151,-0.626C0.143,-0.618 0.139,-0.609 0.139,-0.598L0.139,-0.181Z" style="fill:rgb(27,212,215);fill-rule:nonzero;"/>
            </g>
            <g transform="matrix(64,0,0,64,153.818,356.78)">
                <path d="M0.219,-0L0.219,-0.628L0.108,-0.495L0.001,-0.495L0.19,-0.72L0.302,-0.72L0.302,-0L0.219,-0Z" style="fill:rgb(27,212,215);fill-rule:nonzero;"/>
            </g>
            <g transform="matrix(64,0,0,64,100.442,420.78)">
                <path d="M0.219,-0L0.219,-0.628L0.108,-0.495L0.001,-0.495L0.19,-0.72L0.302,-0.72L0.302,-0L0.219,-0Z" style="fill:rgb(254,1,85);fill-rule:nonzero;"/>
            </g>
            <g transform="matrix(64,0,0,64,125.466,420.78)">
                <path d="M0.178,-0C0.155,-0 0.135,-0.006 0.117,-0.017C0.098,-0.028 0.084,-0.042 0.073,-0.061C0.062,-0.079 0.057,-0.099 0.057,-0.121L0.057,-0.598C0.057,-0.621 0.062,-0.641 0.073,-0.66C0.084,-0.678 0.098,-0.693 0.117,-0.704C0.135,-0.715 0.155,-0.72 0.178,-0.72L0.663,-0.72C0.685,-0.72 0.705,-0.715 0.724,-0.704C0.742,-0.693 0.756,-0.678 0.768,-0.66C0.779,-0.641 0.784,-0.621 0.784,-0.598L0.784,-0.121C0.784,-0.099 0.779,-0.079 0.768,-0.061C0.756,-0.042 0.742,-0.028 0.724,-0.017C0.705,-0.006 0.685,-0 0.663,-0L0.178,-0ZM0.149,-0.082L0.663,-0.082C0.674,-0.082 0.683,-0.086 0.691,-0.094C0.698,-0.101 0.702,-0.11 0.702,-0.121L0.702,-0.538L0.149,-0.082ZM0.139,-0.181L0.691,-0.637L0.178,-0.637C0.167,-0.637 0.158,-0.633 0.151,-0.626C0.143,-0.618 0.139,-0.609 0.139,-0.598L0.139,-0.181Z" style="fill:rgb(254,1,85);fill-rule:nonzero;"/>
            </g>
        </g>
    </g>
</svg>
