<?xml version="1.0" encoding="UTF-8" standalone="no"?>
<!DOCTYPE svg PUBLIC "-//W3C//DTD SVG 1.1//EN" "http://www.w3.org/Graphics/SVG/1.1/DTD/svg11.dtd">
<svg width="100%" height="100%" viewBox="0 0 1024 636" version="1.1" xmlns="http://www.w3.org/2000/svg" xmlns:xlink="http://www.w3.org/1999/xlink" xml:space="preserve" xmlns:serif="http://www.serif.com/" style="fill-rule:evenodd;clip-rule:evenodd;stroke-linecap:round;stroke-linejoin:round;stroke-miterlimit:1.5;">
    <g transform="matrix(2.406793,0,0,2.524841,-1585.756354,-940.515327)">
        <rect x="658.867" y="372.505" width="425.591" height="251.897" style="stroke:white;stroke-width:8.11px;"/>
    </g>
    <g transform="matrix(1,0,0,1,-454.675291,-273.259794)">
        <g>
            <g transform="matrix(64,0,0,64,499.675291,367.583794)">
                <path d="M0.058,-0L0.058,-0.72L0.721,-0.72L0.721,-0.587L0.191,-0.587L0.191,-0.426L0.617,-0.426L0.617,-0.293L0.191,-0.293L0.191,-0L0.058,-0Z" style="fill:white;fill-rule:nonzero;"/>
            </g>
            <g transform="matrix(64,0,0,64,545.947291,367.583794)">
                <path d="M0.191,-0C0.165,-0 0.142,-0.006 0.122,-0.019C0.101,-0.032 0.084,-0.048 0.072,-0.069C0.059,-0.09 0.053,-0.113 0.053,-0.138L0.053,-0.58L0.184,-0.58L0.184,-0.143C0.184,-0.14 0.185,-0.137 0.188,-0.135C0.19,-0.132 0.193,-0.131 0.196,-0.131L0.499,-0.131C0.502,-0.131 0.505,-0.132 0.507,-0.135C0.51,-0.137 0.511,-0.14 0.511,-0.143L0.511,-0.58L0.642,-0.58L0.642,-0.138C0.642,-0.113 0.636,-0.09 0.623,-0.069C0.611,-0.048 0.594,-0.032 0.574,-0.019C0.553,-0.006 0.53,-0 0.504,-0L0.191,-0Z" style="fill:white;fill-rule:nonzero;"/>
            </g>
            <g transform="matrix(64,0,0,64,590.555291,367.583794)">
                <path d="M0.054,-0L0.054,-0.58L0.505,-0.58C0.53,-0.58 0.554,-0.574 0.574,-0.561C0.595,-0.548 0.612,-0.532 0.624,-0.511C0.637,-0.49 0.643,-0.467 0.643,-0.442L0.643,-0L0.512,-0L0.512,-0.437C0.512,-0.44 0.511,-0.443 0.508,-0.445C0.506,-0.448 0.503,-0.449 0.5,-0.449L0.197,-0.449C0.194,-0.449 0.191,-0.448 0.189,-0.445C0.186,-0.443 0.185,-0.44 0.185,-0.437L0.185,-0L0.054,-0Z" style="fill:white;fill-rule:nonzero;"/>
            </g>
            <g transform="matrix(64,0,0,64,635.099291,367.583794)">
                <path d="M0.161,-0C0.135,-0 0.112,-0.006 0.091,-0.019C0.071,-0.031 0.054,-0.048 0.042,-0.069C0.029,-0.09 0.023,-0.113 0.023,-0.138L0.023,-0.442C0.023,-0.467 0.029,-0.49 0.042,-0.511C0.054,-0.532 0.071,-0.548 0.091,-0.561C0.112,-0.574 0.135,-0.58 0.161,-0.58L0.482,-0.58L0.482,-0.77L0.613,-0.77L0.613,-0L0.161,-0ZM0.167,-0.131L0.47,-0.131C0.473,-0.131 0.476,-0.132 0.478,-0.135C0.48,-0.137 0.482,-0.14 0.482,-0.143L0.482,-0.437C0.482,-0.44 0.48,-0.443 0.478,-0.445C0.476,-0.448 0.473,-0.449 0.47,-0.449L0.167,-0.449C0.164,-0.449 0.161,-0.448 0.159,-0.445C0.156,-0.443 0.155,-0.44 0.155,-0.437L0.155,-0.143C0.155,-0.14 0.156,-0.137 0.159,-0.135C0.161,-0.132 0.164,-0.131 0.167,-0.131Z" style="fill:white;fill-rule:nonzero;"/>
            </g>
            <g transform="matrix(64,0,0,64,677.787291,367.583794)">
                <path d="M0.19,-0C0.164,-0 0.141,-0.006 0.121,-0.019C0.1,-0.032 0.083,-0.048 0.071,-0.069C0.058,-0.09 0.052,-0.113 0.052,-0.138L0.052,-0.356L0.51,-0.356L0.51,-0.437C0.51,-0.44 0.508,-0.443 0.506,-0.445C0.504,-0.448 0.501,-0.449 0.498,-0.449L0.052,-0.449L0.052,-0.58L0.503,-0.58C0.529,-0.58 0.552,-0.574 0.573,-0.561C0.593,-0.549 0.61,-0.532 0.622,-0.511C0.635,-0.49 0.641,-0.467 0.641,-0.442L0.641,-0L0.19,-0ZM0.195,-0.131L0.51,-0.131L0.51,-0.238L0.183,-0.238L0.183,-0.143C0.183,-0.14 0.184,-0.137 0.187,-0.135C0.189,-0.132 0.192,-0.131 0.195,-0.131Z" style="fill:white;fill-rule:nonzero;"/>
            </g>
            <g transform="matrix(64,0,0,64,720.539291,367.583794)">
                <path d="M0.054,-0L0.054,-0.58L0.773,-0.58C0.799,-0.58 0.822,-0.574 0.843,-0.561C0.863,-0.548 0.88,-0.532 0.892,-0.511C0.905,-0.49 0.911,-0.467 0.911,-0.442L0.911,-0L0.781,-0L0.781,-0.437C0.781,-0.44 0.779,-0.443 0.777,-0.445C0.775,-0.448 0.772,-0.449 0.768,-0.449L0.561,-0.449C0.558,-0.449 0.555,-0.448 0.553,-0.445C0.55,-0.443 0.549,-0.44 0.549,-0.437L0.549,-0L0.417,-0L0.417,-0.437C0.417,-0.44 0.416,-0.443 0.413,-0.445C0.411,-0.448 0.408,-0.449 0.405,-0.449L0.197,-0.449C0.194,-0.449 0.191,-0.448 0.189,-0.445C0.186,-0.443 0.185,-0.44 0.185,-0.437L0.185,-0L0.054,-0Z" style="fill:white;fill-rule:nonzero;"/>
            </g>
            <g transform="matrix(64,0,0,64,781.339291,367.583794)">
                <path d="M0.189,-0C0.164,-0 0.141,-0.006 0.12,-0.019C0.099,-0.032 0.083,-0.048 0.07,-0.069C0.057,-0.09 0.051,-0.113 0.051,-0.138L0.051,-0.442C0.051,-0.467 0.057,-0.49 0.07,-0.511C0.083,-0.532 0.099,-0.548 0.12,-0.561C0.141,-0.574 0.164,-0.58 0.189,-0.58L0.502,-0.58C0.528,-0.58 0.551,-0.574 0.572,-0.561C0.592,-0.549 0.609,-0.532 0.621,-0.511C0.634,-0.49 0.64,-0.467 0.64,-0.442L0.64,-0.224L0.182,-0.224L0.182,-0.143C0.182,-0.14 0.183,-0.137 0.186,-0.135C0.188,-0.132 0.191,-0.131 0.194,-0.131L0.64,-0.131L0.64,-0L0.189,-0ZM0.182,-0.342L0.509,-0.342L0.509,-0.437C0.509,-0.44 0.507,-0.443 0.505,-0.445C0.503,-0.448 0.5,-0.449 0.497,-0.449L0.194,-0.449C0.191,-0.449 0.188,-0.448 0.186,-0.445C0.183,-0.443 0.182,-0.44 0.182,-0.437L0.182,-0.342Z" style="fill:white;fill-rule:nonzero;"/>
            </g>
            <g transform="matrix(64,0,0,64,825.627291,367.583794)">
                <path d="M0.054,-0L0.054,-0.58L0.505,-0.58C0.53,-0.58 0.554,-0.574 0.574,-0.561C0.595,-0.548 0.612,-0.532 0.624,-0.511C0.637,-0.49 0.643,-0.467 0.643,-0.442L0.643,-0L0.512,-0L0.512,-0.437C0.512,-0.44 0.511,-0.443 0.508,-0.445C0.506,-0.448 0.503,-0.449 0.5,-0.449L0.197,-0.449C0.194,-0.449 0.191,-0.448 0.189,-0.445C0.186,-0.443 0.185,-0.44 0.185,-0.437L0.185,-0L0.054,-0Z" style="fill:white;fill-rule:nonzero;"/>
            </g>
            <g transform="matrix(64,0,0,64,870.171291,367.583794)">
                <path d="M0.191,-0C0.166,-0 0.142,-0.006 0.122,-0.019C0.101,-0.032 0.084,-0.048 0.072,-0.069C0.059,-0.09 0.053,-0.113 0.053,-0.138L0.053,-0.758L0.184,-0.758L0.184,-0.58L0.41,-0.58L0.41,-0.449L0.184,-0.449L0.184,-0.143C0.184,-0.14 0.185,-0.137 0.188,-0.135C0.19,-0.132 0.193,-0.131 0.196,-0.131L0.41,-0.131L0.41,-0L0.191,-0Z" style="fill:white;fill-rule:nonzero;"/>
            </g>
            <g transform="matrix(64,0,0,64,899.563775,367.583794)">
                <path d="M0.19,-0C0.164,-0 0.141,-0.006 0.121,-0.019C0.1,-0.032 0.083,-0.048 0.071,-0.069C0.058,-0.09 0.052,-0.113 0.052,-0.138L0.052,-0.356L0.51,-0.356L0.51,-0.437C0.51,-0.44 0.508,-0.443 0.506,-0.445C0.504,-0.448 0.501,-0.449 0.498,-0.449L0.052,-0.449L0.052,-0.58L0.503,-0.58C0.529,-0.58 0.552,-0.574 0.573,-0.561C0.593,-0.549 0.61,-0.532 0.622,-0.511C0.635,-0.49 0.641,-0.467 0.641,-0.442L0.641,-0L0.19,-0ZM0.195,-0.131L0.51,-0.131L0.51,-0.238L0.183,-0.238L0.183,-0.143C0.183,-0.14 0.184,-0.137 0.187,-0.135C0.189,-0.132 0.192,-0.131 0.195,-0.131Z" style="fill:white;fill-rule:nonzero;"/>
            </g>
            <g transform="matrix(64,0,0,64,942.571775,367.583794)">
                <path d="M0.19,-0C0.165,-0 0.142,-0.006 0.121,-0.019C0.1,-0.032 0.084,-0.048 0.071,-0.069C0.058,-0.09 0.052,-0.113 0.052,-0.138L0.052,-0.771L0.184,-0.771L0.184,-0.143C0.184,-0.14 0.185,-0.137 0.187,-0.135C0.19,-0.132 0.192,-0.131 0.196,-0.131L0.307,-0.131L0.307,-0L0.19,-0Z" style="fill:white;fill-rule:nonzero;"/>
            </g>
            <g transform="matrix(64,0,0,64,963.443603,367.583794)">
                <path d="M0.186,-0C0.161,-0 0.138,-0.006 0.117,-0.019C0.096,-0.032 0.08,-0.048 0.067,-0.069C0.054,-0.09 0.048,-0.113 0.048,-0.138L0.048,-0.16L0.179,-0.16L0.179,-0.143C0.179,-0.14 0.18,-0.137 0.183,-0.135C0.185,-0.132 0.188,-0.131 0.191,-0.131L0.494,-0.131C0.497,-0.131 0.5,-0.132 0.502,-0.135C0.504,-0.137 0.506,-0.14 0.506,-0.143L0.506,-0.212C0.506,-0.215 0.504,-0.218 0.502,-0.221C0.5,-0.223 0.497,-0.224 0.494,-0.224L0.186,-0.224C0.161,-0.224 0.138,-0.23 0.117,-0.243C0.096,-0.256 0.08,-0.272 0.067,-0.293C0.054,-0.314 0.048,-0.337 0.048,-0.362L0.048,-0.442C0.048,-0.467 0.054,-0.49 0.067,-0.511C0.08,-0.532 0.096,-0.548 0.117,-0.561C0.138,-0.574 0.161,-0.58 0.186,-0.58L0.499,-0.58C0.525,-0.58 0.548,-0.574 0.569,-0.561C0.589,-0.548 0.606,-0.532 0.619,-0.511C0.631,-0.49 0.638,-0.467 0.638,-0.442L0.638,-0.42L0.506,-0.42L0.506,-0.437C0.506,-0.44 0.504,-0.443 0.502,-0.445C0.5,-0.448 0.497,-0.449 0.494,-0.449L0.191,-0.449C0.188,-0.449 0.185,-0.448 0.183,-0.445C0.18,-0.443 0.179,-0.44 0.179,-0.437L0.179,-0.368C0.179,-0.365 0.18,-0.362 0.183,-0.359C0.185,-0.357 0.188,-0.356 0.191,-0.356L0.499,-0.356C0.525,-0.356 0.548,-0.35 0.569,-0.337C0.589,-0.324 0.606,-0.308 0.619,-0.287C0.631,-0.266 0.638,-0.243 0.638,-0.218L0.638,-0.138C0.638,-0.113 0.631,-0.09 0.619,-0.069C0.606,-0.048 0.589,-0.032 0.569,-0.019C0.548,-0.006 0.525,-0 0.499,-0L0.186,-0Z" style="fill:white;fill-rule:nonzero;"/>
            </g>
            <g transform="matrix(64,0,0,64,1026.961072,367.583794)">
                <path d="M0.189,-0C0.164,-0 0.141,-0.006 0.12,-0.019C0.099,-0.032 0.083,-0.048 0.07,-0.069C0.057,-0.09 0.051,-0.113 0.051,-0.138L0.051,-0.442C0.051,-0.467 0.057,-0.49 0.07,-0.511C0.083,-0.532 0.099,-0.548 0.12,-0.561C0.141,-0.574 0.164,-0.58 0.189,-0.58L0.502,-0.58C0.528,-0.58 0.551,-0.574 0.572,-0.561C0.592,-0.549 0.609,-0.532 0.621,-0.511C0.634,-0.49 0.64,-0.467 0.64,-0.442L0.64,-0.138C0.64,-0.113 0.634,-0.09 0.621,-0.069C0.609,-0.048 0.592,-0.032 0.572,-0.019C0.551,-0.006 0.528,-0 0.502,-0L0.189,-0ZM0.194,-0.131L0.497,-0.131C0.5,-0.131 0.503,-0.132 0.505,-0.135C0.507,-0.137 0.509,-0.14 0.509,-0.143L0.509,-0.437C0.509,-0.44 0.507,-0.443 0.505,-0.445C0.503,-0.448 0.5,-0.449 0.497,-0.449L0.194,-0.449C0.191,-0.449 0.188,-0.448 0.186,-0.445C0.183,-0.443 0.182,-0.44 0.182,-0.437L0.182,-0.143C0.182,-0.14 0.183,-0.137 0.186,-0.135C0.188,-0.132 0.191,-0.131 0.194,-0.131Z" style="fill:white;fill-rule:nonzero;"/>
            </g>
            <g transform="matrix(64,0,0,64,1071.249072,367.583794)">
                <path d="M0.053,-0L0.053,-0.632C0.053,-0.657 0.059,-0.68 0.072,-0.701C0.084,-0.722 0.101,-0.739 0.122,-0.751C0.142,-0.764 0.166,-0.77 0.191,-0.77L0.41,-0.77L0.41,-0.638L0.196,-0.638C0.193,-0.638 0.19,-0.637 0.188,-0.635C0.185,-0.632 0.184,-0.63 0.184,-0.626L0.184,-0.58L0.41,-0.58L0.41,-0.449L0.184,-0.449L0.184,-0L0.053,-0Z" style="fill:white;fill-rule:nonzero;"/>
            </g>
            <g transform="matrix(64,0,0,64,1118.36615,367.583794)">
                <path d="M0.195,-0C0.17,-0 0.147,-0.006 0.125,-0.019C0.104,-0.031 0.087,-0.048 0.075,-0.069C0.062,-0.091 0.056,-0.114 0.056,-0.139L0.056,-0.581C0.056,-0.606 0.062,-0.629 0.075,-0.651C0.087,-0.672 0.104,-0.689 0.125,-0.701C0.147,-0.714 0.17,-0.72 0.195,-0.72L0.636,-0.72C0.661,-0.72 0.685,-0.714 0.706,-0.701C0.727,-0.689 0.744,-0.672 0.757,-0.651C0.77,-0.629 0.776,-0.606 0.776,-0.581L0.776,-0.525L0.643,-0.525L0.643,-0.575C0.643,-0.579 0.641,-0.581 0.639,-0.584C0.637,-0.586 0.634,-0.587 0.631,-0.587L0.2,-0.587C0.197,-0.587 0.194,-0.586 0.192,-0.584C0.189,-0.581 0.188,-0.579 0.188,-0.575L0.188,-0.145C0.188,-0.142 0.189,-0.139 0.192,-0.136C0.194,-0.134 0.197,-0.133 0.2,-0.133L0.631,-0.133C0.634,-0.133 0.637,-0.134 0.639,-0.136C0.641,-0.139 0.643,-0.142 0.643,-0.145L0.643,-0.275L0.48,-0.275L0.48,-0.408L0.776,-0.408L0.776,-0.139C0.776,-0.114 0.77,-0.091 0.757,-0.069C0.744,-0.048 0.727,-0.031 0.706,-0.019C0.685,-0.006 0.661,-0 0.636,-0L0.195,-0Z" style="fill:white;fill-rule:nonzero;"/>
            </g>
            <g transform="matrix(64,0,0,64,1171.48615,367.583794)">
                <path d="M0.19,-0C0.164,-0 0.141,-0.006 0.121,-0.019C0.1,-0.032 0.083,-0.048 0.071,-0.069C0.058,-0.09 0.052,-0.113 0.052,-0.138L0.052,-0.356L0.51,-0.356L0.51,-0.437C0.51,-0.44 0.508,-0.443 0.506,-0.445C0.504,-0.448 0.501,-0.449 0.498,-0.449L0.052,-0.449L0.052,-0.58L0.503,-0.58C0.529,-0.58 0.552,-0.574 0.573,-0.561C0.593,-0.549 0.61,-0.532 0.622,-0.511C0.635,-0.49 0.641,-0.467 0.641,-0.442L0.641,-0L0.19,-0ZM0.195,-0.131L0.51,-0.131L0.51,-0.238L0.183,-0.238L0.183,-0.143C0.183,-0.14 0.184,-0.137 0.187,-0.135C0.189,-0.132 0.192,-0.131 0.195,-0.131Z" style="fill:white;fill-rule:nonzero;"/>
            </g>
            <g transform="matrix(64,0,0,64,1214.23815,367.583794)">
                <path d="M0.054,-0L0.054,-0.58L0.773,-0.58C0.799,-0.58 0.822,-0.574 0.843,-0.561C0.863,-0.548 0.88,-0.532 0.892,-0.511C0.905,-0.49 0.911,-0.467 0.911,-0.442L0.911,-0L0.781,-0L0.781,-0.437C0.781,-0.44 0.779,-0.443 0.777,-0.445C0.775,-0.448 0.772,-0.449 0.768,-0.449L0.561,-0.449C0.558,-0.449 0.555,-0.448 0.553,-0.445C0.55,-0.443 0.549,-0.44 0.549,-0.437L0.549,-0L0.417,-0L0.417,-0.437C0.417,-0.44 0.416,-0.443 0.413,-0.445C0.411,-0.448 0.408,-0.449 0.405,-0.449L0.197,-0.449C0.194,-0.449 0.191,-0.448 0.189,-0.445C0.186,-0.443 0.185,-0.44 0.185,-0.437L0.185,-0L0.054,-0Z" style="fill:white;fill-rule:nonzero;"/>
            </g>
            <g transform="matrix(64,0,0,64,1275.03815,367.583794)">
                <path d="M0.189,-0C0.164,-0 0.141,-0.006 0.12,-0.019C0.099,-0.032 0.083,-0.048 0.07,-0.069C0.057,-0.09 0.051,-0.113 0.051,-0.138L0.051,-0.442C0.051,-0.467 0.057,-0.49 0.07,-0.511C0.083,-0.532 0.099,-0.548 0.12,-0.561C0.141,-0.574 0.164,-0.58 0.189,-0.58L0.502,-0.58C0.528,-0.58 0.551,-0.574 0.572,-0.561C0.592,-0.549 0.609,-0.532 0.621,-0.511C0.634,-0.49 0.64,-0.467 0.64,-0.442L0.64,-0.224L0.182,-0.224L0.182,-0.143C0.182,-0.14 0.183,-0.137 0.186,-0.135C0.188,-0.132 0.191,-0.131 0.194,-0.131L0.64,-0.131L0.64,-0L0.189,-0ZM0.182,-0.342L0.509,-0.342L0.509,-0.437C0.509,-0.44 0.507,-0.443 0.505,-0.445C0.503,-0.448 0.5,-0.449 0.497,-0.449L0.194,-0.449C0.191,-0.449 0.188,-0.448 0.186,-0.445C0.183,-0.443 0.182,-0.44 0.182,-0.437L0.182,-0.342Z" style="fill:white;fill-rule:nonzero;"/>
            </g>
        </g>
        <g>
            <g transform="matrix(64,0,0,64,499.675291,431.583794)">
                <path d="M0.058,-0L0.058,-0.72L0.638,-0.72C0.663,-0.72 0.687,-0.714 0.708,-0.701C0.729,-0.689 0.746,-0.672 0.759,-0.651C0.772,-0.629 0.778,-0.606 0.778,-0.581L0.778,-0.139C0.778,-0.114 0.772,-0.091 0.759,-0.069C0.746,-0.048 0.729,-0.031 0.708,-0.019C0.687,-0.006 0.663,-0 0.638,-0L0.058,-0ZM0.201,-0.133L0.633,-0.133C0.636,-0.133 0.639,-0.134 0.641,-0.136C0.643,-0.139 0.645,-0.142 0.645,-0.145L0.645,-0.575C0.645,-0.579 0.643,-0.581 0.641,-0.584C0.639,-0.586 0.636,-0.587 0.633,-0.587L0.201,-0.587C0.198,-0.587 0.195,-0.586 0.193,-0.584C0.191,-0.581 0.189,-0.579 0.189,-0.575L0.189,-0.145C0.189,-0.142 0.191,-0.139 0.193,-0.136C0.195,-0.134 0.198,-0.133 0.201,-0.133Z" style="fill:white;fill-rule:nonzero;"/>
            </g>
            <g transform="matrix(64,0,0,64,553.051291,431.583794)">
                <path d="M0.189,-0C0.164,-0 0.141,-0.006 0.12,-0.019C0.099,-0.032 0.083,-0.048 0.07,-0.069C0.057,-0.09 0.051,-0.113 0.051,-0.138L0.051,-0.442C0.051,-0.467 0.057,-0.49 0.07,-0.511C0.083,-0.532 0.099,-0.548 0.12,-0.561C0.141,-0.574 0.164,-0.58 0.189,-0.58L0.502,-0.58C0.528,-0.58 0.551,-0.574 0.572,-0.561C0.592,-0.549 0.609,-0.532 0.621,-0.511C0.634,-0.49 0.64,-0.467 0.64,-0.442L0.64,-0.224L0.182,-0.224L0.182,-0.143C0.182,-0.14 0.183,-0.137 0.186,-0.135C0.188,-0.132 0.191,-0.131 0.194,-0.131L0.64,-0.131L0.64,-0L0.189,-0ZM0.182,-0.342L0.509,-0.342L0.509,-0.437C0.509,-0.44 0.507,-0.443 0.505,-0.445C0.503,-0.448 0.5,-0.449 0.497,-0.449L0.194,-0.449C0.191,-0.449 0.188,-0.448 0.186,-0.445C0.183,-0.443 0.182,-0.44 0.182,-0.437L0.182,-0.342Z" style="fill:white;fill-rule:nonzero;"/>
            </g>
            <g transform="matrix(64,0,0,64,596.891291,431.583794)">
                <path d="M0.186,-0C0.161,-0 0.138,-0.006 0.117,-0.019C0.096,-0.032 0.08,-0.048 0.067,-0.069C0.054,-0.09 0.048,-0.113 0.048,-0.138L0.048,-0.16L0.179,-0.16L0.179,-0.143C0.179,-0.14 0.18,-0.137 0.183,-0.135C0.185,-0.132 0.188,-0.131 0.191,-0.131L0.494,-0.131C0.497,-0.131 0.5,-0.132 0.502,-0.135C0.504,-0.137 0.506,-0.14 0.506,-0.143L0.506,-0.212C0.506,-0.215 0.504,-0.218 0.502,-0.221C0.5,-0.223 0.497,-0.224 0.494,-0.224L0.186,-0.224C0.161,-0.224 0.138,-0.23 0.117,-0.243C0.096,-0.256 0.08,-0.272 0.067,-0.293C0.054,-0.314 0.048,-0.337 0.048,-0.362L0.048,-0.442C0.048,-0.467 0.054,-0.49 0.067,-0.511C0.08,-0.532 0.096,-0.548 0.117,-0.561C0.138,-0.574 0.161,-0.58 0.186,-0.58L0.499,-0.58C0.525,-0.58 0.548,-0.574 0.569,-0.561C0.589,-0.548 0.606,-0.532 0.619,-0.511C0.631,-0.49 0.638,-0.467 0.638,-0.442L0.638,-0.42L0.506,-0.42L0.506,-0.437C0.506,-0.44 0.504,-0.443 0.502,-0.445C0.5,-0.448 0.497,-0.449 0.494,-0.449L0.191,-0.449C0.188,-0.449 0.185,-0.448 0.183,-0.445C0.18,-0.443 0.179,-0.44 0.179,-0.437L0.179,-0.368C0.179,-0.365 0.18,-0.362 0.183,-0.359C0.185,-0.357 0.188,-0.356 0.191,-0.356L0.499,-0.356C0.525,-0.356 0.548,-0.35 0.569,-0.337C0.589,-0.324 0.606,-0.308 0.619,-0.287C0.631,-0.266 0.638,-0.243 0.638,-0.218L0.638,-0.138C0.638,-0.113 0.631,-0.09 0.619,-0.069C0.606,-0.048 0.589,-0.032 0.569,-0.019C0.548,-0.006 0.525,-0 0.499,-0L0.186,-0Z" style="fill:white;fill-rule:nonzero;"/>
            </g>
            <g transform="matrix(64,0,0,64,640.795291,431.583794)">
                <path d="M0.052,-0L0.052,-0.58L0.183,-0.58L0.183,-0L0.052,-0ZM0.052,-0.638L0.052,-0.77L0.183,-0.77L0.183,-0.638L0.052,-0.638Z" style="fill:white;fill-rule:nonzero;"/>
            </g>
            <g transform="matrix(64,0,0,64,655.033588,431.583794)">
                <path d="M0.138,0.229L0.138,0.097L0.487,0.097C0.491,0.097 0.493,0.096 0.496,0.093C0.498,0.091 0.499,0.088 0.499,0.085L0.499,-0L0.179,-0C0.154,-0 0.131,-0.006 0.11,-0.019C0.089,-0.031 0.072,-0.048 0.06,-0.069C0.047,-0.09 0.041,-0.113 0.041,-0.138L0.041,-0.442C0.041,-0.467 0.047,-0.49 0.06,-0.511C0.073,-0.532 0.089,-0.548 0.11,-0.561C0.131,-0.574 0.154,-0.58 0.179,-0.58L0.493,-0.58C0.518,-0.58 0.542,-0.574 0.562,-0.561C0.583,-0.548 0.6,-0.532 0.612,-0.511C0.624,-0.49 0.63,-0.467 0.63,-0.442L0.63,0.091C0.63,0.117 0.624,0.14 0.612,0.161C0.6,0.181 0.583,0.198 0.562,0.21C0.541,0.223 0.518,0.229 0.493,0.229L0.138,0.229ZM0.184,-0.131L0.487,-0.131C0.491,-0.131 0.493,-0.132 0.496,-0.135C0.498,-0.137 0.499,-0.14 0.499,-0.143L0.499,-0.437C0.499,-0.44 0.498,-0.443 0.496,-0.445C0.493,-0.448 0.491,-0.449 0.487,-0.449L0.184,-0.449C0.181,-0.449 0.178,-0.448 0.176,-0.445C0.173,-0.443 0.172,-0.44 0.172,-0.437L0.172,-0.143C0.172,-0.14 0.173,-0.137 0.176,-0.135C0.178,-0.132 0.181,-0.131 0.184,-0.131Z" style="fill:white;fill-rule:nonzero;"/>
            </g>
            <g transform="matrix(64,0,0,64,698.745588,431.583794)">
                <path d="M0.054,-0L0.054,-0.58L0.505,-0.58C0.53,-0.58 0.554,-0.574 0.574,-0.561C0.595,-0.548 0.612,-0.532 0.624,-0.511C0.637,-0.49 0.643,-0.467 0.643,-0.442L0.643,-0L0.512,-0L0.512,-0.437C0.512,-0.44 0.511,-0.443 0.508,-0.445C0.506,-0.448 0.503,-0.449 0.5,-0.449L0.197,-0.449C0.194,-0.449 0.191,-0.448 0.189,-0.445C0.186,-0.443 0.185,-0.44 0.185,-0.437L0.185,-0L0.054,-0Z" style="fill:white;fill-rule:nonzero;"/>
            </g>
        </g>
    </g>
    <g transform="matrix(1.344754,0,0,2.002802,-964.080857,-5309.637574)">
        <path d="M923.857,2918.73L973.795,2968.66L923.857,2968.66L874.038,2918.84L923.857,2918.73Z" style="fill:white;fill-rule:nonzero;"/>
    </g>
    <g transform="matrix(1.344754,0,0,2.002802,-964.080857,-5309.637574)">
        <path d="M856.453,2918.73L906.39,2968.66L856.453,2968.66L806.633,2918.84L856.453,2918.73Z" style="fill:white;fill-rule:nonzero;"/>
    </g>
    <g transform="matrix(1.344754,0,0,2.002802,-964.080857,-5309.637574)">
        <path d="M789.048,2918.73L838.986,2968.66L789.048,2968.66L739.229,2918.84L789.048,2918.73Z" style="fill:white;fill-rule:nonzero;"/>
    </g>
    <g transform="matrix(0.322266,0,0,0.322266,594,237)">
        <path d="M469.344,266.664L469.344,181.336L426.688,181.336L426.688,138.664L384,138.664L384,117.336L426.688,117.336L426.688,53.336L362.688,53.336L362.688,95.992L320,95.992L320,138.664L192,138.664L192,95.992L149.344,95.992L149.344,53.336L85.344,53.336L85.344,117.336L128,117.336L128,138.664L85.344,138.664L85.344,181.336L42.688,181.336L42.688,266.664L0,266.664L0,415.992L64,415.992L64,330.664L85.344,330.664L85.344,415.992L128,415.992L128,458.664L234.688,458.664L234.688,394.664L149.344,394.664L149.344,373.336L362.688,373.336L362.688,394.664L277.344,394.664L277.344,458.664L384,458.664L384,415.992L426.688,415.992L426.688,330.664L448,330.664L448,415.992L512,415.992L512,266.664L469.344,266.664ZM192,245.336L128,245.336L128,181.336L192,181.336L192,245.336ZM384,245.336L320,245.336L320,181.336L384,181.336L384,245.336Z" style="fill:rgb(27,212,215);fill-rule:nonzero;"/>
    </g>
    <g transform="matrix(0.322266,0,0,0.322266,804,237)">
        <path d="M469.344,266.664L469.344,181.336L426.688,181.336L426.688,138.664L384,138.664L384,117.336L426.688,117.336L426.688,53.336L362.688,53.336L362.688,95.992L320,95.992L320,138.664L192,138.664L192,95.992L149.344,95.992L149.344,53.336L85.344,53.336L85.344,117.336L128,117.336L128,138.664L85.344,138.664L85.344,181.336L42.688,181.336L42.688,266.664L0,266.664L0,415.992L64,415.992L64,330.664L85.344,330.664L85.344,415.992L128,415.992L128,458.664L234.688,458.664L234.688,394.664L149.344,394.664L149.344,373.336L362.688,373.336L362.688,394.664L277.344,394.664L277.344,458.664L384,458.664L384,415.992L426.688,415.992L426.688,330.664L448,330.664L448,415.992L512,415.992L512,266.664L469.344,266.664ZM192,245.336L128,245.336L128,181.336L192,181.336L192,245.336ZM384,245.336L320,245.336L320,181.336L384,181.336L384,245.336Z" style="fill:rgb(254,1,85);fill-rule:nonzero;"/>
    </g>
    <g transform="matrix(0.322266,0,0,0.322266,594,385)">
        <path d="M469.344,266.664L469.344,181.336L426.688,181.336L426.688,138.664L384,138.664L384,117.336L426.688,117.336L426.688,53.336L362.688,53.336L362.688,95.992L320,95.992L320,138.664L192,138.664L192,95.992L149.344,95.992L149.344,53.336L85.344,53.336L85.344,117.336L128,117.336L128,138.664L85.344,138.664L85.344,181.336L42.688,181.336L42.688,266.664L0,266.664L0,415.992L64,415.992L64,330.664L85.344,330.664L85.344,415.992L128,415.992L128,458.664L234.688,458.664L234.688,394.664L149.344,394.664L149.344,373.336L362.688,373.336L362.688,394.664L277.344,394.664L277.344,458.664L384,458.664L384,415.992L426.688,415.992L426.688,330.664L448,330.664L448,415.992L512,415.992L512,266.664L469.344,266.664ZM192,245.336L128,245.336L128,181.336L192,181.336L192,245.336ZM384,245.336L320,245.336L320,181.336L384,181.336L384,245.336Z" style="fill:rgb(0,255,0);fill-rule:nonzero;"/>
    </g>
    <g transform="matrix(0.322266,0,0,0.322266,804,385)">
        <path d="M469.344,266.664L469.344,181.336L426.688,181.336L426.688,138.664L384,138.664L384,117.336L426.688,117.336L426.688,53.336L362.688,53.336L362.688,95.992L320,95.992L320,138.664L192,138.664L192,95.992L149.344,95.992L149.344,53.336L85.344,53.336L85.344,117.336L128,117.336L128,138.664L85.344,138.664L85.344,181.336L42.688,181.336L42.688,266.664L0,266.664L0,415.992L64,415.992L64,330.664L85.344,330.664L85.344,415.992L128,415.992L128,458.664L234.688,458.664L234.688,394.664L149.344,394.664L149.344,373.336L362.688,373.336L362.688,394.664L277.344,394.664L277.344,458.664L384,458.664L384,415.992L426.688,415.992L426.688,330.664L448,330.664L448,415.992L512,415.992L512,266.664L469.344,266.664ZM192,245.336L128,245.336L128,181.336L192,181.336L192,245.336ZM384,245.336L320,245.336L320,181.336L384,181.336L384,245.336Z" style="fill:rgb(0,0,255);fill-rule:nonzero;"/>
    </g>
</svg>
