<?xml version="1.0" encoding="UTF-8" standalone="no"?>
<!DOCTYPE svg PUBLIC "-//W3C//DTD SVG 1.1//EN" "http://www.w3.org/Graphics/SVG/1.1/DTD/svg11.dtd">
<svg width="100%" height="100%" viewBox="0 0 1024 636" version="1.1" xmlns="http://www.w3.org/2000/svg" xmlns:xlink="http://www.w3.org/1999/xlink" xml:space="preserve" xmlns:serif="http://www.serif.com/" style="fill-rule:evenodd;clip-rule:evenodd;stroke-linecap:round;stroke-linejoin:round;stroke-miterlimit:1.5;">
    <g transform="matrix(2.40679,0,0,2.52484,-1585.76,-940.515)">
        <rect x="658.867" y="372.505" width="425.591" height="251.897" style="stroke:white;stroke-width:8.11px;"/>
    </g>
    <g transform="matrix(1,0,0,1,-469.675,-228.26)">
        <g transform="matrix(64,0,0,64,499.675,367.604)">
            <path d="M0.057,-0L0.057,-0.721L0.212,-0.721L0.212,-0.156L0.777,-0.156L0.777,-0L0.057,-0Z" style="fill:white;fill-rule:nonzero;"/>
        </g>
        <g transform="matrix(64,0,0,64,549.531,367.604)">
            <path d="M0.058,-0L0.058,-0.72L0.723,-0.72L0.723,-0.564L0.215,-0.564L0.215,-0.438L0.624,-0.438L0.624,-0.282L0.215,-0.282L0.215,-0.156L0.723,-0.156L0.723,-0L0.058,-0Z" style="fill:white;fill-rule:nonzero;"/>
        </g>
        <g transform="matrix(64,0,0,64,598.555,367.604)">
            <path d="M0.058,-0L0.058,-0.572C0.058,-0.599 0.065,-0.624 0.078,-0.646C0.091,-0.669 0.109,-0.687 0.132,-0.7C0.154,-0.713 0.179,-0.72 0.206,-0.72L0.629,-0.72C0.656,-0.72 0.681,-0.713 0.703,-0.7C0.726,-0.687 0.744,-0.669 0.758,-0.646C0.771,-0.624 0.778,-0.599 0.778,-0.572L0.778,-0L0.621,-0L0.621,-0.232L0.213,-0.232L0.213,-0L0.058,-0ZM0.213,-0.388L0.621,-0.388L0.621,-0.564L0.213,-0.564L0.213,-0.388Z" style="fill:white;fill-rule:nonzero;"/>
        </g>
        <g transform="matrix(64,0,0,64,652.059,367.604)">
            <path d="M0.615,-0L0.406,-0.249L0.609,-0.249L0.775,-0.053L0.775,-0L0.615,-0ZM0.056,-0L0.056,-0.719L0.627,-0.719C0.654,-0.719 0.679,-0.712 0.701,-0.699C0.724,-0.686 0.742,-0.668 0.756,-0.645C0.769,-0.622 0.776,-0.598 0.776,-0.571L0.776,-0.385C0.776,-0.358 0.769,-0.334 0.756,-0.311C0.742,-0.288 0.724,-0.27 0.701,-0.257C0.679,-0.244 0.654,-0.237 0.627,-0.237L0.211,-0.236L0.211,-0L0.056,-0ZM0.211,-0.393L0.619,-0.393L0.619,-0.564L0.211,-0.564L0.211,-0.393Z" style="fill:white;fill-rule:nonzero;"/>
        </g>
        <g transform="matrix(64,0,0,64,704.859,367.604)">
            <path d="M0.056,-0L0.056,-0.72L0.216,-0.72L0.619,-0.24L0.619,-0.72L0.776,-0.72L0.776,-0L0.616,-0L0.211,-0.482L0.211,-0L0.056,-0Z" style="fill:white;fill-rule:nonzero;"/>
        </g>
        <g transform="matrix(64,0,0,64,778.715,367.604)">
            <path d="M0.056,-0L0.056,-0.719L0.627,-0.719C0.654,-0.719 0.679,-0.712 0.701,-0.699C0.724,-0.686 0.742,-0.668 0.756,-0.645C0.769,-0.622 0.776,-0.598 0.776,-0.571L0.776,-0.385C0.776,-0.358 0.769,-0.334 0.756,-0.311C0.742,-0.288 0.724,-0.27 0.701,-0.257C0.679,-0.244 0.654,-0.237 0.627,-0.237L0.211,-0.236L0.211,-0L0.056,-0ZM0.211,-0.393L0.619,-0.393L0.619,-0.564L0.211,-0.564L0.211,-0.393Z" style="fill:white;fill-rule:nonzero;"/>
        </g>
        <g transform="matrix(64,0,0,64,829.339,367.604)">
            <path d="M0.615,-0L0.406,-0.249L0.609,-0.249L0.775,-0.053L0.775,-0L0.615,-0ZM0.056,-0L0.056,-0.719L0.627,-0.719C0.654,-0.719 0.679,-0.712 0.701,-0.699C0.724,-0.686 0.742,-0.668 0.756,-0.645C0.769,-0.622 0.776,-0.598 0.776,-0.571L0.776,-0.385C0.776,-0.358 0.769,-0.334 0.756,-0.311C0.742,-0.288 0.724,-0.27 0.701,-0.257C0.679,-0.244 0.654,-0.237 0.627,-0.237L0.211,-0.236L0.211,-0L0.056,-0ZM0.211,-0.393L0.619,-0.393L0.619,-0.564L0.211,-0.564L0.211,-0.393Z" style="fill:white;fill-rule:nonzero;"/>
        </g>
        <g transform="matrix(64,0,0,64,882.139,367.604)">
            <path d="M0.202,-0C0.175,-0 0.15,-0.007 0.128,-0.02C0.105,-0.033 0.087,-0.051 0.074,-0.074C0.061,-0.096 0.054,-0.121 0.054,-0.148L0.054,-0.572C0.054,-0.599 0.061,-0.624 0.074,-0.646C0.087,-0.669 0.105,-0.687 0.128,-0.7C0.15,-0.713 0.175,-0.72 0.202,-0.72L0.626,-0.72C0.653,-0.72 0.677,-0.713 0.7,-0.7C0.722,-0.687 0.74,-0.669 0.754,-0.646C0.767,-0.624 0.774,-0.599 0.774,-0.572L0.774,-0.148C0.774,-0.121 0.767,-0.096 0.754,-0.074C0.74,-0.051 0.722,-0.033 0.7,-0.02C0.677,-0.007 0.653,-0 0.626,-0L0.202,-0ZM0.209,-0.156L0.617,-0.156L0.617,-0.564L0.209,-0.564L0.209,-0.156Z" style="fill:white;fill-rule:nonzero;"/>
        </g>
        <g transform="matrix(64,0,0,64,935.131,367.604)">
            <path d="M0.204,-0C0.177,-0 0.152,-0.007 0.13,-0.02C0.107,-0.033 0.089,-0.051 0.076,-0.074C0.063,-0.096 0.056,-0.121 0.056,-0.148L0.056,-0.572C0.056,-0.599 0.063,-0.624 0.076,-0.646C0.089,-0.669 0.107,-0.687 0.13,-0.7C0.152,-0.713 0.177,-0.72 0.204,-0.72L0.627,-0.72C0.654,-0.72 0.679,-0.713 0.701,-0.7C0.724,-0.687 0.742,-0.669 0.756,-0.646C0.769,-0.624 0.776,-0.599 0.776,-0.572L0.776,-0.504L0.619,-0.504L0.619,-0.564L0.211,-0.564L0.211,-0.156L0.619,-0.156L0.619,-0.264L0.463,-0.264L0.463,-0.42L0.776,-0.42L0.776,-0.148C0.776,-0.121 0.769,-0.096 0.756,-0.074C0.742,-0.051 0.724,-0.033 0.701,-0.02C0.679,-0.007 0.654,-0 0.627,-0L0.204,-0Z" style="fill:white;fill-rule:nonzero;"/>
        </g>
        <g transform="matrix(64,0,0,64,988.251,367.604)">
            <path d="M0.615,-0L0.406,-0.249L0.609,-0.249L0.775,-0.053L0.775,-0L0.615,-0ZM0.056,-0L0.056,-0.719L0.627,-0.719C0.654,-0.719 0.679,-0.712 0.701,-0.699C0.724,-0.686 0.742,-0.668 0.756,-0.645C0.769,-0.622 0.776,-0.598 0.776,-0.571L0.776,-0.385C0.776,-0.358 0.769,-0.334 0.756,-0.311C0.742,-0.288 0.724,-0.27 0.701,-0.257C0.679,-0.244 0.654,-0.237 0.627,-0.237L0.211,-0.236L0.211,-0L0.056,-0ZM0.211,-0.393L0.619,-0.393L0.619,-0.564L0.211,-0.564L0.211,-0.393Z" style="fill:white;fill-rule:nonzero;"/>
        </g>
        <g transform="matrix(64,0,0,64,1041.05,367.604)">
            <path d="M0.058,-0L0.058,-0.572C0.058,-0.599 0.065,-0.624 0.078,-0.646C0.091,-0.669 0.109,-0.687 0.132,-0.7C0.154,-0.713 0.179,-0.72 0.206,-0.72L0.629,-0.72C0.656,-0.72 0.681,-0.713 0.703,-0.7C0.726,-0.687 0.744,-0.669 0.758,-0.646C0.771,-0.624 0.778,-0.599 0.778,-0.572L0.778,-0L0.621,-0L0.621,-0.232L0.213,-0.232L0.213,-0L0.058,-0ZM0.213,-0.388L0.621,-0.388L0.621,-0.564L0.213,-0.564L0.213,-0.388Z" style="fill:white;fill-rule:nonzero;"/>
        </g>
        <g transform="matrix(64,0,0,64,1094.56,367.604)">
            <path d="M0.056,-0L0.056,-0.72L0.216,-0.72L0.46,-0.429L0.703,-0.72L0.864,-0.72L0.864,-0L0.708,-0L0.708,-0.483L0.46,-0.187L0.211,-0.482L0.211,-0L0.056,-0Z" style="fill:white;fill-rule:nonzero;"/>
        </g>
        <g transform="matrix(64,0,0,64,1153.95,367.604)">
            <path d="M0.056,-0L0.056,-0.72L0.216,-0.72L0.46,-0.429L0.703,-0.72L0.864,-0.72L0.864,-0L0.708,-0L0.708,-0.483L0.46,-0.187L0.211,-0.482L0.211,-0L0.056,-0Z" style="fill:white;fill-rule:nonzero;"/>
        </g>
        <g transform="matrix(64,0,0,64,1213.34,367.604)">
            <rect x="0.031" y="-0.72" width="0.153" height="0.72" style="fill:white;fill-rule:nonzero;"/>
        </g>
        <g transform="matrix(64,0,0,64,1227.04,367.604)">
            <path d="M0.056,-0L0.056,-0.72L0.216,-0.72L0.619,-0.24L0.619,-0.72L0.776,-0.72L0.776,-0L0.616,-0L0.211,-0.482L0.211,-0L0.056,-0Z" style="fill:white;fill-rule:nonzero;"/>
        </g>
        <g transform="matrix(64,0,0,64,1280.28,367.604)">
            <path d="M0.204,-0C0.177,-0 0.152,-0.007 0.13,-0.02C0.107,-0.033 0.089,-0.051 0.076,-0.074C0.063,-0.096 0.056,-0.121 0.056,-0.148L0.056,-0.572C0.056,-0.599 0.063,-0.624 0.076,-0.646C0.089,-0.669 0.107,-0.687 0.13,-0.7C0.152,-0.713 0.177,-0.72 0.204,-0.72L0.627,-0.72C0.654,-0.72 0.679,-0.713 0.701,-0.7C0.724,-0.687 0.742,-0.669 0.756,-0.646C0.769,-0.624 0.776,-0.599 0.776,-0.572L0.776,-0.504L0.619,-0.504L0.619,-0.564L0.211,-0.564L0.211,-0.156L0.619,-0.156L0.619,-0.264L0.463,-0.264L0.463,-0.42L0.776,-0.42L0.776,-0.148C0.776,-0.121 0.769,-0.096 0.756,-0.074C0.742,-0.051 0.724,-0.033 0.701,-0.02C0.679,-0.007 0.654,-0 0.627,-0L0.204,-0Z" style="fill:white;fill-rule:nonzero;"/>
        </g>
        <g transform="matrix(64,0,0,64,499.675,431.604)">
            <path d="M0.297,-0L0.035,-0.72L0.2,-0.72L0.357,-0.291L0.514,-0.72L0.657,-0.72L0.815,-0.291L0.972,-0.72L1.136,-0.72L0.874,-0L0.755,-0L0.585,-0.463L0.416,-0L0.297,-0Z" style="fill:white;fill-rule:nonzero;"/>
        </g>
        <g transform="matrix(64,0,0,64,575.131,431.604)">
            <rect x="0.031" y="-0.72" width="0.153" height="0.72" style="fill:white;fill-rule:nonzero;"/>
        </g>
        <g transform="matrix(64,0,0,64,590.107,431.604)">
            <path d="M0.302,-0L0.302,-0.564L0.02,-0.564L0.02,-0.72L0.74,-0.72L0.74,-0.564L0.458,-0.564L0.458,-0L0.302,-0Z" style="fill:white;fill-rule:nonzero;"/>
        </g>
        <g transform="matrix(64,0,0,64,638.683,431.604)">
            <path d="M0.057,-0L0.057,-0.72L0.212,-0.72L0.212,-0.438L0.637,-0.438L0.637,-0.72L0.792,-0.72L0.792,-0L0.637,-0L0.637,-0.282L0.212,-0.282L0.212,-0L0.057,-0Z" style="fill:white;fill-rule:nonzero;"/>
        </g>
        <g transform="matrix(64,0,0,64,713.755,431.604)">
            <path d="M0.152,-0C0.125,-0 0.1,-0.007 0.078,-0.02C0.055,-0.033 0.037,-0.051 0.024,-0.074C0.011,-0.096 0.004,-0.121 0.004,-0.148L0.004,-0.241L0.159,-0.241L0.159,-0.156L0.567,-0.156L0.567,-0.72L0.724,-0.72L0.724,-0.148C0.724,-0.121 0.717,-0.096 0.704,-0.074C0.69,-0.051 0.672,-0.033 0.65,-0.02C0.627,-0.007 0.603,-0 0.576,-0L0.152,-0Z" style="fill:white;fill-rule:nonzero;"/>
        </g>
        <g transform="matrix(64,0,0,64,763.675,431.604)">
            <path d="M0.058,-0L0.058,-0.572C0.058,-0.599 0.065,-0.624 0.078,-0.646C0.091,-0.669 0.109,-0.687 0.132,-0.7C0.154,-0.713 0.179,-0.72 0.206,-0.72L0.629,-0.72C0.656,-0.72 0.681,-0.713 0.703,-0.7C0.726,-0.687 0.744,-0.669 0.758,-0.646C0.771,-0.624 0.778,-0.599 0.778,-0.572L0.778,-0L0.621,-0L0.621,-0.232L0.213,-0.232L0.213,-0L0.058,-0ZM0.213,-0.388L0.621,-0.388L0.621,-0.564L0.213,-0.564L0.213,-0.388Z" style="fill:white;fill-rule:nonzero;"/>
        </g>
        <g transform="matrix(64,0,0,64,817.179,431.604)">
            <path d="M0.452,-0L0.035,-0.72L0.215,-0.72L0.517,-0.197L0.819,-0.72L0.998,-0.72L0.581,-0L0.452,-0Z" style="fill:white;fill-rule:nonzero;"/>
        </g>
        <g transform="matrix(64,0,0,64,880.667,431.604)">
            <path d="M0.058,-0L0.058,-0.572C0.058,-0.599 0.065,-0.624 0.078,-0.646C0.091,-0.669 0.109,-0.687 0.132,-0.7C0.154,-0.713 0.179,-0.72 0.206,-0.72L0.629,-0.72C0.656,-0.72 0.681,-0.713 0.703,-0.7C0.726,-0.687 0.744,-0.669 0.758,-0.646C0.771,-0.624 0.778,-0.599 0.778,-0.572L0.778,-0L0.621,-0L0.621,-0.232L0.213,-0.232L0.213,-0L0.058,-0ZM0.213,-0.388L0.621,-0.388L0.621,-0.564L0.213,-0.564L0.213,-0.388Z" style="fill:white;fill-rule:nonzero;"/>
        </g>
        <g transform="matrix(64,0,0,64,934.171,431.604)">
            <path d="M0.202,-0C0.175,-0 0.15,-0.007 0.128,-0.02C0.105,-0.033 0.087,-0.051 0.074,-0.074C0.061,-0.096 0.054,-0.121 0.054,-0.148L0.054,-0.215L0.209,-0.215L0.209,-0.156L0.617,-0.156L0.617,-0.282L0.202,-0.282C0.175,-0.282 0.15,-0.289 0.128,-0.302C0.105,-0.315 0.087,-0.333 0.074,-0.356C0.061,-0.378 0.054,-0.403 0.054,-0.43L0.054,-0.572C0.054,-0.599 0.061,-0.624 0.074,-0.646C0.087,-0.669 0.105,-0.687 0.128,-0.7C0.15,-0.713 0.175,-0.72 0.202,-0.72L0.626,-0.72C0.653,-0.72 0.677,-0.713 0.7,-0.7C0.722,-0.687 0.74,-0.669 0.754,-0.646C0.767,-0.624 0.774,-0.599 0.774,-0.572L0.774,-0.505L0.617,-0.505L0.617,-0.564L0.209,-0.564L0.209,-0.438L0.626,-0.438C0.653,-0.438 0.677,-0.431 0.7,-0.418C0.722,-0.405 0.74,-0.387 0.754,-0.364C0.767,-0.342 0.774,-0.317 0.774,-0.29L0.774,-0.148C0.774,-0.121 0.767,-0.096 0.754,-0.074C0.74,-0.051 0.722,-0.033 0.7,-0.02C0.677,-0.007 0.653,-0 0.626,-0L0.202,-0Z" style="fill:white;fill-rule:nonzero;"/>
        </g>
        <g transform="matrix(64,0,0,64,987.163,431.604)">
            <path d="M0.204,-0C0.177,-0 0.152,-0.007 0.13,-0.02C0.107,-0.033 0.089,-0.051 0.076,-0.074C0.063,-0.096 0.056,-0.121 0.056,-0.148L0.056,-0.572C0.056,-0.599 0.063,-0.624 0.076,-0.647C0.089,-0.669 0.107,-0.687 0.13,-0.7C0.152,-0.713 0.177,-0.72 0.204,-0.72L0.774,-0.72L0.774,-0.564L0.244,-0.564C0.233,-0.564 0.225,-0.561 0.22,-0.556C0.214,-0.551 0.211,-0.542 0.211,-0.531L0.211,-0.189C0.211,-0.178 0.214,-0.17 0.22,-0.165C0.225,-0.159 0.233,-0.156 0.244,-0.156L0.774,-0.156L0.774,-0L0.204,-0Z" style="fill:white;fill-rule:nonzero;"/>
        </g>
        <g transform="matrix(64,0,0,64,1039.77,431.604)">
            <path d="M0.615,-0L0.406,-0.249L0.609,-0.249L0.775,-0.053L0.775,-0L0.615,-0ZM0.056,-0L0.056,-0.719L0.627,-0.719C0.654,-0.719 0.679,-0.712 0.701,-0.699C0.724,-0.686 0.742,-0.668 0.756,-0.645C0.769,-0.622 0.776,-0.598 0.776,-0.571L0.776,-0.385C0.776,-0.358 0.769,-0.334 0.756,-0.311C0.742,-0.288 0.724,-0.27 0.701,-0.257C0.679,-0.244 0.654,-0.237 0.627,-0.237L0.211,-0.236L0.211,-0L0.056,-0ZM0.211,-0.393L0.619,-0.393L0.619,-0.564L0.211,-0.564L0.211,-0.393Z" style="fill:white;fill-rule:nonzero;"/>
        </g>
        <g transform="matrix(64,0,0,64,1092.57,431.604)">
            <rect x="0.031" y="-0.72" width="0.153" height="0.72" style="fill:white;fill-rule:nonzero;"/>
        </g>
        <g transform="matrix(64,0,0,64,1106.27,431.604)">
            <path d="M0.056,-0L0.056,-0.719L0.627,-0.719C0.654,-0.719 0.679,-0.712 0.701,-0.699C0.724,-0.686 0.742,-0.668 0.756,-0.645C0.769,-0.622 0.776,-0.598 0.776,-0.571L0.776,-0.385C0.776,-0.358 0.769,-0.334 0.756,-0.311C0.742,-0.288 0.724,-0.27 0.701,-0.257C0.679,-0.244 0.654,-0.237 0.627,-0.237L0.211,-0.236L0.211,-0L0.056,-0ZM0.211,-0.393L0.619,-0.393L0.619,-0.564L0.211,-0.564L0.211,-0.393Z" style="fill:white;fill-rule:nonzero;"/>
        </g>
        <g transform="matrix(64,0,0,64,1156.89,431.604)">
            <path d="M0.302,-0L0.302,-0.564L0.02,-0.564L0.02,-0.72L0.74,-0.72L0.74,-0.564L0.458,-0.564L0.458,-0L0.302,-0Z" style="fill:white;fill-rule:nonzero;"/>
        </g>
    </g>
    <g transform="matrix(0.555556,0,0,0.555556,819,429)">
        <g transform="matrix(1,0,0,1,-315,-315)">
            <rect x="0" y="0" width="630" height="630" style="fill:rgb(247,223,30);"/>
            <path d="M423.2,492.19C435.89,512.91 452.4,528.14 481.6,528.14C506.13,528.14 521.8,515.88 521.8,498.94C521.8,478.64 505.7,471.45 478.7,459.64L463.9,453.29C421.18,435.09 392.8,412.29 392.8,364.09C392.8,319.69 426.63,285.89 479.5,285.89C517.14,285.89 544.2,298.99 563.7,333.29L517.6,362.89C507.45,344.69 496.5,337.52 479.5,337.52C462.16,337.52 451.17,348.52 451.17,362.89C451.17,380.65 462.17,387.84 487.57,398.84L502.37,405.18C552.67,426.75 581.07,448.74 581.07,498.18C581.07,551.48 539.2,580.68 482.97,580.68C427.99,580.68 392.47,554.48 375.09,520.14L423.2,492.19ZM214.07,497.32C223.37,513.82 231.83,527.77 252.17,527.77C271.62,527.77 283.89,520.16 283.89,490.57L283.89,289.27L343.09,289.27L343.09,491.37C343.09,552.67 307.15,580.57 254.69,580.57C207.29,580.57 179.84,556.04 165.88,526.495L214.07,497.32Z" style="fill-rule:nonzero;"/>
        </g>
    </g>
    <g transform="matrix(1.34475,0,0,2.0028,-964.081,-5309.64)">
        <path d="M923.857,2918.73L973.795,2968.66L923.857,2968.66L874.038,2918.84L923.857,2918.73Z" style="fill:white;fill-rule:nonzero;"/>
    </g>
    <g transform="matrix(1.34475,0,0,2.0028,-964.081,-5309.64)">
        <path d="M856.453,2918.73L906.39,2968.66L856.453,2968.66L806.633,2918.84L856.453,2918.73Z" style="fill:white;fill-rule:nonzero;"/>
    </g>
    <g transform="matrix(1.34475,0,0,2.0028,-964.081,-5309.64)">
        <path d="M789.048,2918.73L838.986,2968.66L789.048,2968.66L739.229,2918.84L789.048,2918.73Z" style="fill:white;fill-rule:nonzero;"/>
    </g>
</svg>
