<?xml version="1.0" encoding="UTF-8" standalone="no"?>
<!DOCTYPE svg PUBLIC "-//W3C//DTD SVG 1.1//EN" "http://www.w3.org/Graphics/SVG/1.1/DTD/svg11.dtd">
<svg width="100%" height="100%" viewBox="0 0 375 375" version="1.1" xmlns="http://www.w3.org/2000/svg" xmlns:xlink="http://www.w3.org/1999/xlink" xml:space="preserve" xmlns:serif="http://www.serif.com/" style="fill-rule:evenodd;clip-rule:evenodd;stroke-linejoin:round;stroke-miterlimit:2;">
    <g transform="matrix(1,0,0,1,-594,-206)">
        <g transform="matrix(2.929688,0,0,2.929688,781.5,393.5)">
            <g transform="matrix(1,0,0,1,-64,-64)">
                <g transform="matrix(1.440014,0,0,1.440014,-27.782198,-1.937539)">
                    <path d="M82.518,54.655C69.598,62.981 56.796,71.232 43.656,79.698C63.334,82.385 82.661,85.023 102.371,87.714C95.657,76.533 89.115,65.64 82.518,54.655ZM107.927,17.812C106.192,20.416 104.454,23.019 102.722,25.625C96.772,34.576 90.824,43.526 84.881,52.48C84.55,52.98 84.121,53.376 84.587,54.144C90.331,63.627 96.028,73.14 101.739,82.642C102.64,84.143 103.552,85.638 104.718,87.078L108.181,17.887L107.927,17.812ZM29.529,47.38C29.798,47.635 30.469,47.782 30.78,47.629C36.289,44.921 41.833,42.274 47.222,39.343C48.978,38.389 50.328,36.676 51.843,35.288C56.856,30.691 61.86,26.084 66.864,21.476C67.171,21.193 67.532,20.92 67.716,20.563C69.513,17.05 71.278,13.521 73.107,9.888C70.926,9.071 68.859,8.268 66.767,7.538C66.483,7.439 66.037,7.636 65.727,7.808C60.884,10.514 55.95,13.075 51.26,16.026C48.913,17.502 47.001,19.677 44.923,21.573C41.576,24.629 38.231,27.692 34.931,30.802C34.055,31.627 33.257,32.57 32.576,33.562C30.318,36.848 28.13,40.181 25.839,43.61C27.121,44.936 28.284,46.202 29.529,47.38ZM49.662,42.887C46.923,54.464 44.197,65.975 41.383,77.865C54.582,69.361 67.476,61.053 80.284,52.8C70.091,49.5 59.93,46.211 49.662,42.887ZM71.499,23.446L82.719,50.738C90.043,39.737 97.221,28.953 104.562,17.923C93.411,19.786 82.526,21.604 71.499,23.446ZM50.122,40.519C60.164,43.78 70.007,46.975 80.134,50.262C76.373,41.099 72.741,32.257 69.033,23.227L50.122,40.519ZM29.944,54.131L19.44,79.24C26.171,79.041 32.697,78.848 39.445,78.649C36.277,70.473 33.171,62.457 29.944,54.131ZM39.683,72.826L39.931,72.772C42.332,62.784 44.769,52.865 47.222,42.488C41.752,45.33 36.534,48.042 31.172,50.829C33.907,57.941 36.825,65.441 39.683,72.826ZM100.525,16.304C97.33,15.458 94.138,14.608 90.94,13.768C86.347,12.561 81.75,11.367 77.159,10.148C76.586,9.996 76.17,9.897 75.833,10.588C74.211,13.912 72.537,17.212 70.889,20.523C70.838,20.626 70.848,20.76 70.809,21.015C80.757,19.508 90.639,18.01 100.519,16.513L100.525,16.304ZM81.993,8.742C90.572,11.116 99.151,13.489 108.03,15.945L103.728,3.687C96.438,5.304 89.235,6.901 82.032,8.498L81.993,8.742ZM89.875,88.1L68.514,85.184C59.641,83.973 50.784,82.64 41.891,81.615C38.666,81.244 35.355,81.586 32.085,81.641C29.398,81.687 26.711,81.789 24.025,81.874C23.748,81.882 23.472,81.938 23.197,82.235C45.407,84.289 67.619,86.342 89.828,88.397L89.875,88.1ZM19.878,71.576C22.742,64.935 25.59,58.289 28.464,51.654C28.752,50.987 28.731,50.536 28.168,50.001C26.965,48.856 25.849,47.623 24.534,46.257L19.293,72.128L19.486,72.22C19.619,72.006 19.78,71.806 19.878,71.576ZM76.29,6.989C81.117,5.743 86.014,4.771 90.882,3.684C91.196,3.613 91.504,3.509 91.814,3.42L91.767,3.182L70.851,5.995C72.816,6.854 74.329,7.495 76.29,6.989Z" style="fill:rgb(217,20,4);fill-rule:nonzero;"/>
                </g>
            </g>
        </g>
    </g>
</svg>
