<?xml version="1.0" encoding="UTF-8" standalone="no"?>
<!DOCTYPE svg PUBLIC "-//W3C//DTD SVG 1.1//EN" "http://www.w3.org/Graphics/SVG/1.1/DTD/svg11.dtd">
<svg width="100%" height="100%" viewBox="0 0 1024 636" version="1.1" xmlns="http://www.w3.org/2000/svg" xmlns:xlink="http://www.w3.org/1999/xlink" xml:space="preserve" xmlns:serif="http://www.serif.com/" style="fill-rule:evenodd;clip-rule:evenodd;stroke-linecap:round;stroke-linejoin:round;stroke-miterlimit:1.5;">
    <g transform="matrix(2.406793,0,0,2.524841,-1585.756354,-940.515327)">
        <rect x="658.867" y="372.505" width="425.591" height="251.897" style="stroke:white;stroke-width:8.11px;"/>
    </g>
    <g transform="matrix(1,0,0,1,-469.675291,-238.186265)">
        <g>
            <g transform="matrix(64,0,0,64,499.675291,367.583794)">
                <path d="M0.63,-0L0.413,-0.259L0.586,-0.259L0.774,-0.037L0.774,-0L0.63,-0ZM0.056,-0L0.056,-0.719L0.636,-0.719C0.661,-0.719 0.685,-0.713 0.706,-0.7C0.727,-0.687 0.744,-0.671 0.757,-0.649C0.77,-0.628 0.776,-0.605 0.776,-0.58L0.776,-0.386C0.776,-0.361 0.77,-0.337 0.757,-0.316C0.744,-0.295 0.727,-0.278 0.706,-0.266C0.685,-0.253 0.661,-0.247 0.636,-0.247L0.188,-0.246L0.188,-0L0.056,-0ZM0.2,-0.38L0.631,-0.38C0.634,-0.38 0.637,-0.381 0.639,-0.383C0.641,-0.385 0.643,-0.388 0.643,-0.391L0.643,-0.575C0.643,-0.578 0.641,-0.581 0.639,-0.583C0.637,-0.586 0.634,-0.587 0.631,-0.587L0.2,-0.587C0.197,-0.587 0.194,-0.586 0.192,-0.583C0.189,-0.581 0.188,-0.578 0.188,-0.575L0.188,-0.391C0.188,-0.388 0.189,-0.385 0.192,-0.383C0.194,-0.381 0.197,-0.38 0.2,-0.38Z" style="fill:white;fill-rule:nonzero;"/>
            </g>
            <g transform="matrix(64,0,0,64,552.475291,367.583794)">
                <path d="M0.191,-0C0.165,-0 0.142,-0.006 0.122,-0.019C0.101,-0.032 0.084,-0.048 0.072,-0.069C0.059,-0.09 0.053,-0.113 0.053,-0.138L0.053,-0.58L0.184,-0.58L0.184,-0.143C0.184,-0.14 0.185,-0.137 0.188,-0.135C0.19,-0.132 0.193,-0.131 0.196,-0.131L0.499,-0.131C0.502,-0.131 0.505,-0.132 0.507,-0.135C0.51,-0.137 0.511,-0.14 0.511,-0.143L0.511,-0.58L0.642,-0.58L0.642,-0.138C0.642,-0.113 0.636,-0.09 0.623,-0.069C0.611,-0.048 0.594,-0.032 0.574,-0.019C0.553,-0.006 0.53,-0 0.504,-0L0.191,-0Z" style="fill:white;fill-rule:nonzero;"/>
            </g>
            <g transform="matrix(64,0,0,64,595.483291,367.583794)">
                <path d="M0.054,-0L0.054,-0.77L0.185,-0.77L0.185,-0.58L0.505,-0.58C0.53,-0.58 0.554,-0.574 0.574,-0.561C0.595,-0.548 0.612,-0.532 0.624,-0.511C0.637,-0.49 0.643,-0.467 0.643,-0.442L0.643,-0.138C0.643,-0.113 0.637,-0.09 0.624,-0.069C0.612,-0.048 0.595,-0.032 0.574,-0.019C0.554,-0.006 0.53,-0 0.505,-0L0.054,-0ZM0.197,-0.131L0.5,-0.131C0.503,-0.131 0.506,-0.132 0.508,-0.135C0.511,-0.137 0.512,-0.14 0.512,-0.143L0.512,-0.437C0.512,-0.44 0.511,-0.443 0.508,-0.445C0.506,-0.448 0.503,-0.449 0.5,-0.449L0.197,-0.449C0.194,-0.449 0.191,-0.448 0.189,-0.445C0.186,-0.443 0.185,-0.44 0.185,-0.437L0.185,-0.143C0.185,-0.14 0.186,-0.137 0.189,-0.135C0.191,-0.132 0.194,-0.131 0.197,-0.131Z" style="fill:white;fill-rule:nonzero;"/>
            </g>
            <g transform="matrix(64,0,0,64,638.171291,367.583794)">
                <path d="M0.139,0.215L0.139,0.083L0.488,0.083C0.492,0.083 0.494,0.082 0.497,0.079C0.499,0.077 0.5,0.074 0.5,0.071L0.5,-0L0.18,-0C0.155,-0 0.132,-0.006 0.111,-0.019C0.09,-0.031 0.073,-0.048 0.061,-0.069C0.048,-0.09 0.042,-0.113 0.042,-0.138L0.042,-0.578L0.173,-0.578L0.173,-0.143C0.173,-0.14 0.174,-0.137 0.177,-0.135C0.179,-0.132 0.182,-0.131 0.185,-0.131L0.488,-0.131C0.492,-0.131 0.494,-0.132 0.497,-0.135C0.499,-0.137 0.5,-0.14 0.5,-0.143L0.5,-0.578L0.631,-0.578L0.631,0.077C0.631,0.103 0.625,0.126 0.613,0.146C0.601,0.167 0.584,0.184 0.563,0.196C0.542,0.209 0.519,0.215 0.494,0.215L0.139,0.215Z" style="fill:white;fill-rule:nonzero;"/>
            </g>
            <g transform="matrix(64,0,0,64,701.62476,367.583794)">
                <path d="M0.056,-0L0.056,-0.719L0.636,-0.719C0.661,-0.719 0.685,-0.713 0.706,-0.7C0.727,-0.687 0.744,-0.671 0.757,-0.649C0.77,-0.628 0.776,-0.605 0.776,-0.58L0.776,-0.386C0.776,-0.361 0.77,-0.337 0.757,-0.316C0.744,-0.295 0.727,-0.278 0.706,-0.266C0.685,-0.253 0.661,-0.247 0.636,-0.247L0.188,-0.246L0.188,-0L0.056,-0ZM0.2,-0.38L0.631,-0.38C0.634,-0.38 0.637,-0.381 0.639,-0.383C0.641,-0.385 0.643,-0.388 0.643,-0.391L0.643,-0.575C0.643,-0.578 0.641,-0.581 0.639,-0.583C0.637,-0.586 0.634,-0.587 0.631,-0.587L0.2,-0.587C0.197,-0.587 0.194,-0.586 0.192,-0.583C0.189,-0.581 0.188,-0.578 0.188,-0.575L0.188,-0.391C0.188,-0.388 0.189,-0.385 0.192,-0.383C0.194,-0.381 0.197,-0.38 0.2,-0.38Z" style="fill:white;fill-rule:nonzero;"/>
            </g>
            <g transform="matrix(64,0,0,64,752.24876,367.583794)">
                <path d="M0.052,-0L0.052,-0.442C0.052,-0.467 0.058,-0.49 0.071,-0.511C0.084,-0.532 0.1,-0.548 0.121,-0.561C0.142,-0.574 0.165,-0.58 0.19,-0.58L0.512,-0.58L0.512,-0.449L0.195,-0.449C0.192,-0.449 0.189,-0.448 0.187,-0.445C0.184,-0.443 0.183,-0.44 0.183,-0.437L0.183,-0L0.052,-0Z" style="fill:white;fill-rule:nonzero;"/>
            </g>
            <g transform="matrix(64,0,0,64,785.762291,367.583794)">
                <path d="M0.189,-0C0.164,-0 0.141,-0.006 0.12,-0.019C0.099,-0.032 0.083,-0.048 0.07,-0.069C0.057,-0.09 0.051,-0.113 0.051,-0.138L0.051,-0.442C0.051,-0.467 0.057,-0.49 0.07,-0.511C0.083,-0.532 0.099,-0.548 0.12,-0.561C0.141,-0.574 0.164,-0.58 0.189,-0.58L0.502,-0.58C0.528,-0.58 0.551,-0.574 0.572,-0.561C0.592,-0.549 0.609,-0.532 0.621,-0.511C0.634,-0.49 0.64,-0.467 0.64,-0.442L0.64,-0.138C0.64,-0.113 0.634,-0.09 0.621,-0.069C0.609,-0.048 0.592,-0.032 0.572,-0.019C0.551,-0.006 0.528,-0 0.502,-0L0.189,-0ZM0.194,-0.131L0.497,-0.131C0.5,-0.131 0.503,-0.132 0.505,-0.135C0.507,-0.137 0.509,-0.14 0.509,-0.143L0.509,-0.437C0.509,-0.44 0.507,-0.443 0.505,-0.445C0.503,-0.448 0.5,-0.449 0.497,-0.449L0.194,-0.449C0.191,-0.449 0.188,-0.448 0.186,-0.445C0.183,-0.443 0.182,-0.44 0.182,-0.437L0.182,-0.143C0.182,-0.14 0.183,-0.137 0.186,-0.135C0.188,-0.132 0.191,-0.131 0.194,-0.131Z" style="fill:white;fill-rule:nonzero;"/>
            </g>
            <g transform="matrix(64,0,0,64,830.050291,367.583794)">
                <path d="M0.138,0.229L0.138,0.097L0.487,0.097C0.491,0.097 0.493,0.096 0.496,0.093C0.498,0.091 0.499,0.088 0.499,0.085L0.499,-0L0.179,-0C0.154,-0 0.131,-0.006 0.11,-0.019C0.089,-0.031 0.072,-0.048 0.06,-0.069C0.047,-0.09 0.041,-0.113 0.041,-0.138L0.041,-0.442C0.041,-0.467 0.047,-0.49 0.06,-0.511C0.073,-0.532 0.089,-0.548 0.11,-0.561C0.131,-0.574 0.154,-0.58 0.179,-0.58L0.493,-0.58C0.518,-0.58 0.542,-0.574 0.562,-0.561C0.583,-0.548 0.6,-0.532 0.612,-0.511C0.624,-0.49 0.63,-0.467 0.63,-0.442L0.63,0.091C0.63,0.117 0.624,0.14 0.612,0.161C0.6,0.181 0.583,0.198 0.562,0.21C0.541,0.223 0.518,0.229 0.493,0.229L0.138,0.229ZM0.184,-0.131L0.487,-0.131C0.491,-0.131 0.493,-0.132 0.496,-0.135C0.498,-0.137 0.499,-0.14 0.499,-0.143L0.499,-0.437C0.499,-0.44 0.498,-0.443 0.496,-0.445C0.493,-0.448 0.491,-0.449 0.487,-0.449L0.184,-0.449C0.181,-0.449 0.178,-0.448 0.176,-0.445C0.173,-0.443 0.172,-0.44 0.172,-0.437L0.172,-0.143C0.172,-0.14 0.173,-0.137 0.176,-0.135C0.178,-0.132 0.181,-0.131 0.184,-0.131Z" style="fill:white;fill-rule:nonzero;"/>
            </g>
            <g transform="matrix(64,0,0,64,872.354291,367.583794)">
                <path d="M0.052,-0L0.052,-0.442C0.052,-0.467 0.058,-0.49 0.071,-0.511C0.084,-0.532 0.1,-0.548 0.121,-0.561C0.142,-0.574 0.165,-0.58 0.19,-0.58L0.512,-0.58L0.512,-0.449L0.195,-0.449C0.192,-0.449 0.189,-0.448 0.187,-0.445C0.184,-0.443 0.183,-0.44 0.183,-0.437L0.183,-0L0.052,-0Z" style="fill:white;fill-rule:nonzero;"/>
            </g>
            <g transform="matrix(64,0,0,64,906.635822,367.583794)">
                <path d="M0.19,-0C0.164,-0 0.141,-0.006 0.121,-0.019C0.1,-0.032 0.083,-0.048 0.071,-0.069C0.058,-0.09 0.052,-0.113 0.052,-0.138L0.052,-0.356L0.51,-0.356L0.51,-0.437C0.51,-0.44 0.508,-0.443 0.506,-0.445C0.504,-0.448 0.501,-0.449 0.498,-0.449L0.052,-0.449L0.052,-0.58L0.503,-0.58C0.529,-0.58 0.552,-0.574 0.573,-0.561C0.593,-0.549 0.61,-0.532 0.622,-0.511C0.635,-0.49 0.641,-0.467 0.641,-0.442L0.641,-0L0.19,-0ZM0.195,-0.131L0.51,-0.131L0.51,-0.238L0.183,-0.238L0.183,-0.143C0.183,-0.14 0.184,-0.137 0.187,-0.135C0.189,-0.132 0.192,-0.131 0.195,-0.131Z" style="fill:white;fill-rule:nonzero;"/>
            </g>
            <g transform="matrix(64,0,0,64,949.387822,367.583794)">
                <path d="M0.054,-0L0.054,-0.58L0.773,-0.58C0.799,-0.58 0.822,-0.574 0.843,-0.561C0.863,-0.548 0.88,-0.532 0.892,-0.511C0.905,-0.49 0.911,-0.467 0.911,-0.442L0.911,-0L0.781,-0L0.781,-0.437C0.781,-0.44 0.779,-0.443 0.777,-0.445C0.775,-0.448 0.772,-0.449 0.768,-0.449L0.561,-0.449C0.558,-0.449 0.555,-0.448 0.553,-0.445C0.55,-0.443 0.549,-0.44 0.549,-0.437L0.549,-0L0.417,-0L0.417,-0.437C0.417,-0.44 0.416,-0.443 0.413,-0.445C0.411,-0.448 0.408,-0.449 0.405,-0.449L0.197,-0.449C0.194,-0.449 0.191,-0.448 0.189,-0.445C0.186,-0.443 0.185,-0.44 0.185,-0.437L0.185,-0L0.054,-0Z" style="fill:white;fill-rule:nonzero;"/>
            </g>
            <g transform="matrix(64,0,0,64,1009.227822,367.583794)">
                <path d="M0.054,-0L0.054,-0.58L0.773,-0.58C0.799,-0.58 0.822,-0.574 0.843,-0.561C0.863,-0.548 0.88,-0.532 0.892,-0.511C0.905,-0.49 0.911,-0.467 0.911,-0.442L0.911,-0L0.781,-0L0.781,-0.437C0.781,-0.44 0.779,-0.443 0.777,-0.445C0.775,-0.448 0.772,-0.449 0.768,-0.449L0.561,-0.449C0.558,-0.449 0.555,-0.448 0.553,-0.445C0.55,-0.443 0.549,-0.44 0.549,-0.437L0.549,-0L0.417,-0L0.417,-0.437C0.417,-0.44 0.416,-0.443 0.413,-0.445C0.411,-0.448 0.408,-0.449 0.405,-0.449L0.197,-0.449C0.194,-0.449 0.191,-0.448 0.189,-0.445C0.186,-0.443 0.185,-0.44 0.185,-0.437L0.185,-0L0.054,-0Z" style="fill:white;fill-rule:nonzero;"/>
            </g>
            <g transform="matrix(64,0,0,64,1071.819822,367.583794)">
                <path d="M0.052,-0L0.052,-0.58L0.183,-0.58L0.183,-0L0.052,-0ZM0.052,-0.638L0.052,-0.77L0.183,-0.77L0.183,-0.638L0.052,-0.638Z" style="fill:white;fill-rule:nonzero;"/>
            </g>
            <g transform="matrix(64,0,0,64,1087.530119,367.583794)">
                <path d="M0.054,-0L0.054,-0.58L0.505,-0.58C0.53,-0.58 0.554,-0.574 0.574,-0.561C0.595,-0.548 0.612,-0.532 0.624,-0.511C0.637,-0.49 0.643,-0.467 0.643,-0.442L0.643,-0L0.512,-0L0.512,-0.437C0.512,-0.44 0.511,-0.443 0.508,-0.445C0.506,-0.448 0.503,-0.449 0.5,-0.449L0.197,-0.449C0.194,-0.449 0.191,-0.448 0.189,-0.445C0.186,-0.443 0.185,-0.44 0.185,-0.437L0.185,-0L0.054,-0Z" style="fill:white;fill-rule:nonzero;"/>
            </g>
            <g transform="matrix(64,0,0,64,1131.626119,367.583794)">
                <path d="M0.138,0.229L0.138,0.097L0.487,0.097C0.491,0.097 0.493,0.096 0.496,0.093C0.498,0.091 0.499,0.088 0.499,0.085L0.499,-0L0.179,-0C0.154,-0 0.131,-0.006 0.11,-0.019C0.089,-0.031 0.072,-0.048 0.06,-0.069C0.047,-0.09 0.041,-0.113 0.041,-0.138L0.041,-0.442C0.041,-0.467 0.047,-0.49 0.06,-0.511C0.073,-0.532 0.089,-0.548 0.11,-0.561C0.131,-0.574 0.154,-0.58 0.179,-0.58L0.493,-0.58C0.518,-0.58 0.542,-0.574 0.562,-0.561C0.583,-0.548 0.6,-0.532 0.612,-0.511C0.624,-0.49 0.63,-0.467 0.63,-0.442L0.63,0.091C0.63,0.117 0.624,0.14 0.612,0.161C0.6,0.181 0.583,0.198 0.562,0.21C0.541,0.223 0.518,0.229 0.493,0.229L0.138,0.229ZM0.184,-0.131L0.487,-0.131C0.491,-0.131 0.493,-0.132 0.496,-0.135C0.498,-0.137 0.499,-0.14 0.499,-0.143L0.499,-0.437C0.499,-0.44 0.498,-0.443 0.496,-0.445C0.493,-0.448 0.491,-0.449 0.487,-0.449L0.184,-0.449C0.181,-0.449 0.178,-0.448 0.176,-0.445C0.173,-0.443 0.172,-0.44 0.172,-0.437L0.172,-0.143C0.172,-0.14 0.173,-0.137 0.176,-0.135C0.178,-0.132 0.181,-0.131 0.184,-0.131Z" style="fill:white;fill-rule:nonzero;"/>
            </g>
        </g>
        <g>
            <g transform="matrix(64,0,0,64,499.675291,431.583794)">
                <path d="M0.058,-0L0.058,-0.72L0.721,-0.72L0.721,-0.587L0.191,-0.587L0.191,-0.426L0.617,-0.426L0.617,-0.293L0.191,-0.293L0.191,-0L0.058,-0Z" style="fill:white;fill-rule:nonzero;"/>
            </g>
            <g transform="matrix(64,0,0,64,545.947291,431.583794)">
                <path d="M0.191,-0C0.165,-0 0.142,-0.006 0.122,-0.019C0.101,-0.032 0.084,-0.048 0.072,-0.069C0.059,-0.09 0.053,-0.113 0.053,-0.138L0.053,-0.58L0.184,-0.58L0.184,-0.143C0.184,-0.14 0.185,-0.137 0.188,-0.135C0.19,-0.132 0.193,-0.131 0.196,-0.131L0.499,-0.131C0.502,-0.131 0.505,-0.132 0.507,-0.135C0.51,-0.137 0.511,-0.14 0.511,-0.143L0.511,-0.58L0.642,-0.58L0.642,-0.138C0.642,-0.113 0.636,-0.09 0.623,-0.069C0.611,-0.048 0.594,-0.032 0.574,-0.019C0.553,-0.006 0.53,-0 0.504,-0L0.191,-0Z" style="fill:white;fill-rule:nonzero;"/>
            </g>
            <g transform="matrix(64,0,0,64,590.555291,431.583794)">
                <path d="M0.054,-0L0.054,-0.58L0.505,-0.58C0.53,-0.58 0.554,-0.574 0.574,-0.561C0.595,-0.548 0.612,-0.532 0.624,-0.511C0.637,-0.49 0.643,-0.467 0.643,-0.442L0.643,-0L0.512,-0L0.512,-0.437C0.512,-0.44 0.511,-0.443 0.508,-0.445C0.506,-0.448 0.503,-0.449 0.5,-0.449L0.197,-0.449C0.194,-0.449 0.191,-0.448 0.189,-0.445C0.186,-0.443 0.185,-0.44 0.185,-0.437L0.185,-0L0.054,-0Z" style="fill:white;fill-rule:nonzero;"/>
            </g>
            <g transform="matrix(64,0,0,64,635.099291,431.583794)">
                <path d="M0.161,-0C0.135,-0 0.112,-0.006 0.091,-0.019C0.071,-0.031 0.054,-0.048 0.042,-0.069C0.029,-0.09 0.023,-0.113 0.023,-0.138L0.023,-0.442C0.023,-0.467 0.029,-0.49 0.042,-0.511C0.054,-0.532 0.071,-0.548 0.091,-0.561C0.112,-0.574 0.135,-0.58 0.161,-0.58L0.482,-0.58L0.482,-0.77L0.613,-0.77L0.613,-0L0.161,-0ZM0.167,-0.131L0.47,-0.131C0.473,-0.131 0.476,-0.132 0.478,-0.135C0.48,-0.137 0.482,-0.14 0.482,-0.143L0.482,-0.437C0.482,-0.44 0.48,-0.443 0.478,-0.445C0.476,-0.448 0.473,-0.449 0.47,-0.449L0.167,-0.449C0.164,-0.449 0.161,-0.448 0.159,-0.445C0.156,-0.443 0.155,-0.44 0.155,-0.437L0.155,-0.143C0.155,-0.14 0.156,-0.137 0.159,-0.135C0.161,-0.132 0.164,-0.131 0.167,-0.131Z" style="fill:white;fill-rule:nonzero;"/>
            </g>
            <g transform="matrix(64,0,0,64,677.787291,431.583794)">
                <path d="M0.19,-0C0.164,-0 0.141,-0.006 0.121,-0.019C0.1,-0.032 0.083,-0.048 0.071,-0.069C0.058,-0.09 0.052,-0.113 0.052,-0.138L0.052,-0.356L0.51,-0.356L0.51,-0.437C0.51,-0.44 0.508,-0.443 0.506,-0.445C0.504,-0.448 0.501,-0.449 0.498,-0.449L0.052,-0.449L0.052,-0.58L0.503,-0.58C0.529,-0.58 0.552,-0.574 0.573,-0.561C0.593,-0.549 0.61,-0.532 0.622,-0.511C0.635,-0.49 0.641,-0.467 0.641,-0.442L0.641,-0L0.19,-0ZM0.195,-0.131L0.51,-0.131L0.51,-0.238L0.183,-0.238L0.183,-0.143C0.183,-0.14 0.184,-0.137 0.187,-0.135C0.189,-0.132 0.192,-0.131 0.195,-0.131Z" style="fill:white;fill-rule:nonzero;"/>
            </g>
            <g transform="matrix(64,0,0,64,720.539291,431.583794)">
                <path d="M0.054,-0L0.054,-0.58L0.773,-0.58C0.799,-0.58 0.822,-0.574 0.843,-0.561C0.863,-0.548 0.88,-0.532 0.892,-0.511C0.905,-0.49 0.911,-0.467 0.911,-0.442L0.911,-0L0.781,-0L0.781,-0.437C0.781,-0.44 0.779,-0.443 0.777,-0.445C0.775,-0.448 0.772,-0.449 0.768,-0.449L0.561,-0.449C0.558,-0.449 0.555,-0.448 0.553,-0.445C0.55,-0.443 0.549,-0.44 0.549,-0.437L0.549,-0L0.417,-0L0.417,-0.437C0.417,-0.44 0.416,-0.443 0.413,-0.445C0.411,-0.448 0.408,-0.449 0.405,-0.449L0.197,-0.449C0.194,-0.449 0.191,-0.448 0.189,-0.445C0.186,-0.443 0.185,-0.44 0.185,-0.437L0.185,-0L0.054,-0Z" style="fill:white;fill-rule:nonzero;"/>
            </g>
            <g transform="matrix(64,0,0,64,781.339291,431.583794)">
                <path d="M0.189,-0C0.164,-0 0.141,-0.006 0.12,-0.019C0.099,-0.032 0.083,-0.048 0.07,-0.069C0.057,-0.09 0.051,-0.113 0.051,-0.138L0.051,-0.442C0.051,-0.467 0.057,-0.49 0.07,-0.511C0.083,-0.532 0.099,-0.548 0.12,-0.561C0.141,-0.574 0.164,-0.58 0.189,-0.58L0.502,-0.58C0.528,-0.58 0.551,-0.574 0.572,-0.561C0.592,-0.549 0.609,-0.532 0.621,-0.511C0.634,-0.49 0.64,-0.467 0.64,-0.442L0.64,-0.224L0.182,-0.224L0.182,-0.143C0.182,-0.14 0.183,-0.137 0.186,-0.135C0.188,-0.132 0.191,-0.131 0.194,-0.131L0.64,-0.131L0.64,-0L0.189,-0ZM0.182,-0.342L0.509,-0.342L0.509,-0.437C0.509,-0.44 0.507,-0.443 0.505,-0.445C0.503,-0.448 0.5,-0.449 0.497,-0.449L0.194,-0.449C0.191,-0.449 0.188,-0.448 0.186,-0.445C0.183,-0.443 0.182,-0.44 0.182,-0.437L0.182,-0.342Z" style="fill:white;fill-rule:nonzero;"/>
            </g>
            <g transform="matrix(64,0,0,64,825.627291,431.583794)">
                <path d="M0.054,-0L0.054,-0.58L0.505,-0.58C0.53,-0.58 0.554,-0.574 0.574,-0.561C0.595,-0.548 0.612,-0.532 0.624,-0.511C0.637,-0.49 0.643,-0.467 0.643,-0.442L0.643,-0L0.512,-0L0.512,-0.437C0.512,-0.44 0.511,-0.443 0.508,-0.445C0.506,-0.448 0.503,-0.449 0.5,-0.449L0.197,-0.449C0.194,-0.449 0.191,-0.448 0.189,-0.445C0.186,-0.443 0.185,-0.44 0.185,-0.437L0.185,-0L0.054,-0Z" style="fill:white;fill-rule:nonzero;"/>
            </g>
            <g transform="matrix(64,0,0,64,870.171291,431.583794)">
                <path d="M0.191,-0C0.166,-0 0.142,-0.006 0.122,-0.019C0.101,-0.032 0.084,-0.048 0.072,-0.069C0.059,-0.09 0.053,-0.113 0.053,-0.138L0.053,-0.758L0.184,-0.758L0.184,-0.58L0.41,-0.58L0.41,-0.449L0.184,-0.449L0.184,-0.143C0.184,-0.14 0.185,-0.137 0.188,-0.135C0.19,-0.132 0.193,-0.131 0.196,-0.131L0.41,-0.131L0.41,-0L0.191,-0Z" style="fill:white;fill-rule:nonzero;"/>
            </g>
            <g transform="matrix(64,0,0,64,899.563775,431.583794)">
                <path d="M0.19,-0C0.164,-0 0.141,-0.006 0.121,-0.019C0.1,-0.032 0.083,-0.048 0.071,-0.069C0.058,-0.09 0.052,-0.113 0.052,-0.138L0.052,-0.356L0.51,-0.356L0.51,-0.437C0.51,-0.44 0.508,-0.443 0.506,-0.445C0.504,-0.448 0.501,-0.449 0.498,-0.449L0.052,-0.449L0.052,-0.58L0.503,-0.58C0.529,-0.58 0.552,-0.574 0.573,-0.561C0.593,-0.549 0.61,-0.532 0.622,-0.511C0.635,-0.49 0.641,-0.467 0.641,-0.442L0.641,-0L0.19,-0ZM0.195,-0.131L0.51,-0.131L0.51,-0.238L0.183,-0.238L0.183,-0.143C0.183,-0.14 0.184,-0.137 0.187,-0.135C0.189,-0.132 0.192,-0.131 0.195,-0.131Z" style="fill:white;fill-rule:nonzero;"/>
            </g>
            <g transform="matrix(64,0,0,64,942.571775,431.583794)">
                <path d="M0.19,-0C0.165,-0 0.142,-0.006 0.121,-0.019C0.1,-0.032 0.084,-0.048 0.071,-0.069C0.058,-0.09 0.052,-0.113 0.052,-0.138L0.052,-0.771L0.184,-0.771L0.184,-0.143C0.184,-0.14 0.185,-0.137 0.187,-0.135C0.19,-0.132 0.192,-0.131 0.196,-0.131L0.307,-0.131L0.307,-0L0.19,-0Z" style="fill:white;fill-rule:nonzero;"/>
            </g>
            <g transform="matrix(64,0,0,64,963.443603,431.583794)">
                <path d="M0.186,-0C0.161,-0 0.138,-0.006 0.117,-0.019C0.096,-0.032 0.08,-0.048 0.067,-0.069C0.054,-0.09 0.048,-0.113 0.048,-0.138L0.048,-0.16L0.179,-0.16L0.179,-0.143C0.179,-0.14 0.18,-0.137 0.183,-0.135C0.185,-0.132 0.188,-0.131 0.191,-0.131L0.494,-0.131C0.497,-0.131 0.5,-0.132 0.502,-0.135C0.504,-0.137 0.506,-0.14 0.506,-0.143L0.506,-0.212C0.506,-0.215 0.504,-0.218 0.502,-0.221C0.5,-0.223 0.497,-0.224 0.494,-0.224L0.186,-0.224C0.161,-0.224 0.138,-0.23 0.117,-0.243C0.096,-0.256 0.08,-0.272 0.067,-0.293C0.054,-0.314 0.048,-0.337 0.048,-0.362L0.048,-0.442C0.048,-0.467 0.054,-0.49 0.067,-0.511C0.08,-0.532 0.096,-0.548 0.117,-0.561C0.138,-0.574 0.161,-0.58 0.186,-0.58L0.499,-0.58C0.525,-0.58 0.548,-0.574 0.569,-0.561C0.589,-0.548 0.606,-0.532 0.619,-0.511C0.631,-0.49 0.638,-0.467 0.638,-0.442L0.638,-0.42L0.506,-0.42L0.506,-0.437C0.506,-0.44 0.504,-0.443 0.502,-0.445C0.5,-0.448 0.497,-0.449 0.494,-0.449L0.191,-0.449C0.188,-0.449 0.185,-0.448 0.183,-0.445C0.18,-0.443 0.179,-0.44 0.179,-0.437L0.179,-0.368C0.179,-0.365 0.18,-0.362 0.183,-0.359C0.185,-0.357 0.188,-0.356 0.191,-0.356L0.499,-0.356C0.525,-0.356 0.548,-0.35 0.569,-0.337C0.589,-0.324 0.606,-0.308 0.619,-0.287C0.631,-0.266 0.638,-0.243 0.638,-0.218L0.638,-0.138C0.638,-0.113 0.631,-0.09 0.619,-0.069C0.606,-0.048 0.589,-0.032 0.569,-0.019C0.548,-0.006 0.525,-0 0.499,-0L0.186,-0Z" style="fill:white;fill-rule:nonzero;"/>
            </g>
        </g>
    </g>
    <g transform="matrix(3.653807,0,0,1.695169,-2386.704784,-793.596715)">
        <rect x="653.21" y="468.152" width="280.256" height="28.722" style="fill:white;stroke:white;stroke-width:0.7px;"/>
    </g>
    <g transform="matrix(1.640337,0,0,1.640337,781.5,392.979508)">
        <g transform="matrix(1,0,0,1,-99.065,-98.79)">
            <clipPath id="_clip1">
                <rect x="0" y="0" width="198.13" height="197.58"/>
            </clipPath>
            <g clip-path="url(#_clip1)">
                <path id="polygon3282" d="M153.5,130.41L40.38,197.58L186.849,187.641L198.13,39.95L153.5,130.41Z" style="fill:url(#_Linear2);"/>
                <path id="polygon3293" d="M187.089,187.54L174.5,100.65L140.209,145.93L187.089,187.54Z" style="fill:url(#_Linear3);"/>
                <path id="polygon3304" d="M187.259,187.54L95.03,180.3L40.87,197.391L187.259,187.54Z" style="fill:url(#_Linear4);"/>
                <path id="polygon3319" d="M41,197.41L64.04,121.93L13.34,132.771L41,197.41Z" style="fill:url(#_Linear5);"/>
                <path id="polygon3334" d="M140.2,146.18L119,63.14L58.33,120.01L140.2,146.18Z" style="fill:url(#_Linear6);"/>
                <path id="polygon3349" d="M193.32,64.31L135.97,17.47L120,69.1L193.32,64.31Z" style="fill:url(#_Linear7);"/>
                <path id="polygon3362" d="M166.5,0.77L132.77,19.41L111.49,0.52L166.5,0.77Z" style="fill:url(#_Linear8);"/>
                <path id="polygon3375" d="M0,158.09L14.13,132.32L2.7,101.62L0,158.09Z" style="fill:url(#_Linear9);"/>
                <path id="path3377" d="M1.94,100.65L13.44,133.27L63.41,122.059L120.46,69.039L136.56,17.9L111.209,0L68.109,16.13C54.53,28.76 28.18,53.75 27.23,54.22C26.29,54.7 9.83,85.81 1.94,100.65Z" style="fill:white;"/>
                <path id="path3400" d="M42.32,42.05C71.75,12.87 109.69,-4.37 124.25,10.32C138.801,25.01 123.37,60.71 93.94,89.88C64.51,119.05 27.04,137.24 12.49,122.55C-2.07,107.87 12.89,71.22 42.32,42.05Z" style="fill:url(#_Linear10);"/>
                <path id="path3413" d="M41,197.38L63.86,121.66L139.78,146.05C112.33,171.79 81.8,193.55 41,197.38Z" style="fill:url(#_Linear11);"/>
                <path id="path3424" d="M120.56,68.89L140.05,146.09C162.98,121.98 183.56,96.06 193.639,64L120.56,68.89Z" style="fill:url(#_Linear12);"/>
                <path id="path3435" d="M193.44,64.39C201.24,40.85 203.04,7.08 166.259,0.81L136.079,17.48L193.44,64.39Z" style="fill:url(#_Linear13);"/>
                <path id="path3437" d="M0,157.75C1.08,196.601 29.11,197.18 41.05,197.521L13.47,133.11L0,157.75Z" style="fill:rgb(158,18,9);"/>
                <path id="path3448" d="M120.669,69.01C138.289,79.84 173.8,101.59 174.52,101.99C175.639,102.62 189.83,78.06 193.05,64.18L120.669,69.01Z" style="fill:url(#_Radial14);"/>
                <path id="path3459" d="M63.83,121.66L94.39,180.62C112.46,170.82 126.61,158.88 139.57,146.09L63.83,121.66Z" style="fill:url(#_Radial15);"/>
                <path id="path3472" d="M13.35,133.19L9.02,184.75C17.19,195.91 28.43,196.88 40.22,196.01C31.69,174.78 14.65,132.33 13.35,133.19Z" style="fill:url(#_Linear16);"/>
                <path id="path3485" d="M135.9,17.61L196.61,26.13C193.37,12.4 183.42,3.54 166.46,0.77L135.9,17.61Z" style="fill:url(#_Linear17);"/>
            </g>
        </g>
    </g>
    <defs>
        <linearGradient id="_Linear2" x1="0" y1="0" x2="1" y2="0" gradientUnits="userSpaceOnUse" gradientTransform="matrix(-41.79739,-73.7955,73.7955,-41.79739,174.0737,215.5488)"><stop offset="0" style="stop-color:rgb(251,118,85);stop-opacity:1"/><stop offset="0" style="stop-color:rgb(251,118,85);stop-opacity:1"/><stop offset="0.41" style="stop-color:rgb(228,43,30);stop-opacity:1"/><stop offset="0.99" style="stop-color:rgb(153,0,0);stop-opacity:1"/><stop offset="1" style="stop-color:rgb(153,0,0);stop-opacity:1"/></linearGradient>
        <linearGradient id="_Linear3" x1="0" y1="0" x2="1" y2="0" gradientUnits="userSpaceOnUse" gradientTransform="matrix(-53.8674,-36.1483,36.1483,-53.8674,194.895,153.5576)"><stop offset="0" style="stop-color:rgb(135,17,1);stop-opacity:1"/><stop offset="0" style="stop-color:rgb(135,17,1);stop-opacity:1"/><stop offset="0.99" style="stop-color:rgb(145,18,9);stop-opacity:1"/><stop offset="1" style="stop-color:rgb(145,18,9);stop-opacity:1"/></linearGradient>
        <linearGradient id="_Linear4" x1="0" y1="0" x2="1" y2="0" gradientUnits="userSpaceOnUse" gradientTransform="matrix(-53.865687,-36.1472,36.1472,-53.865687,151.79539,217.7852)"><stop offset="0" style="stop-color:rgb(135,17,1);stop-opacity:1"/><stop offset="0" style="stop-color:rgb(135,17,1);stop-opacity:1"/><stop offset="0.99" style="stop-color:rgb(145,18,9);stop-opacity:1"/><stop offset="1" style="stop-color:rgb(145,18,9);stop-opacity:1"/></linearGradient>
        <linearGradient id="_Linear5" x1="0" y1="0" x2="1" y2="0" gradientUnits="userSpaceOnUse" gradientTransform="matrix(8.350601,54.27081,-54.27081,8.350601,38.696301,127.3906)"><stop offset="0" style="stop-color:white;stop-opacity:1"/><stop offset="0" style="stop-color:white;stop-opacity:1"/><stop offset="0.23" style="stop-color:rgb(229,114,82);stop-opacity:1"/><stop offset="0.46" style="stop-color:rgb(222,59,32);stop-opacity:1"/><stop offset="0.99" style="stop-color:rgb(166,0,3);stop-opacity:1"/><stop offset="1" style="stop-color:rgb(166,0,3);stop-opacity:1"/></linearGradient>
        <linearGradient id="_Linear6" x1="0" y1="0" x2="1" y2="0" gradientUnits="userSpaceOnUse" gradientTransform="matrix(3.076805,55.386798,-55.386798,3.076805,96.132797,76.715302)"><stop offset="0" style="stop-color:white;stop-opacity:1"/><stop offset="0" style="stop-color:white;stop-opacity:1"/><stop offset="0.23" style="stop-color:rgb(228,113,78);stop-opacity:1"/><stop offset="0.56" style="stop-color:rgb(190,26,13);stop-opacity:1"/><stop offset="0.99" style="stop-color:rgb(168,13,0);stop-opacity:1"/><stop offset="1" style="stop-color:rgb(168,13,0);stop-opacity:1"/></linearGradient>
        <linearGradient id="_Linear7" x1="0" y1="0" x2="1" y2="0" gradientUnits="userSpaceOnUse" gradientTransform="matrix(9.2111,39.695202,-39.695202,9.2111,147.103,25.521)"><stop offset="0" style="stop-color:white;stop-opacity:1"/><stop offset="0" style="stop-color:white;stop-opacity:1"/><stop offset="0.18" style="stop-color:rgb(228,99,66);stop-opacity:1"/><stop offset="0.4" style="stop-color:rgb(200,36,16);stop-opacity:1"/><stop offset="0.99" style="stop-color:rgb(168,13,0);stop-opacity:1"/><stop offset="1" style="stop-color:rgb(168,13,0);stop-opacity:1"/></linearGradient>
        <linearGradient id="_Linear8" x1="0" y1="0" x2="1" y2="0" gradientUnits="userSpaceOnUse" gradientTransform="matrix(39.69249,-19.8463,19.8463,39.69249,118.9761,11.5415)"><stop offset="0" style="stop-color:white;stop-opacity:1"/><stop offset="0" style="stop-color:white;stop-opacity:1"/><stop offset="0.54" style="stop-color:rgb(200,31,17);stop-opacity:1"/><stop offset="0.99" style="stop-color:rgb(191,9,5);stop-opacity:1"/><stop offset="1" style="stop-color:rgb(191,9,5);stop-opacity:1"/></linearGradient>
        <linearGradient id="_Linear9" x1="0" y1="0" x2="1" y2="0" gradientUnits="userSpaceOnUse" gradientTransform="matrix(3.2669,32.7081,-32.7081,3.2669,3.9033,113.5547)"><stop offset="0" style="stop-color:white;stop-opacity:1"/><stop offset="0" style="stop-color:white;stop-opacity:1"/><stop offset="0.31" style="stop-color:rgb(222,64,36);stop-opacity:1"/><stop offset="0.99" style="stop-color:rgb(191,25,11);stop-opacity:1"/><stop offset="1" style="stop-color:rgb(191,25,11);stop-opacity:1"/></linearGradient>
        <linearGradient id="_Linear10" x1="0" y1="0" x2="1" y2="0" gradientUnits="userSpaceOnUse" gradientTransform="matrix(153.5709,-157.91381,157.91381,153.5709,-18.5557,155.10451)"><stop offset="0" style="stop-color:rgb(189,0,18);stop-opacity:1"/><stop offset="0" style="stop-color:rgb(189,0,18);stop-opacity:1"/><stop offset="0.07" style="stop-color:white;stop-opacity:1"/><stop offset="0.17" style="stop-color:white;stop-opacity:1"/><stop offset="0.27" style="stop-color:rgb(200,47,28);stop-opacity:1"/><stop offset="0.33" style="stop-color:rgb(130,12,1);stop-opacity:1"/><stop offset="0.46" style="stop-color:rgb(163,22,1);stop-opacity:1"/><stop offset="0.72" style="stop-color:rgb(179,19,1);stop-opacity:1"/><stop offset="0.99" style="stop-color:rgb(232,38,9);stop-opacity:1"/><stop offset="1" style="stop-color:rgb(232,38,9);stop-opacity:1"/></linearGradient>
        <linearGradient id="_Linear11" x1="0" y1="0" x2="1" y2="0" gradientUnits="userSpaceOnUse" gradientTransform="matrix(-46.257,-11.41661,11.41661,-46.257,99.074699,171.0332)"><stop offset="0" style="stop-color:rgb(140,12,1);stop-opacity:1"/><stop offset="0" style="stop-color:rgb(140,12,1);stop-opacity:1"/><stop offset="0.54" style="stop-color:rgb(153,12,0);stop-opacity:1"/><stop offset="0.99" style="stop-color:rgb(168,13,14);stop-opacity:1"/><stop offset="1" style="stop-color:rgb(168,13,14);stop-opacity:1"/></linearGradient>
        <linearGradient id="_Linear12" x1="0" y1="0" x2="1" y2="0" gradientUnits="userSpaceOnUse" gradientTransform="matrix(-41.0932,-36.830602,36.830602,-41.0932,178.52589,115.5146)"><stop offset="0" style="stop-color:rgb(126,17,11);stop-opacity:1"/><stop offset="0" style="stop-color:rgb(126,17,11);stop-opacity:1"/><stop offset="0.99" style="stop-color:rgb(158,12,0);stop-opacity:1"/><stop offset="1" style="stop-color:rgb(158,12,0);stop-opacity:1"/></linearGradient>
        <linearGradient id="_Linear13" x1="0" y1="0" x2="1" y2="0" gradientUnits="userSpaceOnUse" gradientTransform="matrix(-20.46929,-21.883199,21.883199,-20.46929,193.6235,47.937)"><stop offset="0" style="stop-color:rgb(121,19,13);stop-opacity:1"/><stop offset="0" style="stop-color:rgb(121,19,13);stop-opacity:1"/><stop offset="0.99" style="stop-color:rgb(158,18,11);stop-opacity:1"/><stop offset="1" style="stop-color:rgb(158,18,11);stop-opacity:1"/></linearGradient>
        <radialGradient id="_Radial14" cx="0" cy="0" r="1" gradientUnits="userSpaceOnUse" gradientTransform="matrix(50.357601,0,0,50.357601,143.8315,79.388199)"><stop offset="0" style="stop-color:rgb(168,13,0);stop-opacity:1"/><stop offset="0" style="stop-color:rgb(168,13,0);stop-opacity:1"/><stop offset="0.99" style="stop-color:rgb(126,14,8);stop-opacity:1"/><stop offset="1" style="stop-color:rgb(126,14,8);stop-opacity:1"/></radialGradient>
        <radialGradient id="_Radial15" cx="0" cy="0" r="1" gradientUnits="userSpaceOnUse" gradientTransform="matrix(66.943703,0,0,66.943703,74.0923,145.75101)"><stop offset="0" style="stop-color:rgb(163,12,0);stop-opacity:1"/><stop offset="0" style="stop-color:rgb(163,12,0);stop-opacity:1"/><stop offset="0.99" style="stop-color:rgb(128,14,8);stop-opacity:1"/><stop offset="1" style="stop-color:rgb(128,14,8);stop-opacity:1"/></radialGradient>
        <linearGradient id="_Linear16" x1="0" y1="0" x2="1" y2="0" gradientUnits="userSpaceOnUse" gradientTransform="matrix(-16.681201,-56.59391,56.59391,-16.681201,26.669901,197.33591)"><stop offset="0" style="stop-color:rgb(139,33,20);stop-opacity:1"/><stop offset="0" style="stop-color:rgb(139,33,20);stop-opacity:1"/><stop offset="0.43" style="stop-color:rgb(158,16,10);stop-opacity:1"/><stop offset="0.99" style="stop-color:rgb(179,16,12);stop-opacity:1"/><stop offset="1" style="stop-color:rgb(179,16,12);stop-opacity:1"/></linearGradient>
        <linearGradient id="_Linear17" x1="0" y1="0" x2="1" y2="0" gradientUnits="userSpaceOnUse" gradientTransform="matrix(37.3979,16.508001,-16.508001,37.3979,154.6411,9.7979)"><stop offset="0" style="stop-color:rgb(179,16,0);stop-opacity:1"/><stop offset="0" style="stop-color:rgb(179,16,0);stop-opacity:1"/><stop offset="0.44" style="stop-color:rgb(145,15,8);stop-opacity:1"/><stop offset="0.99" style="stop-color:rgb(121,28,18);stop-opacity:1"/><stop offset="1" style="stop-color:rgb(121,28,18);stop-opacity:1"/></linearGradient>
    </defs>
</svg>
