<?xml version="1.0" encoding="UTF-8" standalone="no"?>
<!DOCTYPE svg PUBLIC "-//W3C//DTD SVG 1.1//EN" "http://www.w3.org/Graphics/SVG/1.1/DTD/svg11.dtd">
<svg width="100%" height="100%" viewBox="0 0 342 342" version="1.1" xmlns="http://www.w3.org/2000/svg" xmlns:xlink="http://www.w3.org/1999/xlink" xml:space="preserve" xmlns:serif="http://www.serif.com/" style="fill-rule:evenodd;clip-rule:evenodd;stroke-linejoin:round;stroke-miterlimit:2;">
    <g transform="matrix(1,0,0,1,-627.275382,-239.275382)">
        <g>
            <g id="RAM" transform="matrix(0.765338,0,0,0.765338,278.450713,-759.043293)">
                <path d="M704.733,1693.775L730.859,1693.775L730.859,1719.844L704.733,1719.844L704.733,1693.775ZM743.656,1693.775L769.782,1693.775L769.782,1719.844L743.656,1719.844L743.656,1693.775ZM795.375,1693.775L821.501,1693.775L821.501,1719.844L795.375,1719.844L795.375,1693.775ZM834.298,1693.775L860.423,1693.775L860.423,1719.844L834.298,1719.844L834.298,1693.775ZM679.029,1695.543C683.897,1695.543 687.842,1699.488 687.842,1704.355C687.842,1709.223 683.897,1713.168 679.029,1713.168L679.029,1746.166C679.029,1748.6 681.003,1750.572 683.437,1750.572C685.87,1750.572 687.842,1748.6 687.842,1746.166L687.842,1737.354L699.514,1737.354L699.514,1746.166C699.514,1748.789 701.641,1750.916 704.264,1750.916C706.888,1750.916 709.014,1748.789 709.014,1746.166L709.014,1737.354L719.094,1737.354L719.094,1746.166C719.094,1748.789 721.221,1750.916 723.844,1750.916C726.467,1750.916 728.594,1748.789 728.594,1746.166L728.594,1737.354L738.672,1737.354L738.672,1746.166C738.672,1748.789 740.799,1750.916 743.422,1750.916C746.045,1750.916 748.172,1748.789 748.172,1746.166L748.172,1737.354L758.25,1737.354L758.25,1746.166C758.25,1748.789 760.376,1750.916 763,1750.916C765.623,1750.916 767.75,1748.789 767.75,1746.166L767.75,1737.354L777.829,1737.354L777.829,1746.166C777.829,1748.789 779.954,1750.916 782.579,1750.916C785.201,1750.916 787.329,1748.789 787.329,1746.166L787.329,1737.354L797.407,1737.354L797.407,1746.166C797.407,1748.789 799.534,1750.916 802.157,1750.916C804.779,1750.916 806.907,1748.789 806.907,1746.166L806.907,1737.354L816.985,1737.354L816.985,1746.166C816.985,1748.789 819.113,1750.916 821.735,1750.916C824.359,1750.916 826.485,1748.789 826.485,1746.166L826.485,1737.354L836.563,1737.354L836.563,1746.166C836.563,1748.789 838.69,1750.916 841.313,1750.916C843.936,1750.916 846.063,1748.789 846.063,1746.166L846.063,1737.354L856.141,1737.354L856.141,1746.166C856.141,1748.789 858.269,1750.916 860.891,1750.916C863.514,1750.916 865.641,1748.789 865.641,1746.166L865.641,1737.354L877.315,1737.354L877.315,1746.166C877.315,1748.6 879.287,1750.572 881.721,1750.572C884.154,1750.572 886.126,1748.6 886.126,1746.166L886.126,1713.168C881.259,1713.168 877.315,1709.223 877.315,1704.355C877.315,1699.488 881.259,1695.543 886.126,1695.543L886.126,1671.357L679.029,1671.357L679.029,1695.543ZM843.798,1600.862L832.958,1577.151L856.717,1566.288L867.558,1589.997L843.798,1600.862ZM808.401,1617.047L797.56,1593.337L821.32,1582.474L832.16,1606.183L808.401,1617.047ZM761.365,1638.553L750.524,1614.844L774.284,1603.979L785.125,1627.689L761.365,1638.553ZM725.967,1654.738L715.126,1631.028L738.886,1620.164L749.727,1643.875L725.967,1654.738ZM901.88,1603.247L898.214,1595.233L888.157,1573.237C883.732,1575.262 878.503,1573.314 876.479,1568.888C874.456,1564.461 876.402,1559.232 880.829,1557.208L870.772,1535.212L682.428,1621.331L692.485,1643.325C696.912,1641.301 702.141,1643.25 704.165,1647.676C706.188,1652.103 704.24,1657.331 699.815,1659.354L700.959,1661.857L755.458,1661.857L754.948,1660.739L764.112,1656.549L766.54,1661.857L776.771,1661.857C776.704,1661.437 776.602,1661.018 776.417,1660.612L772.751,1652.599L781.918,1648.407L785.583,1656.424C786.381,1658.168 788.104,1659.199 789.906,1659.199C790.566,1659.199 791.238,1659.061 791.878,1658.769C794.263,1657.676 795.313,1654.857 794.222,1652.472L790.558,1644.457L799.724,1640.267L803.389,1648.282C804.186,1650.026 805.91,1651.06 807.712,1651.06C808.372,1651.06 809.043,1650.92 809.683,1650.627C812.069,1649.535 813.12,1646.717 812.027,1644.331L808.363,1636.315L817.529,1632.125L821.194,1640.142C821.992,1641.887 823.714,1642.918 825.518,1642.918C826.177,1642.918 826.849,1642.778 827.488,1642.487C829.875,1641.396 830.925,1638.577 829.834,1636.189L826.169,1628.176L835.334,1623.983L839,1631.999C839.798,1633.743 841.521,1634.772 843.323,1634.772C843.983,1634.772 844.654,1634.637 845.295,1634.341C847.681,1633.251 848.73,1630.433 847.639,1628.047L843.975,1620.034L853.139,1615.844L856.803,1623.857C857.602,1625.603 859.324,1626.633 861.126,1626.633C861.787,1626.633 862.458,1626.495 863.099,1626.202C865.483,1625.111 866.535,1622.293 865.444,1619.905L861.779,1611.892L870.945,1607.702L874.61,1615.717C875.407,1617.461 877.131,1618.491 878.933,1618.491C879.592,1618.491 880.264,1618.354 880.904,1618.062C883.29,1616.97 884.339,1614.151 883.25,1611.765L879.584,1603.751L890.201,1598.896L893.865,1606.911C894.876,1609.125 897.492,1610.099 899.704,1609.086C901.918,1608.074 902.891,1605.461 901.88,1603.247Z" style="fill:rgb(254,1,85);fill-rule:nonzero;"/>
            </g>
            <g transform="matrix(0.766741,0,0,0.766741,437.95465,-604.872466)">
                <path d="M278.93,1141.528C283.521,1141.528 287.243,1137.806 287.243,1133.215C287.243,1128.624 283.521,1124.903 278.93,1124.903C274.338,1124.903 270.617,1128.624 270.617,1133.215C270.617,1137.806 274.338,1141.528 278.93,1141.528ZM408.319,1314.705L354.97,1314.743L354.97,1289.543C354.97,1287.207 353.988,1284.98 352.263,1283.405C350.538,1281.831 348.241,1281.053 345.905,1281.264C338.683,1281.919 331.745,1281.742 325.161,1280.763L332.11,1271.603C333.259,1272.203 334.545,1272.574 335.93,1272.574C369.452,1272.574 396.724,1245.303 396.724,1211.782C396.724,1178.258 369.452,1150.985 335.93,1150.985C302.408,1150.985 275.136,1178.258 275.136,1211.782C275.136,1231.568 284.817,1250.181 301.032,1261.566C304.791,1264.208 309.974,1263.299 312.611,1259.542C315.249,1255.785 314.342,1250.598 310.585,1247.962C298.798,1239.683 291.761,1226.16 291.761,1211.782C291.761,1187.426 311.575,1167.61 335.93,1167.61C360.284,1167.61 380.099,1187.426 380.099,1211.782C380.099,1233.152 364.84,1251.023 344.646,1255.082L349.616,1248.531C350.318,1247.606 350.224,1246.305 349.407,1245.484C348.586,1244.665 347.284,1244.576 346.36,1245.275L297.786,1282.129C297.671,1282.215 297.604,1282.346 297.511,1282.451C297.373,1282.575 297.222,1282.664 297.089,1282.795C292.945,1286.939 292.945,1293.659 297.089,1297.802C301.232,1301.946 307.952,1301.946 312.096,1297.802C312.229,1297.671 312.318,1297.515 312.442,1297.381C312.549,1297.285 312.673,1297.22 312.762,1297.105L313.997,1295.477C321.735,1297.411 329.912,1298.35 338.345,1298.279L338.345,1314.756L263.541,1314.809L263.517,1269.429L271.462,1269.429C273.27,1271.619 275.948,1274.541 279.567,1277.695C281.143,1279.07 283.089,1279.743 285.027,1279.743C287.345,1279.743 289.652,1278.778 291.296,1276.892C294.312,1273.434 293.954,1268.183 290.493,1265.166C285.179,1260.53 282.607,1256.647 282.607,1256.647C281.079,1254.254 278.436,1252.804 275.597,1252.804L263.508,1252.804L263.437,1117.58L408.319,1117.478L408.319,1314.705ZM408.423,1100.955L263.437,1100.955C254.327,1100.955 246.916,1108.368 246.916,1117.478L246.916,1314.809C246.916,1323.92 254.327,1331.33 263.437,1331.33L408.423,1331.33C417.533,1331.33 424.944,1323.92 424.944,1314.809L424.944,1117.478C424.944,1108.368 417.533,1100.955 408.423,1100.955ZM392.93,1141.528C397.521,1141.528 401.243,1137.806 401.243,1133.215C401.243,1128.624 397.521,1124.903 392.93,1124.903C388.338,1124.903 384.618,1128.624 384.618,1133.215C384.618,1137.806 388.338,1141.528 392.93,1141.528ZM392.93,1290.757C388.338,1290.757 384.618,1294.478 384.618,1299.07C384.618,1303.661 388.338,1307.382 392.93,1307.382C397.521,1307.382 401.243,1303.661 401.243,1299.07C401.243,1294.478 397.521,1290.757 392.93,1290.757ZM278.93,1290.757C274.338,1290.757 270.617,1294.478 270.617,1299.07C270.617,1303.661 274.338,1307.382 278.93,1307.382C283.521,1307.382 287.243,1303.661 287.243,1299.07C287.243,1294.478 283.521,1290.757 278.93,1290.757ZM335.93,1225.344C343.418,1225.344 349.491,1219.271 349.491,1211.781C349.491,1204.291 343.418,1198.218 335.93,1198.218C328.438,1198.218 322.365,1204.291 322.365,1211.781C322.365,1219.271 328.438,1225.344 335.93,1225.344Z" style="fill:rgb(27,212,215);fill-rule:nonzero;"/>
            </g>
            <g transform="matrix(0.74167,0,0,0.74167,634.314596,-894.375833)">
                <path d="M381.001,1728.51C376.41,1728.51 372.689,1732.232 372.689,1736.822L372.689,1750.573C372.689,1755.163 376.41,1758.886 381.001,1758.886C385.593,1758.886 389.314,1755.163 389.314,1750.573L389.314,1736.822C389.314,1732.232 385.593,1728.51 381.001,1728.51ZM442.946,1680.315L429.195,1680.315C424.604,1680.315 420.883,1684.038 420.883,1688.628C420.883,1693.219 424.604,1696.94 429.195,1696.94L442.946,1696.94C447.537,1696.94 451.259,1693.219 451.259,1688.628C451.259,1684.038 447.537,1680.315 442.946,1680.315ZM442.946,1620.41L429.195,1620.41C424.604,1620.41 420.883,1624.132 420.883,1628.722C420.883,1633.312 424.604,1637.035 429.195,1637.035L442.946,1637.035C447.537,1637.035 451.259,1633.312 451.259,1628.722C451.259,1624.132 447.537,1620.41 442.946,1620.41ZM351.047,1728.51C346.456,1728.51 342.735,1732.232 342.735,1736.822L342.735,1750.573C342.735,1755.163 346.456,1758.886 351.047,1758.886C355.638,1758.886 359.36,1755.163 359.36,1750.573L359.36,1736.822C359.36,1732.232 355.638,1728.51 351.047,1728.51ZM395.976,1688.577C395.976,1696.864 389.16,1703.604 380.78,1703.604L291.362,1703.604C282.982,1703.604 276.165,1696.864 276.165,1688.577L276.165,1598.824C276.165,1590.534 282.982,1583.792 291.362,1583.792L380.78,1583.792C389.16,1583.792 395.976,1590.534 395.976,1598.824L395.976,1688.577ZM380.78,1567.167L291.362,1567.167C273.816,1567.167 259.54,1581.368 259.54,1598.824L259.54,1688.577C259.54,1706.03 273.816,1720.229 291.362,1720.229L380.78,1720.229C398.326,1720.229 412.601,1706.03 412.601,1688.577L412.601,1598.824C412.601,1581.368 398.326,1567.167 380.78,1567.167ZM442.946,1650.361L429.195,1650.361C424.604,1650.361 420.883,1654.084 420.883,1658.674C420.883,1663.264 424.604,1666.986 429.195,1666.986L442.946,1666.986C447.537,1666.986 451.259,1663.264 451.259,1658.674C451.259,1654.084 447.537,1650.361 442.946,1650.361ZM321.094,1728.51C316.503,1728.51 312.781,1732.232 312.781,1736.822L312.781,1750.573C312.781,1755.163 316.503,1758.886 321.094,1758.886C325.685,1758.886 329.406,1755.163 329.406,1750.573L329.406,1736.822C329.406,1732.232 325.685,1728.51 321.094,1728.51ZM321.094,1558.887C325.685,1558.887 329.406,1555.165 329.406,1550.574L329.406,1536.823C329.406,1532.233 325.685,1528.511 321.094,1528.511C316.503,1528.511 312.781,1532.233 312.781,1536.823L312.781,1550.574C312.781,1555.165 316.503,1558.887 321.094,1558.887ZM351.047,1558.887C355.638,1558.887 359.36,1555.165 359.36,1550.574L359.36,1536.823C359.36,1532.233 355.638,1528.511 351.047,1528.511C346.456,1528.511 342.735,1532.233 342.735,1536.823L342.735,1550.574C342.735,1555.165 346.456,1558.887 351.047,1558.887ZM291.14,1558.887C295.731,1558.887 299.452,1555.165 299.452,1550.574L299.452,1536.823C299.452,1532.233 295.731,1528.511 291.14,1528.511C286.549,1528.511 282.827,1532.233 282.827,1536.823L282.827,1550.574C282.827,1555.165 286.549,1558.887 291.14,1558.887ZM291.14,1728.51C286.549,1728.51 282.827,1732.232 282.827,1736.822L282.827,1750.573C282.827,1755.163 286.549,1758.886 291.14,1758.886C295.731,1758.886 299.452,1755.163 299.452,1750.573L299.452,1736.822C299.452,1732.232 295.731,1728.51 291.14,1728.51ZM429.195,1607.081L442.946,1607.081C447.537,1607.081 451.259,1603.358 451.259,1598.768C451.259,1594.178 447.537,1590.456 442.946,1590.456L429.195,1590.456C424.604,1590.456 420.883,1594.178 420.883,1598.768C420.883,1603.358 424.604,1607.081 429.195,1607.081ZM381.001,1558.887C385.593,1558.887 389.314,1555.165 389.314,1550.574L389.314,1536.823C389.314,1532.233 385.593,1528.511 381.001,1528.511C376.41,1528.511 372.689,1532.233 372.689,1536.823L372.689,1550.574C372.689,1555.165 376.41,1558.887 381.001,1558.887ZM242.947,1650.361L229.196,1650.361C224.605,1650.361 220.884,1654.084 220.884,1658.674C220.884,1663.264 224.605,1666.986 229.196,1666.986L242.947,1666.986C247.537,1666.986 251.259,1663.264 251.259,1658.674C251.259,1654.084 247.537,1650.361 242.947,1650.361ZM242.947,1620.41L229.196,1620.41C224.605,1620.41 220.884,1624.132 220.884,1628.722C220.884,1633.312 224.605,1637.035 229.196,1637.035L242.947,1637.035C247.537,1637.035 251.259,1633.312 251.259,1628.722C251.259,1624.132 247.537,1620.41 242.947,1620.41ZM242.947,1680.315L229.196,1680.315C224.605,1680.315 220.884,1684.038 220.884,1688.628C220.884,1693.219 224.605,1696.94 229.196,1696.94L242.947,1696.94C247.537,1696.94 251.259,1693.219 251.259,1688.628C251.259,1684.038 247.537,1680.315 242.947,1680.315ZM242.947,1590.456L229.196,1590.456C224.605,1590.456 220.884,1594.178 220.884,1598.768C220.884,1603.358 224.605,1607.081 229.196,1607.081L242.947,1607.081C247.537,1607.081 251.259,1603.358 251.259,1598.768C251.259,1594.178 247.537,1590.456 242.947,1590.456Z" style="fill:rgb(27,212,215);fill-rule:nonzero;"/>
            </g>
            <g transform="matrix(0.689487,0,0,0.689487,475.99854,247.196665)">
                <path d="M433.155,381.794L236.03,381.794L236.03,270.384L433.155,270.384L433.155,381.794ZM433.155,432.316L236.03,432.316L236.03,398.419L433.155,398.419L433.155,432.316ZM350.249,467.508L318.938,467.508L318.938,450.186L350.249,450.186L350.249,467.508ZM441.468,253.759L227.717,253.759C223.127,253.759 219.405,257.481 219.405,262.071L219.405,440.628C219.405,445.219 223.127,448.941 227.717,448.941L302.311,448.941L302.311,467.508L278.692,467.508C274.1,467.508 270.38,471.229 270.38,475.821C270.38,480.411 274.1,484.133 278.692,484.133L390.494,484.133C395.084,484.133 398.806,480.411 398.806,475.821C398.806,471.229 395.084,467.508 390.494,467.508L366.874,467.508L366.874,448.941L441.468,448.941C446.059,448.941 449.78,445.219 449.78,440.628L449.78,262.071C449.78,257.481 446.059,253.759 441.468,253.759ZM326.24,424.156L342.945,424.156C347.537,424.156 351.258,420.435 351.258,415.843C351.258,411.253 347.537,407.531 342.945,407.531L326.24,407.531C321.649,407.531 317.927,411.253 317.927,415.843C317.927,420.435 321.649,424.156 326.24,424.156Z" style="fill:rgb(27,212,215);fill-rule:nonzero;"/>
            </g>
        </g>
    </g>
</svg>
