<?xml version="1.0" encoding="UTF-8" standalone="no"?>
<!DOCTYPE svg PUBLIC "-//W3C//DTD SVG 1.1//EN" "http://www.w3.org/Graphics/SVG/1.1/DTD/svg11.dtd">
<svg width="100%" height="100%" viewBox="0 0 1024 636" version="1.1" xmlns="http://www.w3.org/2000/svg" xmlns:xlink="http://www.w3.org/1999/xlink" xml:space="preserve" xmlns:serif="http://www.serif.com/" style="fill-rule:evenodd;clip-rule:evenodd;stroke-linecap:round;stroke-linejoin:round;stroke-miterlimit:1.5;">
    <g transform="matrix(2.406793,0,0,2.524841,-1585.756354,-940.515327)">
        <rect x="658.867" y="372.505" width="425.591" height="251.897" style="stroke:white;stroke-width:8.11px;"/>
    </g>
    <g transform="matrix(1,0,0,1,-444.675291,-273.259794)">
        <g>
            <g transform="matrix(64,0,0,64,499.675291,367.583794)">
                <path d="M0.059,-0L0.059,-0.72L0.611,-0.72C0.636,-0.72 0.659,-0.714 0.68,-0.701C0.701,-0.689 0.718,-0.672 0.731,-0.651C0.744,-0.629 0.75,-0.606 0.75,-0.581L0.75,-0.44C0.75,-0.431 0.749,-0.423 0.748,-0.415C0.747,-0.407 0.744,-0.399 0.741,-0.392C0.753,-0.376 0.762,-0.36 0.769,-0.344C0.776,-0.327 0.779,-0.311 0.779,-0.294L0.779,-0.139C0.779,-0.114 0.773,-0.091 0.76,-0.069C0.747,-0.048 0.73,-0.031 0.709,-0.019C0.688,-0.006 0.664,-0 0.639,-0L0.059,-0ZM0.203,-0.133L0.634,-0.133C0.637,-0.133 0.64,-0.134 0.642,-0.136C0.644,-0.139 0.646,-0.142 0.646,-0.145L0.646,-0.288C0.646,-0.291 0.644,-0.294 0.642,-0.297C0.64,-0.299 0.637,-0.3 0.634,-0.3L0.203,-0.3C0.2,-0.3 0.197,-0.299 0.195,-0.297C0.192,-0.294 0.191,-0.291 0.191,-0.288L0.191,-0.145C0.191,-0.142 0.192,-0.139 0.195,-0.136C0.197,-0.134 0.2,-0.133 0.203,-0.133ZM0.203,-0.433L0.605,-0.433C0.608,-0.433 0.611,-0.434 0.613,-0.436C0.615,-0.439 0.616,-0.442 0.616,-0.445L0.616,-0.575C0.616,-0.579 0.615,-0.581 0.613,-0.584C0.611,-0.586 0.608,-0.587 0.605,-0.587L0.203,-0.587C0.2,-0.587 0.197,-0.586 0.195,-0.584C0.192,-0.581 0.191,-0.579 0.191,-0.575L0.191,-0.445C0.191,-0.442 0.192,-0.439 0.195,-0.436C0.197,-0.434 0.2,-0.433 0.203,-0.433Z" style="fill:white;fill-rule:nonzero;"/>
            </g>
            <g transform="matrix(64,0,0,64,552.923291,367.583794)">
                <path d="M0.191,-0C0.165,-0 0.142,-0.006 0.122,-0.019C0.101,-0.032 0.084,-0.048 0.072,-0.069C0.059,-0.09 0.053,-0.113 0.053,-0.138L0.053,-0.58L0.184,-0.58L0.184,-0.143C0.184,-0.14 0.185,-0.137 0.188,-0.135C0.19,-0.132 0.193,-0.131 0.196,-0.131L0.499,-0.131C0.502,-0.131 0.505,-0.132 0.507,-0.135C0.51,-0.137 0.511,-0.14 0.511,-0.143L0.511,-0.58L0.642,-0.58L0.642,-0.138C0.642,-0.113 0.636,-0.09 0.623,-0.069C0.611,-0.048 0.594,-0.032 0.574,-0.019C0.553,-0.006 0.53,-0 0.504,-0L0.191,-0Z" style="fill:white;fill-rule:nonzero;"/>
            </g>
            <g transform="matrix(64,0,0,64,597.403291,367.583794)">
                <path d="M0.052,-0L0.052,-0.58L0.183,-0.58L0.183,-0L0.052,-0ZM0.052,-0.638L0.052,-0.77L0.183,-0.77L0.183,-0.638L0.052,-0.638Z" style="fill:white;fill-rule:nonzero;"/>
            </g>
            <g transform="matrix(64,0,0,64,612.985588,367.583794)">
                <path d="M0.19,-0C0.165,-0 0.142,-0.006 0.121,-0.019C0.1,-0.032 0.084,-0.048 0.071,-0.069C0.058,-0.09 0.052,-0.113 0.052,-0.138L0.052,-0.771L0.184,-0.771L0.184,-0.143C0.184,-0.14 0.185,-0.137 0.187,-0.135C0.19,-0.132 0.192,-0.131 0.196,-0.131L0.307,-0.131L0.307,-0L0.19,-0Z" style="fill:white;fill-rule:nonzero;"/>
            </g>
            <g transform="matrix(64,0,0,64,635.265416,367.583794)">
                <path d="M0.161,-0C0.135,-0 0.112,-0.006 0.091,-0.019C0.071,-0.031 0.054,-0.048 0.042,-0.069C0.029,-0.09 0.023,-0.113 0.023,-0.138L0.023,-0.442C0.023,-0.467 0.029,-0.49 0.042,-0.511C0.054,-0.532 0.071,-0.548 0.091,-0.561C0.112,-0.574 0.135,-0.58 0.161,-0.58L0.482,-0.58L0.482,-0.77L0.613,-0.77L0.613,-0L0.161,-0ZM0.167,-0.131L0.47,-0.131C0.473,-0.131 0.476,-0.132 0.478,-0.135C0.48,-0.137 0.482,-0.14 0.482,-0.143L0.482,-0.437C0.482,-0.44 0.48,-0.443 0.478,-0.445C0.476,-0.448 0.473,-0.449 0.47,-0.449L0.167,-0.449C0.164,-0.449 0.161,-0.448 0.159,-0.445C0.156,-0.443 0.155,-0.44 0.155,-0.437L0.155,-0.143C0.155,-0.14 0.156,-0.137 0.159,-0.135C0.161,-0.132 0.164,-0.131 0.167,-0.131Z" style="fill:white;fill-rule:nonzero;"/>
            </g>
            <g transform="matrix(64,0,0,64,697.566885,367.583794)">
                <path d="M0.19,-0C0.164,-0 0.141,-0.006 0.121,-0.019C0.1,-0.032 0.083,-0.048 0.071,-0.069C0.058,-0.09 0.052,-0.113 0.052,-0.138L0.052,-0.356L0.51,-0.356L0.51,-0.437C0.51,-0.44 0.508,-0.443 0.506,-0.445C0.504,-0.448 0.501,-0.449 0.498,-0.449L0.052,-0.449L0.052,-0.58L0.503,-0.58C0.529,-0.58 0.552,-0.574 0.573,-0.561C0.593,-0.549 0.61,-0.532 0.622,-0.511C0.635,-0.49 0.641,-0.467 0.641,-0.442L0.641,-0L0.19,-0ZM0.195,-0.131L0.51,-0.131L0.51,-0.238L0.183,-0.238L0.183,-0.143C0.183,-0.14 0.184,-0.137 0.187,-0.135C0.189,-0.132 0.192,-0.131 0.195,-0.131Z" style="fill:white;fill-rule:nonzero;"/>
            </g>
            <g transform="matrix(64,0,0,64,761.596353,367.583794)">
                <path d="M0.195,-0C0.17,-0 0.147,-0.006 0.125,-0.019C0.104,-0.031 0.087,-0.048 0.075,-0.069C0.062,-0.091 0.056,-0.114 0.056,-0.139L0.056,-0.581C0.056,-0.606 0.062,-0.629 0.075,-0.651C0.087,-0.672 0.104,-0.689 0.125,-0.701C0.147,-0.714 0.17,-0.72 0.195,-0.72L0.636,-0.72C0.661,-0.72 0.685,-0.714 0.706,-0.701C0.727,-0.689 0.744,-0.672 0.757,-0.651C0.77,-0.629 0.776,-0.606 0.776,-0.581L0.776,-0.525L0.643,-0.525L0.643,-0.575C0.643,-0.579 0.641,-0.581 0.639,-0.584C0.637,-0.586 0.634,-0.587 0.631,-0.587L0.2,-0.587C0.197,-0.587 0.194,-0.586 0.192,-0.584C0.189,-0.581 0.188,-0.579 0.188,-0.575L0.188,-0.145C0.188,-0.142 0.189,-0.139 0.192,-0.136C0.194,-0.134 0.197,-0.133 0.2,-0.133L0.631,-0.133C0.634,-0.133 0.637,-0.134 0.639,-0.136C0.641,-0.139 0.643,-0.142 0.643,-0.145L0.643,-0.275L0.48,-0.275L0.48,-0.408L0.776,-0.408L0.776,-0.139C0.776,-0.114 0.77,-0.091 0.757,-0.069C0.744,-0.048 0.727,-0.031 0.706,-0.019C0.685,-0.006 0.661,-0 0.636,-0L0.195,-0Z" style="fill:white;fill-rule:nonzero;"/>
            </g>
            <g transform="matrix(64,0,0,64,814.716353,367.583794)">
                <path d="M0.19,-0C0.164,-0 0.141,-0.006 0.121,-0.019C0.1,-0.032 0.083,-0.048 0.071,-0.069C0.058,-0.09 0.052,-0.113 0.052,-0.138L0.052,-0.356L0.51,-0.356L0.51,-0.437C0.51,-0.44 0.508,-0.443 0.506,-0.445C0.504,-0.448 0.501,-0.449 0.498,-0.449L0.052,-0.449L0.052,-0.58L0.503,-0.58C0.529,-0.58 0.552,-0.574 0.573,-0.561C0.593,-0.549 0.61,-0.532 0.622,-0.511C0.635,-0.49 0.641,-0.467 0.641,-0.442L0.641,-0L0.19,-0ZM0.195,-0.131L0.51,-0.131L0.51,-0.238L0.183,-0.238L0.183,-0.143C0.183,-0.14 0.184,-0.137 0.187,-0.135C0.189,-0.132 0.192,-0.131 0.195,-0.131Z" style="fill:white;fill-rule:nonzero;"/>
            </g>
            <g transform="matrix(64,0,0,64,857.468353,367.583794)">
                <path d="M0.054,-0L0.054,-0.58L0.773,-0.58C0.799,-0.58 0.822,-0.574 0.843,-0.561C0.863,-0.548 0.88,-0.532 0.892,-0.511C0.905,-0.49 0.911,-0.467 0.911,-0.442L0.911,-0L0.781,-0L0.781,-0.437C0.781,-0.44 0.779,-0.443 0.777,-0.445C0.775,-0.448 0.772,-0.449 0.768,-0.449L0.561,-0.449C0.558,-0.449 0.555,-0.448 0.553,-0.445C0.55,-0.443 0.549,-0.44 0.549,-0.437L0.549,-0L0.417,-0L0.417,-0.437C0.417,-0.44 0.416,-0.443 0.413,-0.445C0.411,-0.448 0.408,-0.449 0.405,-0.449L0.197,-0.449C0.194,-0.449 0.191,-0.448 0.189,-0.445C0.186,-0.443 0.185,-0.44 0.185,-0.437L0.185,-0L0.054,-0Z" style="fill:white;fill-rule:nonzero;"/>
            </g>
            <g transform="matrix(64,0,0,64,920.060353,367.583794)">
                <path d="M0.052,-0L0.052,-0.58L0.183,-0.58L0.183,-0L0.052,-0ZM0.052,-0.638L0.052,-0.77L0.183,-0.77L0.183,-0.638L0.052,-0.638Z" style="fill:white;fill-rule:nonzero;"/>
            </g>
            <g transform="matrix(64,0,0,64,935.77065,367.583794)">
                <path d="M0.054,-0L0.054,-0.58L0.505,-0.58C0.53,-0.58 0.554,-0.574 0.574,-0.561C0.595,-0.548 0.612,-0.532 0.624,-0.511C0.637,-0.49 0.643,-0.467 0.643,-0.442L0.643,-0L0.512,-0L0.512,-0.437C0.512,-0.44 0.511,-0.443 0.508,-0.445C0.506,-0.448 0.503,-0.449 0.5,-0.449L0.197,-0.449C0.194,-0.449 0.191,-0.448 0.189,-0.445C0.186,-0.443 0.185,-0.44 0.185,-0.437L0.185,-0L0.054,-0Z" style="fill:white;fill-rule:nonzero;"/>
            </g>
            <g transform="matrix(64,0,0,64,979.86665,367.583794)">
                <path d="M0.138,0.229L0.138,0.097L0.487,0.097C0.491,0.097 0.493,0.096 0.496,0.093C0.498,0.091 0.499,0.088 0.499,0.085L0.499,-0L0.179,-0C0.154,-0 0.131,-0.006 0.11,-0.019C0.089,-0.031 0.072,-0.048 0.06,-0.069C0.047,-0.09 0.041,-0.113 0.041,-0.138L0.041,-0.442C0.041,-0.467 0.047,-0.49 0.06,-0.511C0.073,-0.532 0.089,-0.548 0.11,-0.561C0.131,-0.574 0.154,-0.58 0.179,-0.58L0.493,-0.58C0.518,-0.58 0.542,-0.574 0.562,-0.561C0.583,-0.548 0.6,-0.532 0.612,-0.511C0.624,-0.49 0.63,-0.467 0.63,-0.442L0.63,0.091C0.63,0.117 0.624,0.14 0.612,0.161C0.6,0.181 0.583,0.198 0.562,0.21C0.541,0.223 0.518,0.229 0.493,0.229L0.138,0.229ZM0.184,-0.131L0.487,-0.131C0.491,-0.131 0.493,-0.132 0.496,-0.135C0.498,-0.137 0.499,-0.14 0.499,-0.143L0.499,-0.437C0.499,-0.44 0.498,-0.443 0.496,-0.445C0.493,-0.448 0.491,-0.449 0.487,-0.449L0.184,-0.449C0.181,-0.449 0.178,-0.448 0.176,-0.445C0.173,-0.443 0.172,-0.44 0.172,-0.437L0.172,-0.143C0.172,-0.14 0.173,-0.137 0.176,-0.135C0.178,-0.132 0.181,-0.131 0.184,-0.131Z" style="fill:white;fill-rule:nonzero;"/>
            </g>
            <g transform="matrix(64,0,0,64,1043.192119,367.583794)">
                <path d="M0.056,-0L0.056,-0.719L0.636,-0.719C0.661,-0.719 0.685,-0.713 0.706,-0.7C0.727,-0.687 0.744,-0.671 0.757,-0.649C0.77,-0.628 0.776,-0.605 0.776,-0.58L0.776,-0.386C0.776,-0.361 0.77,-0.337 0.757,-0.316C0.744,-0.295 0.727,-0.278 0.706,-0.266C0.685,-0.253 0.661,-0.247 0.636,-0.247L0.188,-0.246L0.188,-0L0.056,-0ZM0.2,-0.38L0.631,-0.38C0.634,-0.38 0.637,-0.381 0.639,-0.383C0.641,-0.385 0.643,-0.388 0.643,-0.391L0.643,-0.575C0.643,-0.578 0.641,-0.581 0.639,-0.583C0.637,-0.586 0.634,-0.587 0.631,-0.587L0.2,-0.587C0.197,-0.587 0.194,-0.586 0.192,-0.583C0.189,-0.581 0.188,-0.578 0.188,-0.575L0.188,-0.391C0.188,-0.388 0.189,-0.385 0.192,-0.383C0.194,-0.381 0.197,-0.38 0.2,-0.38Z" style="fill:white;fill-rule:nonzero;"/>
            </g>
            <g transform="matrix(64,0,0,64,1093.816119,367.583794)">
                <path d="M0.195,-0C0.17,-0 0.146,-0.006 0.125,-0.019C0.104,-0.031 0.087,-0.048 0.075,-0.069C0.062,-0.09 0.056,-0.114 0.056,-0.139L0.056,-0.581C0.056,-0.606 0.062,-0.63 0.075,-0.651C0.087,-0.672 0.104,-0.689 0.125,-0.701C0.146,-0.714 0.17,-0.72 0.195,-0.72L0.774,-0.72L0.774,-0.587L0.223,-0.587C0.212,-0.587 0.204,-0.584 0.197,-0.578C0.191,-0.572 0.188,-0.564 0.188,-0.552L0.188,-0.168C0.188,-0.157 0.191,-0.148 0.197,-0.142C0.204,-0.136 0.212,-0.133 0.223,-0.133L0.774,-0.133L0.774,-0L0.195,-0Z" style="fill:white;fill-rule:nonzero;"/>
            </g>
        </g>
        <g>
            <g transform="matrix(64,0,0,64,499.675291,443.583794)">
                <path d="M0.195,-0C0.17,-0 0.147,-0.006 0.125,-0.019C0.104,-0.031 0.087,-0.048 0.075,-0.069C0.062,-0.091 0.056,-0.114 0.056,-0.139L0.056,-0.581C0.056,-0.606 0.062,-0.629 0.075,-0.651C0.087,-0.672 0.104,-0.689 0.125,-0.701C0.147,-0.714 0.17,-0.72 0.195,-0.72L0.636,-0.72C0.661,-0.72 0.685,-0.714 0.706,-0.701C0.727,-0.689 0.744,-0.672 0.757,-0.651C0.77,-0.629 0.776,-0.606 0.776,-0.581L0.776,-0.525L0.643,-0.525L0.643,-0.575C0.643,-0.579 0.641,-0.581 0.639,-0.584C0.637,-0.586 0.634,-0.587 0.631,-0.587L0.2,-0.587C0.197,-0.587 0.194,-0.586 0.192,-0.584C0.189,-0.581 0.188,-0.579 0.188,-0.575L0.188,-0.145C0.188,-0.142 0.189,-0.139 0.192,-0.136C0.194,-0.134 0.197,-0.133 0.2,-0.133L0.631,-0.133C0.634,-0.133 0.637,-0.134 0.639,-0.136C0.641,-0.139 0.643,-0.142 0.643,-0.145L0.643,-0.275L0.48,-0.275L0.48,-0.408L0.776,-0.408L0.776,-0.139C0.776,-0.114 0.77,-0.091 0.757,-0.069C0.744,-0.048 0.727,-0.031 0.706,-0.019C0.685,-0.006 0.661,-0 0.636,-0L0.195,-0Z" style="fill:white;fill-rule:nonzero;"/>
            </g>
            <g transform="matrix(64,0,0,64,552.795291,443.583794)">
                <path d="M0.189,-0C0.164,-0 0.141,-0.006 0.12,-0.019C0.099,-0.032 0.083,-0.048 0.07,-0.069C0.057,-0.09 0.051,-0.113 0.051,-0.138L0.051,-0.442C0.051,-0.467 0.057,-0.49 0.07,-0.511C0.083,-0.532 0.099,-0.548 0.12,-0.561C0.141,-0.574 0.164,-0.58 0.189,-0.58L0.502,-0.58C0.528,-0.58 0.551,-0.574 0.572,-0.561C0.592,-0.549 0.609,-0.532 0.621,-0.511C0.634,-0.49 0.64,-0.467 0.64,-0.442L0.64,-0.224L0.182,-0.224L0.182,-0.143C0.182,-0.14 0.183,-0.137 0.186,-0.135C0.188,-0.132 0.191,-0.131 0.194,-0.131L0.64,-0.131L0.64,-0L0.189,-0ZM0.182,-0.342L0.509,-0.342L0.509,-0.437C0.509,-0.44 0.507,-0.443 0.505,-0.445C0.503,-0.448 0.5,-0.449 0.497,-0.449L0.194,-0.449C0.191,-0.449 0.188,-0.448 0.186,-0.445C0.183,-0.443 0.182,-0.44 0.182,-0.437L0.182,-0.342Z" style="fill:white;fill-rule:nonzero;"/>
            </g>
            <g transform="matrix(64,0,0,64,597.083291,443.583794)">
                <path d="M0.191,-0C0.166,-0 0.142,-0.006 0.122,-0.019C0.101,-0.032 0.084,-0.048 0.072,-0.069C0.059,-0.09 0.053,-0.113 0.053,-0.138L0.053,-0.758L0.184,-0.758L0.184,-0.58L0.41,-0.58L0.41,-0.449L0.184,-0.449L0.184,-0.143C0.184,-0.14 0.185,-0.137 0.188,-0.135C0.19,-0.132 0.193,-0.131 0.196,-0.131L0.41,-0.131L0.41,-0L0.191,-0Z" style="fill:white;fill-rule:nonzero;"/>
            </g>
            <g transform="matrix(64,0,0,64,644.745244,443.583794)">
                <path d="M0.191,-0C0.166,-0 0.142,-0.006 0.122,-0.019C0.101,-0.032 0.084,-0.048 0.072,-0.069C0.059,-0.09 0.053,-0.113 0.053,-0.138L0.053,-0.758L0.184,-0.758L0.184,-0.58L0.41,-0.58L0.41,-0.449L0.184,-0.449L0.184,-0.143C0.184,-0.14 0.185,-0.137 0.188,-0.135C0.19,-0.132 0.193,-0.131 0.196,-0.131L0.41,-0.131L0.41,-0L0.191,-0Z" style="fill:white;fill-rule:nonzero;"/>
            </g>
            <g transform="matrix(64,0,0,64,673.753728,443.583794)">
                <path d="M0.054,-0L0.054,-0.77L0.185,-0.77L0.185,-0.58L0.505,-0.58C0.53,-0.58 0.553,-0.574 0.574,-0.561C0.595,-0.548 0.611,-0.532 0.624,-0.511C0.637,-0.49 0.643,-0.467 0.643,-0.442L0.643,-0L0.512,-0L0.512,-0.437C0.512,-0.44 0.511,-0.443 0.508,-0.445C0.506,-0.448 0.503,-0.449 0.5,-0.449L0.197,-0.449C0.194,-0.449 0.191,-0.448 0.189,-0.445C0.186,-0.443 0.185,-0.44 0.185,-0.437L0.185,-0L0.054,-0Z" style="fill:white;fill-rule:nonzero;"/>
            </g>
            <g transform="matrix(64,0,0,64,716.441728,443.583794)">
                <path d="M0.189,-0C0.164,-0 0.141,-0.006 0.12,-0.019C0.099,-0.032 0.083,-0.048 0.07,-0.069C0.057,-0.09 0.051,-0.113 0.051,-0.138L0.051,-0.442C0.051,-0.467 0.057,-0.49 0.07,-0.511C0.083,-0.532 0.099,-0.548 0.12,-0.561C0.141,-0.574 0.164,-0.58 0.189,-0.58L0.502,-0.58C0.528,-0.58 0.551,-0.574 0.572,-0.561C0.592,-0.549 0.609,-0.532 0.621,-0.511C0.634,-0.49 0.64,-0.467 0.64,-0.442L0.64,-0.224L0.182,-0.224L0.182,-0.143C0.182,-0.14 0.183,-0.137 0.186,-0.135C0.188,-0.132 0.191,-0.131 0.194,-0.131L0.64,-0.131L0.64,-0L0.189,-0ZM0.182,-0.342L0.509,-0.342L0.509,-0.437C0.509,-0.44 0.507,-0.443 0.505,-0.445C0.503,-0.448 0.5,-0.449 0.497,-0.449L0.194,-0.449C0.191,-0.449 0.188,-0.448 0.186,-0.445C0.183,-0.443 0.182,-0.44 0.182,-0.437L0.182,-0.342Z" style="fill:white;fill-rule:nonzero;"/>
            </g>
            <g transform="matrix(64,0,0,64,780.343197,443.583794)">
                <path d="M0.058,-0L0.058,-0.72L0.721,-0.72L0.721,-0.587L0.191,-0.587L0.191,-0.426L0.617,-0.426L0.617,-0.293L0.191,-0.293L0.191,-0.133L0.721,-0.133L0.721,-0L0.058,-0Z" style="fill:white;fill-rule:nonzero;"/>
            </g>
            <g transform="matrix(64,0,0,64,829.367197,443.583794)">
                <path d="M0.161,-0C0.135,-0 0.112,-0.006 0.091,-0.019C0.071,-0.031 0.054,-0.048 0.042,-0.069C0.029,-0.09 0.023,-0.113 0.023,-0.138L0.023,-0.442C0.023,-0.467 0.029,-0.49 0.042,-0.511C0.054,-0.532 0.071,-0.548 0.091,-0.561C0.112,-0.574 0.135,-0.58 0.161,-0.58L0.482,-0.58L0.482,-0.77L0.613,-0.77L0.613,-0L0.161,-0ZM0.167,-0.131L0.47,-0.131C0.473,-0.131 0.476,-0.132 0.478,-0.135C0.48,-0.137 0.482,-0.14 0.482,-0.143L0.482,-0.437C0.482,-0.44 0.48,-0.443 0.478,-0.445C0.476,-0.448 0.473,-0.449 0.47,-0.449L0.167,-0.449C0.164,-0.449 0.161,-0.448 0.159,-0.445C0.156,-0.443 0.155,-0.44 0.155,-0.437L0.155,-0.143C0.155,-0.14 0.156,-0.137 0.159,-0.135C0.161,-0.132 0.164,-0.131 0.167,-0.131Z" style="fill:white;fill-rule:nonzero;"/>
            </g>
            <g transform="matrix(64,0,0,64,872.055197,443.583794)">
                <path d="M0.138,0.229L0.138,0.097L0.487,0.097C0.491,0.097 0.493,0.096 0.496,0.093C0.498,0.091 0.499,0.088 0.499,0.085L0.499,-0L0.179,-0C0.154,-0 0.131,-0.006 0.11,-0.019C0.089,-0.031 0.072,-0.048 0.06,-0.069C0.047,-0.09 0.041,-0.113 0.041,-0.138L0.041,-0.442C0.041,-0.467 0.047,-0.49 0.06,-0.511C0.073,-0.532 0.089,-0.548 0.11,-0.561C0.131,-0.574 0.154,-0.58 0.179,-0.58L0.493,-0.58C0.518,-0.58 0.542,-0.574 0.562,-0.561C0.583,-0.548 0.6,-0.532 0.612,-0.511C0.624,-0.49 0.63,-0.467 0.63,-0.442L0.63,0.091C0.63,0.117 0.624,0.14 0.612,0.161C0.6,0.181 0.583,0.198 0.562,0.21C0.541,0.223 0.518,0.229 0.493,0.229L0.138,0.229ZM0.184,-0.131L0.487,-0.131C0.491,-0.131 0.493,-0.132 0.496,-0.135C0.498,-0.137 0.499,-0.14 0.499,-0.143L0.499,-0.437C0.499,-0.44 0.498,-0.443 0.496,-0.445C0.493,-0.448 0.491,-0.449 0.487,-0.449L0.184,-0.449C0.181,-0.449 0.178,-0.448 0.176,-0.445C0.173,-0.443 0.172,-0.44 0.172,-0.437L0.172,-0.143C0.172,-0.14 0.173,-0.137 0.176,-0.135C0.178,-0.132 0.181,-0.131 0.184,-0.131Z" style="fill:white;fill-rule:nonzero;"/>
            </g>
            <g transform="matrix(64,0,0,64,914.423197,443.583794)">
                <path d="M0.189,-0C0.164,-0 0.141,-0.006 0.12,-0.019C0.099,-0.032 0.083,-0.048 0.07,-0.069C0.057,-0.09 0.051,-0.113 0.051,-0.138L0.051,-0.442C0.051,-0.467 0.057,-0.49 0.07,-0.511C0.083,-0.532 0.099,-0.548 0.12,-0.561C0.141,-0.574 0.164,-0.58 0.189,-0.58L0.502,-0.58C0.528,-0.58 0.551,-0.574 0.572,-0.561C0.592,-0.549 0.609,-0.532 0.621,-0.511C0.634,-0.49 0.64,-0.467 0.64,-0.442L0.64,-0.224L0.182,-0.224L0.182,-0.143C0.182,-0.14 0.183,-0.137 0.186,-0.135C0.188,-0.132 0.191,-0.131 0.194,-0.131L0.64,-0.131L0.64,-0L0.189,-0ZM0.182,-0.342L0.509,-0.342L0.509,-0.437C0.509,-0.44 0.507,-0.443 0.505,-0.445C0.503,-0.448 0.5,-0.449 0.497,-0.449L0.194,-0.449C0.191,-0.449 0.188,-0.448 0.186,-0.445C0.183,-0.443 0.182,-0.44 0.182,-0.437L0.182,-0.342Z" style="fill:white;fill-rule:nonzero;"/>
            </g>
        </g>
    </g>
    <g transform="matrix(1.714603,0,0,1.732593,-2154.723929,-4511.428432)">
        <path d="M1256.69,2658.36L1311.18,2603.86L1256.69,2603.86L1256.69,2658.36Z" style="fill:white;fill-rule:nonzero;"/>
    </g>
    <g transform="matrix(1.714603,0,0,1.732593,-2057.088606,-4511.428432)">
        <path d="M1797.15,2916.45L1742.66,2970.94L1797.15,2970.94L1797.15,2916.45Z" style="fill:white;fill-rule:nonzero;"/>
    </g>
    <g>
        <g id="RAM" transform="matrix(0.765338,0,0,0.765338,278.450713,-759.043293)">
            <path d="M704.733,1693.775L730.859,1693.775L730.859,1719.844L704.733,1719.844L704.733,1693.775ZM743.656,1693.775L769.782,1693.775L769.782,1719.844L743.656,1719.844L743.656,1693.775ZM795.375,1693.775L821.501,1693.775L821.501,1719.844L795.375,1719.844L795.375,1693.775ZM834.298,1693.775L860.423,1693.775L860.423,1719.844L834.298,1719.844L834.298,1693.775ZM679.029,1695.543C683.897,1695.543 687.842,1699.488 687.842,1704.355C687.842,1709.223 683.897,1713.168 679.029,1713.168L679.029,1746.166C679.029,1748.6 681.003,1750.572 683.437,1750.572C685.87,1750.572 687.842,1748.6 687.842,1746.166L687.842,1737.354L699.514,1737.354L699.514,1746.166C699.514,1748.789 701.641,1750.916 704.264,1750.916C706.888,1750.916 709.014,1748.789 709.014,1746.166L709.014,1737.354L719.094,1737.354L719.094,1746.166C719.094,1748.789 721.221,1750.916 723.844,1750.916C726.467,1750.916 728.594,1748.789 728.594,1746.166L728.594,1737.354L738.672,1737.354L738.672,1746.166C738.672,1748.789 740.799,1750.916 743.422,1750.916C746.045,1750.916 748.172,1748.789 748.172,1746.166L748.172,1737.354L758.25,1737.354L758.25,1746.166C758.25,1748.789 760.376,1750.916 763,1750.916C765.623,1750.916 767.75,1748.789 767.75,1746.166L767.75,1737.354L777.829,1737.354L777.829,1746.166C777.829,1748.789 779.954,1750.916 782.579,1750.916C785.201,1750.916 787.329,1748.789 787.329,1746.166L787.329,1737.354L797.407,1737.354L797.407,1746.166C797.407,1748.789 799.534,1750.916 802.157,1750.916C804.779,1750.916 806.907,1748.789 806.907,1746.166L806.907,1737.354L816.985,1737.354L816.985,1746.166C816.985,1748.789 819.113,1750.916 821.735,1750.916C824.359,1750.916 826.485,1748.789 826.485,1746.166L826.485,1737.354L836.563,1737.354L836.563,1746.166C836.563,1748.789 838.69,1750.916 841.313,1750.916C843.936,1750.916 846.063,1748.789 846.063,1746.166L846.063,1737.354L856.141,1737.354L856.141,1746.166C856.141,1748.789 858.269,1750.916 860.891,1750.916C863.514,1750.916 865.641,1748.789 865.641,1746.166L865.641,1737.354L877.315,1737.354L877.315,1746.166C877.315,1748.6 879.287,1750.572 881.721,1750.572C884.154,1750.572 886.126,1748.6 886.126,1746.166L886.126,1713.168C881.259,1713.168 877.315,1709.223 877.315,1704.355C877.315,1699.488 881.259,1695.543 886.126,1695.543L886.126,1671.357L679.029,1671.357L679.029,1695.543ZM843.798,1600.862L832.958,1577.151L856.717,1566.288L867.558,1589.997L843.798,1600.862ZM808.401,1617.047L797.56,1593.337L821.32,1582.474L832.16,1606.183L808.401,1617.047ZM761.365,1638.553L750.524,1614.844L774.284,1603.979L785.125,1627.689L761.365,1638.553ZM725.967,1654.738L715.126,1631.028L738.886,1620.164L749.727,1643.875L725.967,1654.738ZM901.88,1603.247L898.214,1595.233L888.157,1573.237C883.732,1575.262 878.503,1573.314 876.479,1568.888C874.456,1564.461 876.402,1559.232 880.829,1557.208L870.772,1535.212L682.428,1621.331L692.485,1643.325C696.912,1641.301 702.141,1643.25 704.165,1647.676C706.188,1652.103 704.24,1657.331 699.815,1659.354L700.959,1661.857L755.458,1661.857L754.948,1660.739L764.112,1656.549L766.54,1661.857L776.771,1661.857C776.704,1661.437 776.602,1661.018 776.417,1660.612L772.751,1652.599L781.918,1648.407L785.583,1656.424C786.381,1658.168 788.104,1659.199 789.906,1659.199C790.566,1659.199 791.238,1659.061 791.878,1658.769C794.263,1657.676 795.313,1654.857 794.222,1652.472L790.558,1644.457L799.724,1640.267L803.389,1648.282C804.186,1650.026 805.91,1651.06 807.712,1651.06C808.372,1651.06 809.043,1650.92 809.683,1650.627C812.069,1649.535 813.12,1646.717 812.027,1644.331L808.363,1636.315L817.529,1632.125L821.194,1640.142C821.992,1641.887 823.714,1642.918 825.518,1642.918C826.177,1642.918 826.849,1642.778 827.488,1642.487C829.875,1641.396 830.925,1638.577 829.834,1636.189L826.169,1628.176L835.334,1623.983L839,1631.999C839.798,1633.743 841.521,1634.772 843.323,1634.772C843.983,1634.772 844.654,1634.637 845.295,1634.341C847.681,1633.251 848.73,1630.433 847.639,1628.047L843.975,1620.034L853.139,1615.844L856.803,1623.857C857.602,1625.603 859.324,1626.633 861.126,1626.633C861.787,1626.633 862.458,1626.495 863.099,1626.202C865.483,1625.111 866.535,1622.293 865.444,1619.905L861.779,1611.892L870.945,1607.702L874.61,1615.717C875.407,1617.461 877.131,1618.491 878.933,1618.491C879.592,1618.491 880.264,1618.354 880.904,1618.062C883.29,1616.97 884.339,1614.151 883.25,1611.765L879.584,1603.751L890.201,1598.896L893.865,1606.911C894.876,1609.125 897.492,1610.099 899.704,1609.086C901.918,1608.074 902.891,1605.461 901.88,1603.247Z" style="fill:rgb(254,1,85);fill-rule:nonzero;"/>
        </g>
        <g transform="matrix(0.766741,0,0,0.766741,437.95465,-604.872466)">
            <path d="M278.93,1141.528C283.521,1141.528 287.243,1137.806 287.243,1133.215C287.243,1128.624 283.521,1124.903 278.93,1124.903C274.338,1124.903 270.617,1128.624 270.617,1133.215C270.617,1137.806 274.338,1141.528 278.93,1141.528ZM408.319,1314.705L354.97,1314.743L354.97,1289.543C354.97,1287.207 353.988,1284.98 352.263,1283.405C350.538,1281.831 348.241,1281.053 345.905,1281.264C338.683,1281.919 331.745,1281.742 325.161,1280.763L332.11,1271.603C333.259,1272.203 334.545,1272.574 335.93,1272.574C369.452,1272.574 396.724,1245.303 396.724,1211.782C396.724,1178.258 369.452,1150.985 335.93,1150.985C302.408,1150.985 275.136,1178.258 275.136,1211.782C275.136,1231.568 284.817,1250.181 301.032,1261.566C304.791,1264.208 309.974,1263.299 312.611,1259.542C315.249,1255.785 314.342,1250.598 310.585,1247.962C298.798,1239.683 291.761,1226.16 291.761,1211.782C291.761,1187.426 311.575,1167.61 335.93,1167.61C360.284,1167.61 380.099,1187.426 380.099,1211.782C380.099,1233.152 364.84,1251.023 344.646,1255.082L349.616,1248.531C350.318,1247.606 350.224,1246.305 349.407,1245.484C348.586,1244.665 347.284,1244.576 346.36,1245.275L297.786,1282.129C297.671,1282.215 297.604,1282.346 297.511,1282.451C297.373,1282.575 297.222,1282.664 297.089,1282.795C292.945,1286.939 292.945,1293.659 297.089,1297.802C301.232,1301.946 307.952,1301.946 312.096,1297.802C312.229,1297.671 312.318,1297.515 312.442,1297.381C312.549,1297.285 312.673,1297.22 312.762,1297.105L313.997,1295.477C321.735,1297.411 329.912,1298.35 338.345,1298.279L338.345,1314.756L263.541,1314.809L263.517,1269.429L271.462,1269.429C273.27,1271.619 275.948,1274.541 279.567,1277.695C281.143,1279.07 283.089,1279.743 285.027,1279.743C287.345,1279.743 289.652,1278.778 291.296,1276.892C294.312,1273.434 293.954,1268.183 290.493,1265.166C285.179,1260.53 282.607,1256.647 282.607,1256.647C281.079,1254.254 278.436,1252.804 275.597,1252.804L263.508,1252.804L263.437,1117.58L408.319,1117.478L408.319,1314.705ZM408.423,1100.955L263.437,1100.955C254.327,1100.955 246.916,1108.368 246.916,1117.478L246.916,1314.809C246.916,1323.92 254.327,1331.33 263.437,1331.33L408.423,1331.33C417.533,1331.33 424.944,1323.92 424.944,1314.809L424.944,1117.478C424.944,1108.368 417.533,1100.955 408.423,1100.955ZM392.93,1141.528C397.521,1141.528 401.243,1137.806 401.243,1133.215C401.243,1128.624 397.521,1124.903 392.93,1124.903C388.338,1124.903 384.618,1128.624 384.618,1133.215C384.618,1137.806 388.338,1141.528 392.93,1141.528ZM392.93,1290.757C388.338,1290.757 384.618,1294.478 384.618,1299.07C384.618,1303.661 388.338,1307.382 392.93,1307.382C397.521,1307.382 401.243,1303.661 401.243,1299.07C401.243,1294.478 397.521,1290.757 392.93,1290.757ZM278.93,1290.757C274.338,1290.757 270.617,1294.478 270.617,1299.07C270.617,1303.661 274.338,1307.382 278.93,1307.382C283.521,1307.382 287.243,1303.661 287.243,1299.07C287.243,1294.478 283.521,1290.757 278.93,1290.757ZM335.93,1225.344C343.418,1225.344 349.491,1219.271 349.491,1211.781C349.491,1204.291 343.418,1198.218 335.93,1198.218C328.438,1198.218 322.365,1204.291 322.365,1211.781C322.365,1219.271 328.438,1225.344 335.93,1225.344Z" style="fill:rgb(27,212,215);fill-rule:nonzero;"/>
        </g>
        <g transform="matrix(0.74167,0,0,0.74167,634.314596,-894.375833)">
            <path d="M381.001,1728.51C376.41,1728.51 372.689,1732.232 372.689,1736.822L372.689,1750.573C372.689,1755.163 376.41,1758.886 381.001,1758.886C385.593,1758.886 389.314,1755.163 389.314,1750.573L389.314,1736.822C389.314,1732.232 385.593,1728.51 381.001,1728.51ZM442.946,1680.315L429.195,1680.315C424.604,1680.315 420.883,1684.038 420.883,1688.628C420.883,1693.219 424.604,1696.94 429.195,1696.94L442.946,1696.94C447.537,1696.94 451.259,1693.219 451.259,1688.628C451.259,1684.038 447.537,1680.315 442.946,1680.315ZM442.946,1620.41L429.195,1620.41C424.604,1620.41 420.883,1624.132 420.883,1628.722C420.883,1633.312 424.604,1637.035 429.195,1637.035L442.946,1637.035C447.537,1637.035 451.259,1633.312 451.259,1628.722C451.259,1624.132 447.537,1620.41 442.946,1620.41ZM351.047,1728.51C346.456,1728.51 342.735,1732.232 342.735,1736.822L342.735,1750.573C342.735,1755.163 346.456,1758.886 351.047,1758.886C355.638,1758.886 359.36,1755.163 359.36,1750.573L359.36,1736.822C359.36,1732.232 355.638,1728.51 351.047,1728.51ZM395.976,1688.577C395.976,1696.864 389.16,1703.604 380.78,1703.604L291.362,1703.604C282.982,1703.604 276.165,1696.864 276.165,1688.577L276.165,1598.824C276.165,1590.534 282.982,1583.792 291.362,1583.792L380.78,1583.792C389.16,1583.792 395.976,1590.534 395.976,1598.824L395.976,1688.577ZM380.78,1567.167L291.362,1567.167C273.816,1567.167 259.54,1581.368 259.54,1598.824L259.54,1688.577C259.54,1706.03 273.816,1720.229 291.362,1720.229L380.78,1720.229C398.326,1720.229 412.601,1706.03 412.601,1688.577L412.601,1598.824C412.601,1581.368 398.326,1567.167 380.78,1567.167ZM442.946,1650.361L429.195,1650.361C424.604,1650.361 420.883,1654.084 420.883,1658.674C420.883,1663.264 424.604,1666.986 429.195,1666.986L442.946,1666.986C447.537,1666.986 451.259,1663.264 451.259,1658.674C451.259,1654.084 447.537,1650.361 442.946,1650.361ZM321.094,1728.51C316.503,1728.51 312.781,1732.232 312.781,1736.822L312.781,1750.573C312.781,1755.163 316.503,1758.886 321.094,1758.886C325.685,1758.886 329.406,1755.163 329.406,1750.573L329.406,1736.822C329.406,1732.232 325.685,1728.51 321.094,1728.51ZM321.094,1558.887C325.685,1558.887 329.406,1555.165 329.406,1550.574L329.406,1536.823C329.406,1532.233 325.685,1528.511 321.094,1528.511C316.503,1528.511 312.781,1532.233 312.781,1536.823L312.781,1550.574C312.781,1555.165 316.503,1558.887 321.094,1558.887ZM351.047,1558.887C355.638,1558.887 359.36,1555.165 359.36,1550.574L359.36,1536.823C359.36,1532.233 355.638,1528.511 351.047,1528.511C346.456,1528.511 342.735,1532.233 342.735,1536.823L342.735,1550.574C342.735,1555.165 346.456,1558.887 351.047,1558.887ZM291.14,1558.887C295.731,1558.887 299.452,1555.165 299.452,1550.574L299.452,1536.823C299.452,1532.233 295.731,1528.511 291.14,1528.511C286.549,1528.511 282.827,1532.233 282.827,1536.823L282.827,1550.574C282.827,1555.165 286.549,1558.887 291.14,1558.887ZM291.14,1728.51C286.549,1728.51 282.827,1732.232 282.827,1736.822L282.827,1750.573C282.827,1755.163 286.549,1758.886 291.14,1758.886C295.731,1758.886 299.452,1755.163 299.452,1750.573L299.452,1736.822C299.452,1732.232 295.731,1728.51 291.14,1728.51ZM429.195,1607.081L442.946,1607.081C447.537,1607.081 451.259,1603.358 451.259,1598.768C451.259,1594.178 447.537,1590.456 442.946,1590.456L429.195,1590.456C424.604,1590.456 420.883,1594.178 420.883,1598.768C420.883,1603.358 424.604,1607.081 429.195,1607.081ZM381.001,1558.887C385.593,1558.887 389.314,1555.165 389.314,1550.574L389.314,1536.823C389.314,1532.233 385.593,1528.511 381.001,1528.511C376.41,1528.511 372.689,1532.233 372.689,1536.823L372.689,1550.574C372.689,1555.165 376.41,1558.887 381.001,1558.887ZM242.947,1650.361L229.196,1650.361C224.605,1650.361 220.884,1654.084 220.884,1658.674C220.884,1663.264 224.605,1666.986 229.196,1666.986L242.947,1666.986C247.537,1666.986 251.259,1663.264 251.259,1658.674C251.259,1654.084 247.537,1650.361 242.947,1650.361ZM242.947,1620.41L229.196,1620.41C224.605,1620.41 220.884,1624.132 220.884,1628.722C220.884,1633.312 224.605,1637.035 229.196,1637.035L242.947,1637.035C247.537,1637.035 251.259,1633.312 251.259,1628.722C251.259,1624.132 247.537,1620.41 242.947,1620.41ZM242.947,1680.315L229.196,1680.315C224.605,1680.315 220.884,1684.038 220.884,1688.628C220.884,1693.219 224.605,1696.94 229.196,1696.94L242.947,1696.94C247.537,1696.94 251.259,1693.219 251.259,1688.628C251.259,1684.038 247.537,1680.315 242.947,1680.315ZM242.947,1590.456L229.196,1590.456C224.605,1590.456 220.884,1594.178 220.884,1598.768C220.884,1603.358 224.605,1607.081 229.196,1607.081L242.947,1607.081C247.537,1607.081 251.259,1603.358 251.259,1598.768C251.259,1594.178 247.537,1590.456 242.947,1590.456Z" style="fill:rgb(27,212,215);fill-rule:nonzero;"/>
        </g>
        <g transform="matrix(0.689487,0,0,0.689487,475.99854,247.196665)">
            <path d="M433.155,381.794L236.03,381.794L236.03,270.384L433.155,270.384L433.155,381.794ZM433.155,432.316L236.03,432.316L236.03,398.419L433.155,398.419L433.155,432.316ZM350.249,467.508L318.938,467.508L318.938,450.186L350.249,450.186L350.249,467.508ZM441.468,253.759L227.717,253.759C223.127,253.759 219.405,257.481 219.405,262.071L219.405,440.628C219.405,445.219 223.127,448.941 227.717,448.941L302.311,448.941L302.311,467.508L278.692,467.508C274.1,467.508 270.38,471.229 270.38,475.821C270.38,480.411 274.1,484.133 278.692,484.133L390.494,484.133C395.084,484.133 398.806,480.411 398.806,475.821C398.806,471.229 395.084,467.508 390.494,467.508L366.874,467.508L366.874,448.941L441.468,448.941C446.059,448.941 449.78,445.219 449.78,440.628L449.78,262.071C449.78,257.481 446.059,253.759 441.468,253.759ZM326.24,424.156L342.945,424.156C347.537,424.156 351.258,420.435 351.258,415.843C351.258,411.253 347.537,407.531 342.945,407.531L326.24,407.531C321.649,407.531 317.927,411.253 317.927,415.843C317.927,420.435 321.649,424.156 326.24,424.156Z" style="fill:rgb(27,212,215);fill-rule:nonzero;"/>
        </g>
    </g>
</svg>
