<?xml version="1.0" encoding="UTF-8" standalone="no"?>
<!DOCTYPE svg PUBLIC "-//W3C//DTD SVG 1.1//EN" "http://www.w3.org/Graphics/SVG/1.1/DTD/svg11.dtd">
<svg width="100%" height="100%" viewBox="0 0 1450 1450" version="1.1" xmlns="http://www.w3.org/2000/svg" xmlns:xlink="http://www.w3.org/1999/xlink" xml:space="preserve" xmlns:serif="http://www.serif.com/" style="fill-rule:evenodd;clip-rule:evenodd;stroke-linecap:round;stroke-linejoin:round;stroke-miterlimit:1.5;">
    <g id="Outer-Ring" serif:id="Outer Ring" transform="matrix(1.32017,0,0,1.32017,51.8561,107.194)">
        <path d="M509.428,44.308C745.634,44.308 937.402,236.076 937.402,472.281C937.402,708.487 745.634,900.255 509.428,900.255C273.223,900.255 81.455,708.487 81.455,472.281C81.455,236.076 273.223,44.308 509.428,44.308ZM509.428,142.742C691.306,142.742 838.968,290.404 838.968,472.281C838.968,654.159 691.306,801.821 509.428,801.821C327.55,801.821 179.889,654.159 179.889,472.281C179.889,290.404 327.55,142.742 509.428,142.742Z" style="stroke:black;stroke-width:9.85px;"/>
    </g>
    <g id="Circuit" transform="matrix(2.27312,0,0,2.27312,-577.722,-359.799)">
        <g transform="matrix(0.451853,0,0,0.451853,233.608,97.3405)">
            <circle cx="751.331" cy="846.867" r="524.77" style="stroke:black;stroke-width:14.6px;"/>
        </g>
        <g>
            <g transform="matrix(0.359195,0,0,0.359195,213.904,120.805)">
                <path d="M402.255,1296.49L528.794,1296.49" style="fill:none;stroke:rgb(255,210,40);stroke-width:6.12px;stroke-linecap:butt;stroke-linejoin:miter;stroke-miterlimit:2;"/>
            </g>
            <g transform="matrix(0.359195,0,0,0.359195,213.904,120.805)">
                <path d="M1643.76,1175.07L1286.68,1175.07L1251.1,1210.65" style="stroke:rgb(255,210,40);stroke-width:6.12px;stroke-linecap:butt;stroke-linejoin:miter;stroke-miterlimit:2;"/>
            </g>
            <g transform="matrix(0.359195,0,0,0.359195,213.904,120.805)">
                <path d="M379.414,1241.41L483.312,1241.41" style="fill:none;stroke:rgb(255,210,40);stroke-width:6.12px;stroke-linecap:butt;stroke-linejoin:miter;stroke-miterlimit:2;"/>
            </g>
            <g transform="matrix(0.359195,0,0,0.359195,213.904,120.805)">
                <path d="M1227.06,1122.23L1401.77,1122.23" style="fill:none;stroke:rgb(255,210,40);stroke-width:6.12px;stroke-linecap:butt;stroke-linejoin:miter;stroke-miterlimit:2;"/>
            </g>
            <g transform="matrix(0.359195,0,0,0.359195,213.904,120.805)">
                <path d="M363,1184.07L444.96,1184.07" style="fill:none;stroke:rgb(255,210,40);stroke-width:6.12px;stroke-linecap:butt;stroke-linejoin:miter;stroke-miterlimit:2;"/>
            </g>
            <g transform="matrix(0.359195,0,0,0.359195,213.904,120.805)">
                <path d="M348.064,1122.23L444.064,1122.23" style="fill:none;stroke:rgb(255,210,40);stroke-width:6.12px;stroke-linecap:butt;stroke-linejoin:miter;stroke-miterlimit:2;"/>
            </g>
            <g transform="matrix(0.359195,0,0,0.359195,213.904,120.805)">
                <path d="M1664.08,1072.25L1473.55,1072.25L1427.45,1026.15L1397.96,1026.15" style="stroke:rgb(255,210,40);stroke-width:6.12px;stroke-linecap:butt;stroke-linejoin:miter;stroke-miterlimit:2;"/>
            </g>
            <g transform="matrix(0.359195,0,0,0.359195,213.904,120.805)">
                <path d="M1666.08,1026.15L1512.32,1026.15" style="fill:none;stroke:rgb(255,210,40);stroke-width:6.12px;stroke-linecap:butt;stroke-linejoin:miter;stroke-miterlimit:2;"/>
            </g>
            <g transform="matrix(0.359195,0,0,0.359195,213.904,120.805)">
                <path d="M335.868,1071.79L408.648,1071.79" style="fill:none;stroke:rgb(255,210,40);stroke-width:6.12px;stroke-linecap:butt;stroke-linejoin:miter;stroke-miterlimit:2;"/>
            </g>
            <g transform="matrix(0.359195,0,0,0.359195,213.904,120.805)">
                <path d="M333.868,1022.27L498.736,1022.27" style="fill:none;stroke:rgb(255,210,40);stroke-width:6.12px;stroke-linecap:butt;stroke-linejoin:miter;stroke-miterlimit:2;"/>
            </g>
            <g transform="matrix(0.359195,0,0,0.359195,213.904,120.805)">
                <path d="M1656.77,1122.23L1491,1122.23" style="fill:none;stroke:rgb(255,210,40);stroke-width:6.12px;stroke-linecap:butt;stroke-linejoin:miter;stroke-miterlimit:2;"/>
            </g>
            <g transform="matrix(0.359195,0,0,0.359195,213.904,120.805)">
                <path d="M333.868,967.181L522.286,967.181" style="fill:none;stroke:rgb(255,210,40);stroke-width:6.12px;stroke-linecap:butt;stroke-linejoin:miter;stroke-miterlimit:2;"/>
            </g>
            <g transform="matrix(0.359195,0,0,0.359195,213.904,120.805)">
                <path d="M1666.08,967.181L1336.93,967.181" style="fill:none;stroke:rgb(255,210,40);stroke-width:6.12px;stroke-linecap:butt;stroke-linejoin:miter;stroke-miterlimit:2;"/>
            </g>
            <g transform="matrix(0.359195,0,0,0.359195,213.904,120.805)">
                <path d="M512.524,862.484L348.064,862.484" style="fill:none;stroke:rgb(255,210,40);stroke-width:6.12px;stroke-linecap:butt;stroke-linejoin:miter;stroke-miterlimit:2;"/>
            </g>
            <g transform="matrix(0.359195,0,0,0.359195,213.904,120.805)">
                <path d="M337.221,915.511L488.957,915.511" style="fill:none;stroke:rgb(255,210,40);stroke-width:6.12px;stroke-linecap:butt;stroke-linejoin:miter;stroke-miterlimit:2;"/>
            </g>
            <g transform="matrix(0.359195,0,0,0.359195,213.904,120.805)">
                <path d="M1658.77,911.856L1252.91,911.856" style="fill:none;stroke:rgb(255,210,40);stroke-width:6.12px;stroke-linecap:butt;stroke-linejoin:miter;stroke-miterlimit:2;"/>
            </g>
            <g transform="matrix(0.359195,0,0,0.359195,213.904,120.805)">
                <path d="M1537.32,864.041L1650,864.041" style="fill:none;stroke:rgb(255,210,40);stroke-width:6.12px;stroke-linecap:butt;stroke-linejoin:miter;stroke-miterlimit:2;"/>
            </g>
            <g transform="matrix(0.359195,0,0,0.359195,213.904,120.805)">
                <path d="M1455.84,864.041L1187.55,864.041" style="fill:none;stroke:rgb(255,210,40);stroke-width:6.12px;stroke-linecap:butt;stroke-linejoin:miter;stroke-miterlimit:2;"/>
            </g>
            <g transform="matrix(0.359195,0,0,0.359195,213.904,120.805)">
                <path d="M1640.54,812.492L1544.04,812.492" style="fill:none;stroke:rgb(255,210,40);stroke-width:6.12px;stroke-linecap:butt;stroke-linejoin:miter;stroke-miterlimit:2;"/>
            </g>
            <g transform="matrix(0.359195,0,0,0.359195,213.904,120.805)">
                <path d="M565.766,763.858L488.957,763.858L442.8,717.7L396,717.7" style="stroke:rgb(255,210,40);stroke-width:6.12px;stroke-linecap:butt;stroke-linejoin:miter;stroke-miterlimit:2;"/>
            </g>
            <g transform="matrix(0.359195,0,0,0.359195,213.904,120.805)">
                <path d="M379.414,765.096L435.894,765.096" style="fill:none;stroke:rgb(255,210,40);stroke-width:6.12px;stroke-linecap:butt;stroke-linejoin:miter;stroke-miterlimit:2;"/>
            </g>
            <g transform="matrix(0.359195,0,0,0.359195,213.904,120.805)">
                <path d="M546.199,812.492L365.24,812.492" style="fill:none;stroke:rgb(255,210,40);stroke-width:6.12px;stroke-linecap:butt;stroke-linejoin:miter;stroke-miterlimit:2;"/>
            </g>
            <g transform="matrix(0.359195,0,0,0.359195,213.904,120.805)">
                <path d="M1470.8,708.322L1597,708.5" style="fill:none;stroke:rgb(255,210,40);stroke-width:6.12px;stroke-linecap:butt;stroke-linejoin:miter;stroke-miterlimit:2;"/>
            </g>
            <g transform="matrix(0.359195,0,0,0.359195,213.904,120.805)">
                <path d="M582.234,1344.93L548.957,1344.93L502.8,1391.09L462.255,1391.09" style="stroke:rgb(255,210,40);stroke-width:6.12px;stroke-linecap:butt;stroke-linejoin:miter;stroke-miterlimit:2;"/>
            </g>
            <g transform="matrix(0.359195,0,0,0.359195,213.904,120.805)">
                <path d="M1137.22,1424.55L1151.17,1438.49L1498,1438.49" style="stroke:rgb(255,210,40);stroke-width:6.12px;stroke-linecap:butt;stroke-linejoin:miter;stroke-miterlimit:2;"/>
            </g>
            <g transform="matrix(0.359195,0,0,0.359195,213.904,120.805)">
                <path d="M1622,765.096L1555.04,765.096" style="fill:none;stroke:rgb(255,210,40);stroke-width:6.12px;stroke-linecap:butt;stroke-linejoin:miter;stroke-miterlimit:2;"/>
            </g>
            <g transform="matrix(0.359195,0,0,0.359195,213.904,120.805)">
                <path d="M1270.78,1346.73L1455.84,1346.73L1509.2,1293.37L1596,1293.37" style="stroke:rgb(255,210,40);stroke-width:6.12px;stroke-linecap:butt;stroke-linejoin:miter;stroke-miterlimit:2;"/>
            </g>
            <g transform="matrix(0.359195,0,0,0.359195,213.904,120.805)">
                <path d="M1295.66,1298.64L1413.77,1298.64L1468.42,1243.98L1622,1243.98" style="stroke:rgb(255,210,40);stroke-width:6.12px;stroke-linecap:butt;stroke-linejoin:miter;stroke-miterlimit:2;"/>
            </g>
            <g transform="matrix(0.359195,0,0,0.359195,213.904,120.805)">
                <path d="M1402.16,1243.98L1274.36,1243.98" style="fill:none;stroke:rgb(255,210,40);stroke-width:6.12px;stroke-linecap:butt;stroke-linejoin:miter;stroke-miterlimit:2;"/>
            </g>
            <g transform="matrix(0.359195,0,0,0.359195,213.904,120.805)">
                <path d="M488.504,1343.69L430,1343.5" style="fill:none;stroke:rgb(255,210,40);stroke-width:6.12px;stroke-linecap:butt;stroke-linejoin:miter;stroke-miterlimit:2;"/>
            </g>
            <g transform="matrix(0.359195,0,0,0.359195,213.904,120.805)">
                <path d="M504,717.696L588.398,717.696" style="fill:none;stroke:rgb(255,210,40);stroke-width:6.12px;stroke-linecap:butt;stroke-linejoin:miter;stroke-miterlimit:2;"/>
            </g>
            <g transform="matrix(0.359195,0,0,0.359195,213.904,120.805)">
                <path d="M1183.94,559.146L1498,559.146" style="fill:none;stroke:rgb(255,210,40);stroke-width:6.12px;stroke-linecap:butt;stroke-linejoin:miter;stroke-miterlimit:2;"/>
            </g>
            <g transform="matrix(0.359195,0,0,0.359195,213.904,120.805)">
                <path d="M425,666.262L619.572,666.262" style="fill:none;stroke:rgb(255,210,40);stroke-width:6.12px;stroke-linecap:butt;stroke-linejoin:miter;stroke-miterlimit:2;"/>
            </g>
            <g transform="matrix(0.359195,0,0,0.359195,213.904,120.805)">
                <path d="M1255.93,611.891L1422.96,611.891L1476.46,665.396L1574.62,665.396" style="stroke:rgb(255,210,40);stroke-width:6.12px;stroke-linecap:butt;stroke-linejoin:miter;stroke-miterlimit:2;"/>
            </g>
            <g transform="matrix(0.359195,0,0,0.359195,213.904,120.805)">
                <path d="M1542.04,611.891L1484.82,611.891" style="fill:none;stroke:rgb(255,210,40);stroke-width:6.12px;stroke-linecap:butt;stroke-linejoin:miter;stroke-miterlimit:2;"/>
            </g>
            <g transform="matrix(0.359195,0,0,0.359195,213.904,120.805)">
                <path d="M457,611.891L652.282,612.706" style="fill:none;stroke:rgb(255,210,40);stroke-width:6.12px;stroke-linecap:butt;stroke-linejoin:miter;stroke-miterlimit:2;"/>
            </g>
            <g transform="matrix(0.359195,0,0,0.359195,213.904,120.805)">
                <path d="M836.652,512.295L545.17,512.295" style="fill:none;stroke:rgb(255,210,40);stroke-width:6.12px;stroke-linecap:butt;stroke-linejoin:miter;stroke-miterlimit:2;"/>
            </g>
            <g transform="matrix(0.359195,0,0,0.359195,213.904,120.805)">
                <path d="M691,559.146L502.526,559.146" style="fill:none;stroke:rgb(255,210,40);stroke-width:6.12px;stroke-linecap:butt;stroke-linejoin:miter;stroke-miterlimit:2;"/>
            </g>
            <g transform="matrix(0.359195,0,0,0.359195,213.904,120.805)">
                <path d="M616,457.5L883.503,457.5L931.751,409.251L1035.38,409.251" style="stroke:rgb(255,210,40);stroke-width:6.12px;stroke-linecap:butt;stroke-linejoin:miter;stroke-miterlimit:2;"/>
            </g>
            <g transform="matrix(0.359195,0,0,0.359195,213.904,120.805)">
                <path d="M853.085,409.251L706,409.251" style="fill:none;stroke:rgb(255,210,40);stroke-width:6.12px;stroke-linecap:butt;stroke-linejoin:miter;stroke-miterlimit:2;"/>
            </g>
            <g transform="matrix(0.359195,0,0,0.359195,213.904,120.805)">
                <path d="M923.004,502.121L962.313,462.813L1228.87,462.813L1276.36,510.299L1443,510.299" style="stroke:rgb(255,210,40);stroke-width:6.12px;stroke-linecap:butt;stroke-linejoin:miter;stroke-miterlimit:2;"/>
            </g>
            <g transform="matrix(0.359195,0,0,0.359195,213.904,120.805)">
                <path d="M1391,462.813L1311,462.813" style="fill:none;stroke:rgb(255,210,40);stroke-width:6.12px;stroke-linecap:butt;stroke-linejoin:miter;stroke-miterlimit:2;"/>
            </g>
            <g transform="matrix(0.359195,0,0,0.359195,213.904,120.805)">
                <path d="M1306,409.251L1109.94,409.251L1073.06,372.373" style="stroke:rgb(255,210,40);stroke-width:6.12px;stroke-linecap:butt;stroke-linejoin:miter;stroke-miterlimit:2;"/>
            </g>
            <g transform="matrix(0.359195,0,0,0.359195,213.904,120.805)">
                <path d="M816,360.543L974,360.543" style="fill:none;stroke:rgb(255,210,40);stroke-width:6.12px;stroke-linecap:butt;stroke-linejoin:miter;stroke-miterlimit:2;"/>
            </g>
            <g transform="matrix(0.359195,0,0,0.359195,213.904,120.805)">
                <path d="M1209.37,512.295L1004,512.295" style="fill:none;stroke:rgb(255,210,40);stroke-width:6.12px;stroke-linecap:butt;stroke-linejoin:miter;stroke-miterlimit:2;"/>
            </g>
            <g transform="matrix(0.359195,0,0,0.359195,213.904,120.805)">
                <path d="M1384,1542.2L1116.5,1542.2L1068.25,1590.45L964.617,1590.45" style="stroke:rgb(255,210,40);stroke-width:6.12px;stroke-linecap:butt;stroke-linejoin:miter;stroke-miterlimit:2;"/>
            </g>
            <g transform="matrix(0.359195,0,0,0.359195,213.904,120.805)">
                <path d="M1146.91,1590.45L1306,1590.45" style="fill:none;stroke:rgb(255,210,40);stroke-width:6.12px;stroke-linecap:butt;stroke-linejoin:miter;stroke-miterlimit:2;"/>
            </g>
            <g transform="matrix(0.359195,0,0,0.359195,213.904,120.805)">
                <path d="M1077,1497.58L1037.69,1536.89L771.128,1536.89L723.642,1489.4L549,1489.4" style="stroke:rgb(255,210,40);stroke-width:6.12px;stroke-linecap:butt;stroke-linejoin:miter;stroke-miterlimit:2;"/>
            </g>
            <g transform="matrix(0.359195,0,0,0.359195,213.904,120.805)">
                <path d="M609,1536.89L704.191,1536.89" style="fill:none;stroke:rgb(255,210,40);stroke-width:6.12px;stroke-linecap:butt;stroke-linejoin:miter;stroke-miterlimit:2;"/>
            </g>
            <g transform="matrix(0.359195,0,0,0.359195,213.904,120.805)">
                <path d="M694,1590.45L890.064,1590.45L925.638,1626.03" style="stroke:rgb(255,210,40);stroke-width:6.12px;stroke-linecap:butt;stroke-linejoin:miter;stroke-miterlimit:2;"/>
            </g>
            <g transform="matrix(0.359195,0,0,0.359195,213.904,120.805)">
                <path d="M1182,1639.16L1023.93,1639.16" style="fill:none;stroke:rgb(255,210,40);stroke-width:6.12px;stroke-linecap:butt;stroke-linejoin:miter;stroke-miterlimit:2;"/>
            </g>
            <g transform="matrix(0.359195,0,0,0.359195,213.904,120.805)">
                <path d="M806.539,1487.41L1010.57,1487.41" style="fill:none;stroke:rgb(255,210,40);stroke-width:6.12px;stroke-linecap:butt;stroke-linejoin:miter;stroke-miterlimit:2;"/>
            </g>
            <g transform="matrix(0.359195,0,0,0.359195,213.904,120.805)">
                <path d="M1165,1487.41L1451,1487.41" style="fill:none;stroke:rgb(255,210,40);stroke-width:6.12px;stroke-linecap:butt;stroke-linejoin:miter;stroke-miterlimit:2;"/>
            </g>
            <g transform="matrix(0.359195,0,0,0.359195,213.904,120.805)">
                <path d="M653.111,1393.09L562,1393.09" style="fill:none;stroke:rgb(255,210,40);stroke-width:6.12px;stroke-linecap:butt;stroke-linejoin:miter;stroke-miterlimit:2;"/>
            </g>
            <g transform="matrix(0.359195,0,0,0.359195,213.904,120.805)">
                <path d="M502.526,1438.49L736.149,1438.49" style="fill:none;stroke:rgb(255,210,40);stroke-width:6.12px;stroke-linecap:butt;stroke-linejoin:miter;stroke-miterlimit:2;"/>
            </g>
            <g transform="matrix(0.359195,0,0,0.359195,213.904,120.805)">
                <path d="M1512.93,1346.5L1566.18,1346.5" style="fill:none;stroke:rgb(255,210,40);stroke-width:6.12px;stroke-linecap:butt;stroke-linejoin:miter;stroke-miterlimit:2;"/>
            </g>
            <g transform="matrix(0.359195,0,0,0.359195,213.904,120.805)">
                <path d="M1257,1391.09L1535.81,1391.09" style="fill:none;stroke:rgb(255,210,40);stroke-width:6.12px;stroke-linecap:butt;stroke-linejoin:miter;stroke-miterlimit:2;"/>
            </g>
        </g>
        <g>
            <g transform="matrix(0.359195,0,0,0.359195,213.904,120.805)">
                <path d="M447,751.5C454.732,751.5 461,757.768 461,765.5C461,773.232 454.732,779.5 447,779.5C439.268,779.5 433,773.232 433,765.5C433,757.768 439.268,751.5 447,751.5Z" style="fill:rgb(255,210,40);stroke:rgb(255,210,40);stroke-width:6.12px;stroke-linecap:butt;stroke-linejoin:miter;stroke-miterlimit:2;"/>
            </g>
            <g transform="matrix(0.359195,0,0,0.359195,213.904,120.805)">
                <path d="M867,395.5C874.732,395.5 881,401.768 881,409.5C881,417.232 874.732,423.5 867,423.5C859.268,423.5 853,417.232 853,409.5C853,401.768 859.268,395.5 867,395.5Z" style="fill:rgb(255,210,40);stroke:rgb(255,210,40);stroke-width:6.12px;stroke-linecap:butt;stroke-linejoin:miter;stroke-miterlimit:2;"/>
            </g>
            <g transform="matrix(0.359195,0,0,0.359195,213.904,120.805)">
                <path d="M1053,395.5C1060.73,395.5 1067,401.768 1067,409.5C1067,417.232 1060.73,423.5 1053,423.5C1045.27,423.5 1039,417.232 1039,409.5C1039,401.768 1045.27,395.5 1053,395.5Z" style="fill:rgb(255,210,40);stroke:rgb(255,210,40);stroke-width:6.12px;stroke-linecap:butt;stroke-linejoin:miter;stroke-miterlimit:2;"/>
            </g>
            <g transform="matrix(0.359195,0,0,0.359195,213.904,120.805)">
                <path d="M1223,498.5C1230.73,498.5 1237,504.768 1237,512.5C1237,520.232 1230.73,526.5 1223,526.5C1215.27,526.5 1209,520.232 1209,512.5C1209,504.768 1215.27,498.5 1223,498.5Z" style="fill:rgb(255,210,40);stroke:rgb(255,210,40);stroke-width:6.12px;stroke-linecap:butt;stroke-linejoin:miter;stroke-miterlimit:2;"/>
            </g>
            <g transform="matrix(0.359195,0,0,0.359195,213.904,120.805)">
                <path d="M1470,850.5C1477.73,850.5 1484,856.768 1484,864.5C1484,872.232 1477.73,878.5 1470,878.5C1462.27,878.5 1456,872.232 1456,864.5C1456,856.768 1462.27,850.5 1470,850.5Z" style="fill:rgb(255,210,40);stroke:rgb(255,210,40);stroke-width:6.12px;stroke-linecap:butt;stroke-linejoin:miter;stroke-miterlimit:2;"/>
            </g>
            <g transform="matrix(0.359195,0,0,0.359195,213.904,120.805)">
                <path d="M1133,1576.5C1140.73,1576.5 1147,1582.77 1147,1590.5C1147,1598.23 1140.73,1604.5 1133,1604.5C1125.27,1604.5 1119,1598.23 1119,1590.5C1119,1582.77 1125.27,1576.5 1133,1576.5Z" style="fill:rgb(255,210,40);stroke:rgb(255,210,40);stroke-width:6.12px;stroke-linecap:butt;stroke-linejoin:miter;stroke-miterlimit:2;"/>
            </g>
            <g transform="matrix(0.359195,0,0,0.359195,213.904,120.805)">
                <path d="M950,1576.5C957.732,1576.5 964,1582.77 964,1590.5C964,1598.23 957.732,1604.5 950,1604.5C942.268,1604.5 936,1598.23 936,1590.5C936,1582.77 942.268,1576.5 950,1576.5Z" style="fill:rgb(255,210,40);stroke:rgb(255,210,40);stroke-width:6.12px;stroke-linecap:butt;stroke-linejoin:miter;stroke-miterlimit:2;"/>
            </g>
            <g transform="matrix(0.359195,0,0,0.359195,213.904,120.805)">
                <path d="M874,1625.5C881.732,1625.5 888,1631.77 888,1639.5C888,1647.23 881.732,1653.5 874,1653.5C866.268,1653.5 860,1647.23 860,1639.5C860,1631.77 866.268,1625.5 874,1625.5Z" style="fill:rgb(255,210,40);stroke:rgb(255,210,40);stroke-width:6.12px;stroke-linecap:butt;stroke-linejoin:miter;stroke-miterlimit:2;"/>
            </g>
            <g transform="matrix(0.359195,0,0,0.359195,213.904,120.805)">
                <path d="M1138,346.5C1145.73,346.5 1152,352.768 1152,360.5C1152,368.232 1145.73,374.5 1138,374.5C1130.27,374.5 1124,368.232 1124,360.5C1124,352.768 1130.27,346.5 1138,346.5Z" style="fill:rgb(255,210,40);stroke:rgb(255,210,40);stroke-width:6.12px;stroke-linecap:butt;stroke-linejoin:miter;stroke-miterlimit:2;"/>
            </g>
            <g transform="matrix(0.359195,0,0,0.359195,213.904,120.805)">
                <path d="M718,1522.5C725.732,1522.5 732,1528.77 732,1536.5C732,1544.23 725.732,1550.5 718,1550.5C710.268,1550.5 704,1544.23 704,1536.5C704,1528.77 710.268,1522.5 718,1522.5Z" style="fill:rgb(255,210,40);stroke:rgb(255,210,40);stroke-width:6.12px;stroke-linecap:butt;stroke-linejoin:miter;stroke-miterlimit:2;"/>
            </g>
            <g transform="matrix(0.359195,0,0,0.359195,213.904,120.805)">
                <path d="M1025,1473.5C1032.73,1473.5 1039,1479.77 1039,1487.5C1039,1495.23 1032.73,1501.5 1025,1501.5C1017.27,1501.5 1011,1495.23 1011,1487.5C1011,1479.77 1017.27,1473.5 1025,1473.5Z" style="fill:rgb(255,210,40);stroke:rgb(255,210,40);stroke-width:6.12px;stroke-linecap:butt;stroke-linejoin:miter;stroke-miterlimit:2;"/>
            </g>
            <g transform="matrix(0.359195,0,0,0.359195,213.904,120.805)">
                <path d="M1417,1108.5C1424.73,1108.5 1431,1114.77 1431,1122.5C1431,1130.23 1424.73,1136.5 1417,1136.5C1409.27,1136.5 1403,1130.23 1403,1122.5C1403,1114.77 1409.27,1108.5 1417,1108.5Z" style="fill:rgb(255,210,40);stroke:rgb(255,210,40);stroke-width:6.12px;stroke-linecap:butt;stroke-linejoin:miter;stroke-miterlimit:2;"/>
            </g>
            <g transform="matrix(0.359195,0,0,0.359195,213.904,120.805)">
                <path d="M1498,1012.5C1505.73,1012.5 1512,1018.77 1512,1026.5C1512,1034.23 1505.73,1040.5 1498,1040.5C1490.27,1040.5 1484,1034.23 1484,1026.5C1484,1018.77 1490.27,1012.5 1498,1012.5Z" style="fill:rgb(255,210,40);stroke:rgb(255,210,40);stroke-width:6.12px;stroke-linecap:butt;stroke-linejoin:miter;stroke-miterlimit:2;"/>
            </g>
            <g transform="matrix(0.359195,0,0,0.359195,213.904,120.805)">
                <path d="M1243,1377.5C1250.73,1377.5 1257,1383.77 1257,1391.5C1257,1399.23 1250.73,1405.5 1243,1405.5C1235.27,1405.5 1229,1399.23 1229,1391.5C1229,1383.77 1235.27,1377.5 1243,1377.5Z" style="fill:rgb(255,210,40);stroke:rgb(255,210,40);stroke-width:6.12px;stroke-linecap:butt;stroke-linejoin:miter;stroke-miterlimit:2;"/>
            </g>
        </g>
        <g>
            <g transform="matrix(0.359195,0,0,0.359195,213.904,120.805)">
                <path d="M776,1487.5C776,1495.77 782.729,1502.5 791,1502.5C799.271,1502.5 806,1495.77 806,1487.5C806,1479.23 799.271,1472.5 791,1472.5C782.729,1472.5 776,1479.23 776,1487.5Z" style="fill-rule:nonzero;stroke:rgb(255,210,40);stroke-width:6.12px;stroke-linecap:butt;stroke-miterlimit:2;"/>
            </g>
            <g transform="matrix(0.359195,0,0,0.359195,213.904,120.805)">
                <path d="M532,1393.5C532,1401.77 538.729,1408.5 547,1408.5C555.271,1408.5 562,1401.77 562,1393.5C562,1385.23 555.271,1378.5 547,1378.5C538.729,1378.5 532,1385.23 532,1393.5Z" style="fill-rule:nonzero;stroke:rgb(255,210,40);stroke-width:6.12px;stroke-linecap:butt;stroke-miterlimit:2;"/>
            </g>
            <g transform="matrix(0.359195,0,0,0.359195,213.904,120.805)">
                <path d="M488,1343.5C488,1351.77 494.729,1358.5 503,1358.5C511.271,1358.5 518,1351.77 518,1343.5C518,1335.23 511.271,1328.5 503,1328.5C494.729,1328.5 488,1335.23 488,1343.5Z" style="fill-rule:nonzero;stroke:rgb(255,210,40);stroke-width:6.12px;stroke-linecap:butt;stroke-miterlimit:2;"/>
            </g>
            <g transform="matrix(0.359195,0,0,0.359195,213.904,120.805)">
                <path d="M1072,1487.5C1072,1495.77 1078.73,1502.5 1087,1502.5C1095.27,1502.5 1102,1495.77 1102,1487.5C1102,1479.23 1095.27,1472.5 1087,1472.5C1078.73,1472.5 1072,1479.23 1072,1487.5Z" style="fill-rule:nonzero;stroke:rgb(255,210,40);stroke-width:6.12px;stroke-linecap:butt;stroke-miterlimit:2;"/>
            </g>
            <g transform="matrix(0.359195,0,0,0.359195,213.904,120.805)">
                <path d="M1135,1487.5C1135,1495.77 1141.73,1502.5 1150,1502.5C1158.27,1502.5 1165,1495.77 1165,1487.5C1165,1479.23 1158.27,1472.5 1150,1472.5C1141.73,1472.5 1135,1479.23 1135,1487.5Z" style="fill-rule:nonzero;stroke:rgb(255,210,40);stroke-width:6.12px;stroke-linecap:butt;stroke-miterlimit:2;"/>
            </g>
            <g transform="matrix(0.359195,0,0,0.359195,213.904,120.805)">
                <path d="M993,1639.5C993,1647.77 999.729,1654.5 1008,1654.5C1016.27,1654.5 1023,1647.77 1023,1639.5C1023,1631.23 1016.27,1624.5 1008,1624.5C999.729,1624.5 993,1631.23 993,1639.5Z" style="fill-rule:nonzero;stroke:rgb(255,210,40);stroke-width:6.12px;stroke-linecap:butt;stroke-miterlimit:2;"/>
            </g>
            <g transform="matrix(0.359195,0,0,0.359195,213.904,120.805)">
                <path d="M921,1636.5C921,1644.77 927.729,1651.5 936,1651.5C944.271,1651.5 951,1644.77 951,1636.5C951,1628.23 944.271,1621.5 936,1621.5C927.729,1621.5 921,1628.23 921,1636.5Z" style="fill-rule:nonzero;stroke:rgb(255,210,40);stroke-width:6.12px;stroke-linecap:butt;stroke-miterlimit:2;"/>
            </g>
            <g transform="matrix(0.359195,0,0,0.359195,213.904,120.805)">
                <path d="M1402,1243.5C1402,1251.77 1408.73,1258.5 1417,1258.5C1425.27,1258.5 1432,1251.77 1432,1243.5C1432,1235.23 1425.27,1228.5 1417,1228.5C1408.73,1228.5 1402,1235.23 1402,1243.5Z" style="fill-rule:nonzero;stroke:rgb(255,210,40);stroke-width:6.12px;stroke-linecap:butt;stroke-miterlimit:2;"/>
            </g>
            <g transform="matrix(0.359195,0,0,0.359195,213.904,120.805)">
                <path d="M1483,1346.5C1483,1354.77 1489.73,1361.5 1498,1361.5C1506.27,1361.5 1513,1354.77 1513,1346.5C1513,1338.23 1506.27,1331.5 1498,1331.5C1489.73,1331.5 1483,1338.23 1483,1346.5Z" style="fill-rule:nonzero;stroke:rgb(255,210,40);stroke-width:6.12px;stroke-linecap:butt;stroke-miterlimit:2;"/>
            </g>
            <g transform="matrix(0.359195,0,0,0.359195,213.904,120.805)">
                <path d="M1461,1122.5C1461,1130.77 1467.73,1137.5 1476,1137.5C1484.27,1137.5 1491,1130.77 1491,1122.5C1491,1114.23 1484.27,1107.5 1476,1107.5C1467.73,1107.5 1461,1114.23 1461,1122.5Z" style="fill-rule:nonzero;stroke:rgb(255,210,40);stroke-width:6.12px;stroke-linecap:butt;stroke-miterlimit:2;"/>
            </g>
            <g transform="matrix(0.359195,0,0,0.359195,213.904,120.805)">
                <path d="M408,1072.5C408,1080.77 414.729,1087.5 423,1087.5C431.271,1087.5 438,1080.77 438,1072.5C438,1064.23 431.271,1057.5 423,1057.5C414.729,1057.5 408,1064.23 408,1072.5Z" style="fill-rule:nonzero;stroke:rgb(255,210,40);stroke-width:6.12px;stroke-linecap:butt;stroke-miterlimit:2;"/>
            </g>
            <g transform="matrix(0.359195,0,0,0.359195,213.904,120.805)">
                <path d="M477,915.5C477,923.771 483.729,930.5 492,930.5C500.271,930.5 507,923.771 507,915.5C507,907.229 500.271,900.5 492,900.5C483.729,900.5 477,907.229 477,915.5Z" style="fill-rule:nonzero;stroke:rgb(255,210,40);stroke-width:6.12px;stroke-linecap:butt;stroke-miterlimit:2;"/>
            </g>
            <g transform="matrix(0.359195,0,0,0.359195,213.904,120.805)">
                <path d="M474,717.5C474,725.771 480.729,732.5 489,732.5C497.271,732.5 504,725.771 504,717.5C504,709.229 497.271,702.5 489,702.5C480.729,702.5 474,709.229 474,717.5Z" style="fill-rule:nonzero;stroke:rgb(255,210,40);stroke-width:6.12px;stroke-linecap:butt;stroke-miterlimit:2;"/>
            </g>
            <g transform="matrix(0.359195,0,0,0.359195,213.904,120.805)">
                <path d="M1455,611.5C1455,619.771 1461.73,626.5 1470,626.5C1478.27,626.5 1485,619.771 1485,611.5C1485,603.229 1478.27,596.5 1470,596.5C1461.73,596.5 1455,603.229 1455,611.5Z" style="fill-rule:nonzero;stroke:rgb(255,210,40);stroke-width:6.12px;stroke-linecap:butt;stroke-miterlimit:2;"/>
            </g>
            <g transform="matrix(0.359195,0,0,0.359195,213.904,120.805)">
                <path d="M1281,462.5C1281,470.771 1287.73,477.5 1296,477.5C1304.27,477.5 1311,470.771 1311,462.5C1311,454.229 1304.27,447.5 1296,447.5C1287.73,447.5 1281,454.229 1281,462.5Z" style="fill-rule:nonzero;stroke:rgb(255,210,40);stroke-width:6.12px;stroke-linecap:butt;stroke-miterlimit:2;"/>
            </g>
            <g transform="matrix(0.359195,0,0,0.359195,213.904,120.805)">
                <path d="M974,360.5C974,368.771 980.729,375.5 989,375.5C997.271,375.5 1004,368.771 1004,360.5C1004,352.229 997.271,345.5 989,345.5C980.729,345.5 974,352.229 974,360.5Z" style="fill-rule:nonzero;stroke:rgb(255,210,40);stroke-width:6.12px;stroke-linecap:butt;stroke-miterlimit:2;"/>
            </g>
            <g transform="matrix(0.359195,0,0,0.359195,213.904,120.805)">
                <path d="M1046,363.5C1046,371.771 1052.73,378.5 1061,378.5C1069.27,378.5 1076,371.771 1076,363.5C1076,355.229 1069.27,348.5 1061,348.5C1052.73,348.5 1046,355.229 1046,363.5Z" style="fill-rule:nonzero;stroke:rgb(255,210,40);stroke-width:6.12px;stroke-linecap:butt;stroke-miterlimit:2;"/>
            </g>
            <g transform="matrix(0.359195,0,0,0.359195,213.904,120.805)">
                <path d="M974,512.5C974,520.771 980.729,527.5 989,527.5C997.271,527.5 1004,520.771 1004,512.5C1004,504.229 997.271,497.5 989,497.5C980.729,497.5 974,504.229 974,512.5Z" style="fill-rule:nonzero;stroke:rgb(255,210,40);stroke-width:6.12px;stroke-linecap:butt;stroke-miterlimit:2;"/>
            </g>
            <g transform="matrix(0.359195,0,0,0.359195,213.904,120.805)">
                <path d="M898,512.5C898,520.771 904.729,527.5 913,527.5C921.271,527.5 928,520.771 928,512.5C928,504.229 921.271,497.5 913,497.5C904.729,497.5 898,504.229 898,512.5Z" style="fill-rule:nonzero;stroke:rgb(255,210,40);stroke-width:6.12px;stroke-linecap:butt;stroke-miterlimit:2;"/>
            </g>
        </g>
    </g>
    <g id="Eagle" transform="matrix(4.16563,0,0,4.16563,-1008.29,476.188)">
        <g transform="matrix(1,0,0,1,465.799,70.4555)">
            <path d="M17.581,-13.923C31.281,-3.464 37.283,10.2 37.283,10.2C37.283,10.2 0,3.166 -6.565,17.235L-6.565,17.469C-2.923,25.828 4.932,40.864 10.796,51.853C-8.3,71.093 -34.766,83.008 -64.014,83.008C-105.741,83.008 -141.804,58.76 -158.883,23.587C-151.764,0.632 -143.336,-14.83 -138.655,-22.393L-135.063,-27.318L-151.478,-24.973C-151.478,-24.973 -113.96,-100.946 -102.235,-103.291C-79.021,-106.105 -19.052,-96.636 -12.193,-95.553C-7.737,-94.849 3.518,-81.953 3.518,-81.953C5.862,-82.656 54.167,-63.897 58.153,-58.035C62.139,-52.173 52.056,-22.159 52.056,-22.159C52.056,-22.159 51.821,-24.269 49.008,-32.711C46.194,-41.152 34.47,-42.09 25.325,-44.201C16.18,-46.311 -6.565,-36.228 -6.565,-36.228" style="fill-rule:nonzero;stroke:rgb(10,100,80);stroke-width:6px;stroke-linecap:butt;stroke-linejoin:miter;stroke-miterlimit:10;"/>
        </g>
        <g transform="matrix(-0.359136,0.891034,0.927496,0.373832,478.225,27.9687)">
            <path d="M25.928,-41.305C25.928,-41.305 36.566,-5.288 35.381,-1.721C34.197,1.847 25.928,16.716 25.928,16.716C25.928,16.716 18.22,0.716 22.694,-11.638C27.167,-23.992 30.933,-23.613 25.928,-41.305Z" style="fill:none;fill-rule:nonzero;stroke:rgb(10,100,80);stroke-width:6.12px;stroke-linecap:butt;stroke-linejoin:miter;stroke-miterlimit:10;"/>
        </g>
        <g transform="matrix(1,0,0,1,469.317,46.8884)">
            <path d="M0,-58.151C1.933,-56.648 50.649,-40.096 54.636,-34.234C58.621,-28.371 48.538,1.642 48.538,1.642C48.538,1.642 48.304,-0.467 45.49,-8.909C42.677,-17.351 30.952,-18.289 21.808,-20.399C16.978,-21.513 8.354,-19.227 1.293,-16.821C-7.31,-13.891 -14.538,-13.13 -25.408,-12.212L-34.47,-12.661C-34.47,-12.661 -16.18,-21.806 -4.924,-29.778C-4.924,-29.778 3.752,-34.468 3.518,-43.144C3.283,-51.82 -0.703,-58.62 -0.703,-58.62C-0.703,-58.62 -2.11,-59.793 0,-58.151" style="fill:none;fill-rule:nonzero;stroke:rgb(10,100,80);stroke-width:0.24px;stroke-linecap:butt;stroke-miterlimit:2;"/>
        </g>
        <g transform="matrix(1,0,0,1,469.317,46.8884)">
            <path d="M0,-58.151C1.933,-56.648 50.649,-40.096 54.636,-34.234C58.621,-28.371 48.538,1.642 48.538,1.642C48.538,1.642 48.304,-0.467 45.49,-8.909C42.677,-17.351 30.952,-18.289 21.808,-20.399C16.978,-21.513 8.354,-19.227 1.293,-16.821C-7.31,-13.891 -14.538,-13.13 -25.408,-12.212L-34.47,-12.661C-34.47,-12.661 -16.18,-21.806 -4.924,-29.778C-4.924,-29.778 3.752,-34.468 3.518,-43.144C3.283,-51.82 -0.703,-58.62 -0.703,-58.62C-0.703,-58.62 -2.11,-59.793 0,-58.151Z" style="fill:none;fill-rule:nonzero;stroke:rgb(10,100,80);stroke-width:6px;stroke-linecap:butt;stroke-linejoin:miter;stroke-miterlimit:10;"/>
        </g>
        <g transform="matrix(1,0,0,1,475.413,33.8989)">
            <path d="M0,5.795C0,5.795 -7.504,-5.795 -43.147,2.804C-18.993,11.59 -9.147,11.59 0,5.795Z" style="fill:none;fill-rule:nonzero;stroke:rgb(10,100,80);stroke-width:6px;stroke-linecap:butt;stroke-linejoin:miter;stroke-miterlimit:10;"/>
        </g>
        <g transform="matrix(1,0,0,1,469.082,3.51075)">
            <path d="M0,-10.084L-70.346,-15.711C-70.346,-15.711 -75.036,-17.118 -78.788,-11.96C-73.863,-14.07 -68.705,-14.305 -55.808,-4.222L-43.849,5.158C-43.849,5.158 -40.566,7.034 -34.235,5.158C-27.904,3.282 1.642,-5.863 1.642,-5.863L0,-10.084Z" style="fill:none;fill-rule:nonzero;stroke:rgb(10,100,80);stroke-width:6px;stroke-linecap:butt;stroke-linejoin:miter;stroke-miterlimit:10;"/>
        </g>
        <g transform="matrix(1,0,0,1,332.377,108.559)">
            <path d="M0,-29.076L10.786,-42.207L8.91,-12.896C8.91,-12.896 17.821,-22.042 24.152,-29.31C25.793,-18.759 34.704,-5.628 39.862,4.455C42.676,0.469 46.897,-10.552 50.18,-18.993C50.414,-10.786 64.249,6.331 64.249,6.331C64.249,6.331 66.125,2.579 69.173,-13.835C72.925,-3.049 102.47,13.131 102.47,13.131C102.47,13.131 103.174,3.517 102.47,-7.504C106.69,0.235 134.829,10.786 134.829,10.786L143.036,13.131" style="fill:none;fill-rule:nonzero;stroke:rgb(10,100,80);stroke-width:6px;stroke-linecap:butt;stroke-linejoin:miter;stroke-miterlimit:10;"/>
        </g>
        <g transform="matrix(1,0,0,1,326.866,52.2825)">
            <path d="M0,40.449L2.697,28.843L7.621,0L8.676,19.58L12.897,22.159L0,40.449Z" style="fill:rgb(10,100,80);fill-rule:nonzero;stroke:rgb(10,100,80);stroke-width:0.24px;stroke-linecap:butt;stroke-miterlimit:2;"/>
        </g>
        <g transform="matrix(1,0,0,1,425.234,-9.85155)">
            <path d="M0,18.52C-3.998,15.6 -6.002,10.436 -4.861,6.415C-4.11,3.766 -2.107,1.56 0.655,0" style="fill:none;fill-rule:nonzero;stroke:rgb(10,100,80);stroke-width:6px;stroke-linecap:butt;stroke-linejoin:miter;stroke-miterlimit:10;"/>
        </g>
        <g transform="matrix(1,0,0,1,437.193,8.43815)">
            <path d="M0,-16.922C2.925,-14.264 4.962,-10.396 4.126,-6.687C3.597,-4.341 0.683,-1.274 -1.574,0" style="fill:none;fill-rule:nonzero;stroke:rgb(10,100,80);stroke-width:6px;stroke-linecap:butt;stroke-linejoin:miter;stroke-miterlimit:10;"/>
        </g>
        <g transform="matrix(-1,0,0,1,430.862,3.84325)">
            <path d="M0.001,-12.103C3.95,-12.103 7.152,-9.394 7.152,-6.051C7.152,-2.709 3.95,0 0.001,0C-3.949,0 -7.151,-2.709 -7.151,-6.051C-7.151,-9.394 -3.949,-12.103 0.001,-12.103" style="fill:rgb(10,100,80);fill-rule:nonzero;stroke:rgb(10,100,80);stroke-width:0.24px;stroke-linecap:butt;stroke-miterlimit:2;"/>
        </g>
        <g transform="matrix(-1,0,0,1,430.773,-0.892547)">
            <path d="M0,-3.584C1.225,-3.584 2.217,-2.782 2.217,-1.792C2.217,-0.802 1.225,0 0,0C-1.225,0 -2.217,-0.802 -2.217,-1.792C-2.217,-2.782 -1.225,-3.584 0,-3.584" style="fill-rule:nonzero;stroke:rgb(10,100,80);stroke-width:0.24px;stroke-linecap:butt;stroke-miterlimit:2;"/>
        </g>
    </g>
</svg>
