<?xml version="1.0" encoding="UTF-8" standalone="no"?>
<!DOCTYPE svg PUBLIC "-//W3C//DTD SVG 1.1//EN" "http://www.w3.org/Graphics/SVG/1.1/DTD/svg11.dtd">
<svg width="100%" height="100%" viewBox="0 0 3847 71" version="1.1" xmlns="http://www.w3.org/2000/svg" xmlns:xlink="http://www.w3.org/1999/xlink" xml:space="preserve" xmlns:serif="http://www.serif.com/" style="fill-rule:evenodd;clip-rule:evenodd;stroke-miterlimit:2;">
    <g transform="matrix(1,0,0,1,3.3541,-1069.93)">
        <g transform="matrix(4.49504,0,0,4.49504,-477.571,-16785.2)">
            <path d="M106.244,3972.94L960.519,3972.94" style="fill:none;stroke:white;stroke-width:0.67px;"/>
        </g>
        <g transform="matrix(4.49504,0,0,4.49504,-477.571,-16785.2)">
            <path d="M211.726,3987.49L221.135,3987.49L206.582,3972.94L197.172,3972.94L211.726,3987.49Z" style="fill:white;fill-rule:nonzero;stroke:white;stroke-width:0.67px;stroke-linejoin:round;"/>
        </g>
        <g transform="matrix(4.49504,0,0,4.49504,-477.571,-16785.2)">
            <path d="M192.907,3987.49L202.316,3987.49L187.763,3972.94L178.354,3972.94L192.907,3987.49Z" style="fill:white;fill-rule:nonzero;stroke:white;stroke-width:0.67px;stroke-linejoin:round;"/>
        </g>
        <g transform="matrix(4.49504,0,0,4.49504,-477.571,-16785.2)">
            <path d="M906.095,3987.49L915.504,3987.49L900.951,3972.94L891.542,3972.94L906.095,3987.49Z" style="fill:white;fill-rule:nonzero;stroke:white;stroke-width:0.67px;stroke-linejoin:round;"/>
        </g>
        <g transform="matrix(4.49504,0,0,4.49504,-477.571,-16785.2)">
            <path d="M887.276,3987.49L896.686,3987.49L882.132,3972.94L872.723,3972.94L887.276,3987.49Z" style="fill:white;fill-rule:nonzero;stroke:white;stroke-width:0.67px;stroke-linejoin:round;"/>
        </g>
        <g transform="matrix(4.49504,0,0,4.49504,-477.571,-16785.2)">
            <path d="M174.089,3987.49L183.498,3987.49L168.945,3972.94L159.536,3972.94L174.089,3987.49Z" style="fill:white;fill-rule:nonzero;stroke:white;stroke-width:0.67px;stroke-linejoin:round;"/>
        </g>
        <g transform="matrix(4.49504,0,0,4.49504,-477.571,-16785.2)">
            <path d="M155.27,3987.49L164.679,3987.49L150.126,3972.94L140.717,3972.94L155.27,3987.49Z" style="fill:white;fill-rule:nonzero;stroke:white;stroke-width:0.67px;stroke-linejoin:round;"/>
        </g>
        <g transform="matrix(4.49504,0,0,4.49504,-477.571,-16785.2)">
            <path d="M304.733,3987.49L314.143,3987.49L299.589,3972.94L290.18,3972.94L304.733,3987.49Z" style="fill:white;fill-rule:nonzero;stroke:white;stroke-width:0.67px;stroke-linejoin:round;"/>
        </g>
    </g>
</svg>
