<?xml version="1.0" encoding="UTF-8" standalone="no"?>
<!DOCTYPE svg PUBLIC "-//W3C//DTD SVG 1.1//EN" "http://www.w3.org/Graphics/SVG/1.1/DTD/svg11.dtd">
<svg width="100%" height="100%" viewBox="0 0 3845 99" version="1.1" xmlns="http://www.w3.org/2000/svg" xmlns:xlink="http://www.w3.org/1999/xlink" xml:space="preserve" xmlns:serif="http://www.serif.com/" style="fill-rule:evenodd;clip-rule:evenodd;stroke-miterlimit:2;">
    <g transform="matrix(1,0,0,1,3.3541,-1066.36)">
        <g transform="matrix(4.48081,0,0,4.48081,-4405.82,-16328.4)">
            <rect x="983.263" y="3882.81" width="34.377" height="20.58" style="fill:none;stroke:white;stroke-width:0.67px;"/>
        </g>
        <g transform="matrix(4.48081,0,0,4.48081,-4405.82,-16328.4)">
            <rect x="1250.24" y="3882.81" width="272.89" height="20.58" style="fill:none;stroke:white;stroke-width:0.67px;"/>
        </g>
        <g transform="matrix(4.48081,0,0,4.48081,-4405.82,-16328.4)">
            <path d="M1017.64,3893.1L1063.86,3893.1" style="fill:none;stroke:white;stroke-width:0.67px;"/>
        </g>
        <g transform="matrix(4.48081,0,0,4.48081,-4405.82,-16328.4)">
            <rect x="1063.86" y="3886.64" width="11.49" height="11.49" style="fill:none;stroke:white;stroke-width:0.67px;"/>
        </g>
        <g transform="matrix(4.48081,0,0,4.48081,-4405.82,-16328.4)">
            <rect x="1080.96" y="3886.64" width="11.49" height="11.49" style="fill:white;fill-rule:nonzero;stroke:white;stroke-width:0.67px;stroke-linejoin:round;"/>
        </g>
        <g transform="matrix(4.48081,0,0,4.48081,-4405.82,-16328.4)">
            <path d="M1086.71,3893.1L1250.24,3893.1" style="fill:none;stroke:white;stroke-width:0.67px;"/>
        </g>
        <g transform="matrix(4.48081,0,0,4.48081,-4405.82,-16328.4)">
            <rect x="1531.56" y="3886.64" width="11.49" height="11.49" style="fill:white;fill-rule:nonzero;stroke:white;stroke-width:0.67px;stroke-linejoin:round;"/>
        </g>
        <g transform="matrix(4.48081,0,0,4.48081,-4405.82,-16328.4)">
            <rect x="1828.76" y="3886.64" width="11.49" height="11.49" style="fill:white;fill-rule:nonzero;stroke:white;stroke-width:0.67px;stroke-linejoin:round;"/>
        </g>
        <g transform="matrix(4.48081,0,0,4.48081,-4405.82,-16328.4)">
            <path d="M1523.13,3893.1L1834.51,3893.1" style="fill:none;stroke:white;stroke-width:0.67px;"/>
        </g>
    </g>
</svg>
