<?xml version="1.0" encoding="UTF-8" standalone="no"?>
<!DOCTYPE svg PUBLIC "-//W3C//DTD SVG 1.1//EN" "http://www.w3.org/Graphics/SVG/1.1/DTD/svg11.dtd">
<svg width="100%" height="100%" viewBox="0 0 3840 46" version="1.1" xmlns="http://www.w3.org/2000/svg" xmlns:xlink="http://www.w3.org/1999/xlink" xml:space="preserve" xmlns:serif="http://www.serif.com/" style="fill-rule:evenodd;clip-rule:evenodd;stroke-linejoin:round;stroke-miterlimit:2;">
    <g transform="matrix(1,0,0,1,-9.09495e-13,-1074.96)">
        <g transform="matrix(4.47831,0,0,4.47831,-4403.35,-17347.4)">
            <rect x="1480.1" y="4116.21" width="22.05" height="5.029" style="fill:white;fill-rule:nonzero;"/>
        </g>
        <g transform="matrix(4.47831,0,0,4.47831,-4403.35,-17347.4)">
            <rect x="1514.47" y="4116.21" width="44.11" height="5.029" style="fill:white;fill-rule:nonzero;"/>
        </g>
        <g transform="matrix(4.47831,0,0,4.47831,-4403.35,-17347.4)">
            <rect x="1424.31" y="4116.21" width="44.11" height="5.029" style="fill:white;fill-rule:nonzero;"/>
        </g>
        <g transform="matrix(4.47831,0,0,4.47831,-4403.35,-17347.4)">
            <rect x="1627.33" y="4116.21" width="22.05" height="5.029" style="fill:white;fill-rule:nonzero;"/>
        </g>
        <g transform="matrix(4.47831,0,0,4.47831,-4403.35,-17347.4)">
            <rect x="1683.76" y="4116.21" width="44.11" height="5.029" style="fill:white;fill-rule:nonzero;"/>
        </g>
        <g transform="matrix(4.47831,0,0,4.47831,-4403.35,-17347.4)">
            <rect x="1829.7" y="4116.21" width="11.03" height="5.029" style="fill:white;fill-rule:nonzero;"/>
        </g>
        <g transform="matrix(4.47831,0,0,4.47831,-4403.35,-17347.4)">
            <rect x="1265.41" y="4116.21" width="11.03" height="5.029" style="fill:white;fill-rule:nonzero;"/>
        </g>
        <g transform="matrix(4.47831,0,0,4.47831,-4403.35,-17347.4)">
            <rect x="1288.75" y="4113.69" width="11.03" height="10.07" style="fill:white;fill-rule:nonzero;"/>
        </g>
        <g transform="matrix(4.47831,0,0,4.47831,-4403.35,-17347.4)">
            <rect x="1345.18" y="4116.21" width="44.11" height="5.029" style="fill:white;fill-rule:nonzero;"/>
        </g>
        <g transform="matrix(4.47831,0,0,4.47831,-4403.35,-17347.4)">
            <rect x="1401.61" y="4116.21" width="11.03" height="5.029" style="fill:white;fill-rule:nonzero;"/>
        </g>
        <g transform="matrix(4.47831,0,0,4.47831,-4403.35,-17347.4)">
            <rect x="1309.73" y="4116.21" width="11.03" height="5.029" style="fill:white;fill-rule:nonzero;"/>
        </g>
        <g transform="matrix(4.47831,0,0,4.47831,-4403.35,-17347.4)">
            <rect x="983.263" y="4113.69" width="11.028" height="10.07" style="fill:white;fill-rule:nonzero;"/>
        </g>
        <g transform="matrix(4.47831,0,0,4.47831,-4403.35,-17347.4)">
            <rect x="1006.61" y="4113.69" width="11.03" height="10.07" style="fill:white;fill-rule:nonzero;"/>
        </g>
        <g transform="matrix(4.47831,0,0,4.47831,-4403.35,-17347.4)">
            <rect x="1096.12" y="4113.69" width="11.03" height="10.07" style="fill:white;fill-rule:nonzero;"/>
        </g>
        <g transform="matrix(4.47831,0,0,4.47831,-4403.35,-17347.4)">
            <rect x="1119.47" y="4116.21" width="132.73" height="5.029" style="fill:white;fill-rule:nonzero;"/>
        </g>
        <g transform="matrix(4.47831,0,0,4.47831,-4403.35,-17347.4)">
            <rect x="1029.76" y="4116.21" width="132.73" height="5.029" style="fill:white;fill-rule:nonzero;"/>
        </g>
    </g>
</svg>
