<?xml version="1.0" encoding="UTF-8" standalone="no"?>
<!DOCTYPE svg PUBLIC "-//W3C//DTD SVG 1.1//EN" "http://www.w3.org/Graphics/SVG/1.1/DTD/svg11.dtd">
<svg width="100%" height="100%" viewBox="0 0 3840 46" version="1.1" xmlns="http://www.w3.org/2000/svg" xmlns:xlink="http://www.w3.org/1999/xlink" xml:space="preserve" xmlns:serif="http://www.serif.com/" style="fill-rule:evenodd;clip-rule:evenodd;stroke-linejoin:round;stroke-miterlimit:2;">
    <g transform="matrix(1,0,0,1,0,-1034.71)">
        <g transform="matrix(4.48375,0,0,4.48375,-4413.37,-16143.5)">
            <rect x="1180.61" y="3831.24" width="21.51" height="10.07" style="fill:white;fill-rule:nonzero;"/>
        </g>
        <g transform="matrix(4.48375,0,0,4.48375,-4413.37,-16143.5)">
            <rect x="1026.28" y="3831.24" width="43.01" height="10.07" style="fill:white;fill-rule:nonzero;"/>
        </g>
        <g transform="matrix(4.48375,0,0,4.48375,-4413.37,-16143.5)">
            <rect x="1313.43" y="3831.24" width="86.03" height="10.07" style="fill:white;fill-rule:nonzero;"/>
        </g>
        <g transform="matrix(4.48375,0,0,4.48375,-4413.37,-16143.5)">
            <rect x="1423.49" y="3831.24" width="43.01" height="10.07" style="fill:white;fill-rule:nonzero;"/>
        </g>
        <g transform="matrix(4.48375,0,0,4.48375,-4413.37,-16143.5)">
            <rect x="1598.07" y="3831.24" width="21.5" height="10.07" style="fill:white;fill-rule:nonzero;"/>
        </g>
        <g transform="matrix(4.48375,0,0,4.48375,-4413.37,-16143.5)">
            <rect x="1510.78" y="3831.24" width="21.5" height="10.07" style="fill:white;fill-rule:nonzero;"/>
        </g>
        <g transform="matrix(4.48375,0,0,4.48375,-4413.37,-16143.5)">
            <rect x="1643.6" y="3831.24" width="86.03" height="10.07" style="fill:white;fill-rule:nonzero;"/>
        </g>
        <g transform="matrix(4.48375,0,0,4.48375,-4413.37,-16143.5)">
            <rect x="984.304" y="3831.21" width="856.426" height="3" style="fill:white;fill-rule:nonzero;"/>
        </g>
    </g>
</svg>
