<?xml version="1.0" encoding="UTF-8" standalone="no"?>
<!DOCTYPE svg PUBLIC "-//W3C//DTD SVG 1.1//EN" "http://www.w3.org/Graphics/SVG/1.1/DTD/svg11.dtd">
<svg width="100%" height="100%" viewBox="0 0 3847 47" version="1.1" xmlns="http://www.w3.org/2000/svg" xmlns:xlink="http://www.w3.org/1999/xlink" xml:space="preserve" xmlns:serif="http://www.serif.com/" style="fill-rule:evenodd;clip-rule:evenodd;stroke-miterlimit:2;">
    <g transform="matrix(1,0,0,1,3.3541,-1072.2)">
        <g transform="matrix(4.47831,0,0,4.47831,-4403.35,-16716.5)">
            <path d="M983.263,3972.94L1840.73,3972.94" style="fill:none;stroke:white;stroke-width:0.67px;"/>
        </g>
        <g transform="matrix(4.47831,0,0,4.47831,-4403.35,-16716.5)">
            <path d="M1026.28,3981.83L1112.88,3981.83" style="fill:none;stroke:white;stroke-width:0.67px;"/>
        </g>
        <g transform="matrix(4.47831,0,0,4.47831,-4403.35,-16716.5)">
            <path d="M1017.64,3981.83L996.708,3981.83" style="fill:none;stroke:white;stroke-width:0.67px;"/>
        </g>
        <g transform="matrix(4.47831,0,0,4.47831,-4403.35,-16716.5)">
            <path d="M1132.88,3981.83L1149.9,3981.83" style="fill:none;stroke:white;stroke-width:0.67px;"/>
        </g>
        <g transform="matrix(4.47831,0,0,4.47831,-4403.35,-16716.5)">
            <path d="M1163.59,3981.83L1180.61,3981.83" style="fill:none;stroke:white;stroke-width:0.67px;"/>
        </g>
        <g transform="matrix(4.47831,0,0,4.47831,-4403.35,-16716.5)">
            <path d="M1194.3,3981.83L1211.32,3981.83" style="fill:none;stroke:white;stroke-width:0.67px;"/>
        </g>
        <g transform="matrix(4.47831,0,0,4.47831,-4403.35,-16716.5)">
            <path d="M1225.01,3981.83L1242.03,3981.83" style="fill:none;stroke:white;stroke-width:0.67px;"/>
        </g>
        <g transform="matrix(4.47831,0,0,4.47831,-4403.35,-16716.5)">
            <path d="M1309.73,3981.83L1313.81,3981.83" style="fill:none;stroke:white;stroke-width:0.67px;"/>
        </g>
        <g transform="matrix(4.47831,0,0,4.47831,-4403.35,-16716.5)">
            <path d="M1321.98,3981.83L1326.07,3981.83" style="fill:none;stroke:white;stroke-width:0.67px;"/>
        </g>
        <g transform="matrix(4.47831,0,0,4.47831,-4403.35,-16716.5)">
            <path d="M1352.69,3981.83L1356.78,3981.83" style="fill:none;stroke:white;stroke-width:0.67px;"/>
        </g>
        <g transform="matrix(4.47831,0,0,4.47831,-4403.35,-16716.5)">
            <path d="M1383.4,3981.83L1387.49,3981.83" style="fill:none;stroke:white;stroke-width:0.67px;"/>
        </g>
        <g transform="matrix(4.47831,0,0,4.47831,-4403.35,-16716.5)">
            <path d="M1414.11,3981.83L1418.2,3981.83" style="fill:none;stroke:white;stroke-width:0.67px;"/>
        </g>
        <g transform="matrix(4.47831,0,0,4.47831,-4403.35,-16716.5)">
            <path d="M1444.82,3981.83L1448.91,3981.83" style="fill:none;stroke:white;stroke-width:0.67px;"/>
        </g>
        <g transform="matrix(4.47831,0,0,4.47831,-4403.35,-16716.5)">
            <path d="M1475.53,3981.83L1479.62,3981.83" style="fill:none;stroke:white;stroke-width:0.67px;"/>
        </g>
        <g transform="matrix(4.47831,0,0,4.47831,-4403.35,-16716.5)">
            <path d="M1506.24,3981.83L1510.32,3981.83" style="fill:none;stroke:white;stroke-width:0.67px;"/>
        </g>
        <g transform="matrix(4.47831,0,0,4.47831,-4403.35,-16716.5)">
            <path d="M1832.46,3981.83L1836.55,3981.83" style="fill:none;stroke:white;stroke-width:0.67px;"/>
        </g>
        <g transform="matrix(4.47831,0,0,4.47831,-4403.35,-16716.5)">
            <path d="M1536.95,3981.83L1766.75,3981.83" style="fill:none;stroke:white;stroke-width:0.67px;"/>
        </g>
    </g>
</svg>
