<?xml version="1.0" encoding="UTF-8" standalone="no"?>
<!DOCTYPE svg PUBLIC "-//W3C//DTD SVG 1.1//EN" "http://www.w3.org/Graphics/SVG/1.1/DTD/svg11.dtd">
<svg width="100%" height="100%" viewBox="0 0 3847 77" version="1.1" xmlns="http://www.w3.org/2000/svg" xmlns:xlink="http://www.w3.org/1999/xlink" xml:space="preserve" xmlns:serif="http://www.serif.com/" style="fill-rule:evenodd;clip-rule:evenodd;stroke-miterlimit:2;">
    <g transform="matrix(1,0,0,1,3.3541,-1071.45)">
        <g transform="matrix(4.49504,0,0,4.49504,-477.571,-17403.9)">
            <path d="M106.244,4118.73L315.517,4118.73" style="fill:none;stroke:white;stroke-width:0.67px;"/>
        </g>
        <g transform="matrix(4.49504,0,0,4.49504,-477.571,-17403.9)">
            <rect x="314.559" y="4110.17" width="4.086" height="17.11" style="fill:white;fill-rule:nonzero;"/>
        </g>
        <g transform="matrix(4.49504,0,0,4.49504,-477.571,-17403.9)">
            <rect x="322.793" y="4110.17" width="4.085" height="17.11" style="fill:white;fill-rule:nonzero;"/>
        </g>
        <g transform="matrix(4.49504,0,0,4.49504,-477.571,-17403.9)">
            <rect x="331.027" y="4110.17" width="4.085" height="17.11" style="fill:white;fill-rule:nonzero;"/>
        </g>
        <g transform="matrix(4.49504,0,0,4.49504,-477.571,-17403.9)">
            <rect x="601.538" y="4110.17" width="4.085" height="17.11" style="fill:white;fill-rule:nonzero;"/>
        </g>
        <g transform="matrix(4.49504,0,0,4.49504,-477.571,-17403.9)">
            <rect x="609.772" y="4110.17" width="4.085" height="17.11" style="fill:white;fill-rule:nonzero;"/>
        </g>
        <g transform="matrix(4.49504,0,0,4.49504,-477.571,-17403.9)">
            <rect x="618.006" y="4110.17" width="4.085" height="17.11" style="fill:white;fill-rule:nonzero;"/>
        </g>
        <g transform="matrix(4.49504,0,0,4.49504,-477.571,-17403.9)">
            <rect x="626.24" y="4110.17" width="4.085" height="17.11" style="fill:white;fill-rule:nonzero;"/>
        </g>
        <g transform="matrix(4.49504,0,0,4.49504,-477.571,-17403.9)">
            <rect x="634.474" y="4110.17" width="4.085" height="17.11" style="fill:white;fill-rule:nonzero;"/>
        </g>
        <g transform="matrix(4.49504,0,0,4.49504,-477.571,-17403.9)">
            <path d="M335.112,4118.73L459.006,4118.73" style="fill:none;stroke:white;stroke-width:0.67px;"/>
        </g>
        <g transform="matrix(4.49504,0,0,4.49504,-477.571,-17403.9)">
            <rect x="458.049" y="4110.17" width="4.085" height="17.11" style="fill:white;fill-rule:nonzero;"/>
        </g>
        <g transform="matrix(4.49504,0,0,4.49504,-477.571,-17403.9)">
            <rect x="474.517" y="4110.17" width="4.085" height="17.11" style="fill:white;fill-rule:nonzero;"/>
        </g>
        <g transform="matrix(4.49504,0,0,4.49504,-477.571,-17403.9)">
            <path d="M478.602,4118.73L602.496,4118.73" style="fill:none;stroke:white;stroke-width:0.67px;"/>
        </g>
        <g transform="matrix(4.49504,0,0,4.49504,-477.571,-17403.9)">
            <path d="M636.517,4118.73L960.519,4118.73" style="fill:none;stroke:white;stroke-width:0.67px;"/>
        </g>
    </g>
</svg>
