<?xml version="1.0" encoding="UTF-8" standalone="no"?>
<!DOCTYPE svg PUBLIC "-//W3C//DTD SVG 1.1//EN" "http://www.w3.org/Graphics/SVG/1.1/DTD/svg11.dtd">
<svg width="100%" height="100%" viewBox="0 0 3847 99" version="1.1" xmlns="http://www.w3.org/2000/svg" xmlns:xlink="http://www.w3.org/1999/xlink" xml:space="preserve" xmlns:serif="http://www.serif.com/" style="fill-rule:evenodd;clip-rule:evenodd;stroke-miterlimit:2;">
    <g transform="matrix(1,0,0,1,3.3541,-1031.85)">
        <g transform="matrix(4.49617,0,0,4.49617,-477.691,-3773.35)">
            <g transform="matrix(1,0,0,1,0,-2823.1)">
                <path d="M106.244,3894.05L245.266,3894.05L264.136,3912.92L744.258,3912.92L763.319,3893.86L960.304,3893.86" style="fill:none;stroke:white;stroke-width:0.67px;"/>
            </g>
            <g transform="matrix(1,0,0,1,0,-2823.1)">
                <path d="M272.283,3892.34L284.878,3904.94L315.517,3904.94L302.751,3892.17L272.283,3892.34Z" style="fill:white;fill-rule:nonzero;stroke:black;stroke-width:0.67px;stroke-linejoin:round;"/>
            </g>
            <g transform="matrix(1,0,0,1,0,-2823.1)">
                <path d="M323.687,3892.34L336.283,3904.94L366.921,3904.94L354.155,3892.17L323.687,3892.34Z" style="fill:white;fill-rule:nonzero;stroke:black;stroke-width:0.67px;stroke-linejoin:round;"/>
            </g>
            <g transform="matrix(1,0,0,1,0,-2823.1)">
                <path d="M375.091,3892.34L387.687,3904.94L418.325,3904.94L405.559,3892.17L375.091,3892.34Z" style="fill:white;fill-rule:nonzero;stroke:black;stroke-width:0.67px;stroke-linejoin:round;"/>
            </g>
            <g transform="matrix(1,0,0,1,0,-2823.1)">
                <path d="M426.496,3892.34L439.091,3904.94L469.729,3904.94L456.963,3892.17L426.496,3892.34Z" style="fill:white;fill-rule:nonzero;stroke:black;stroke-width:0.67px;stroke-linejoin:round;"/>
            </g>
        </g>
    </g>
</svg>
