<?xml version="1.0" encoding="UTF-8" standalone="no"?>
<!DOCTYPE svg PUBLIC "-//W3C//DTD SVG 1.1//EN" "http://www.w3.org/Graphics/SVG/1.1/DTD/svg11.dtd">
<svg width="100%" height="100%" viewBox="0 0 3847 119" version="1.1" xmlns="http://www.w3.org/2000/svg" xmlns:xlink="http://www.w3.org/1999/xlink" xml:space="preserve" xmlns:serif="http://www.serif.com/" style="fill-rule:evenodd;clip-rule:evenodd;stroke-miterlimit:2;">
    <g transform="matrix(1,0,0,1,3.3541,-1021.63)">
        <g transform="matrix(4.47831,0,0,4.47831,-4403.35,-3755.72)">
            <g transform="matrix(1,0,0,1,0,-2959.9)">
                <path d="M983.263,4040.6L1059.01,4040.6L1067.47,4032.13L1168.47,4032.13L1187.52,4051.18L1450.05,4051.18L1459.96,4041.28L1547.09,4041.28L1560.95,4027.42L1613.96,4027.42L1628.78,4042.23L1717.13,4042.23L1727.27,4052.37L1811.69,4052.37L1821.97,4042.09L1840.73,4042.09" style="fill:none;stroke:white;stroke-width:0.67px;"/>
            </g>
            <g transform="matrix(1,0,0,1,0,-2959.9)">
                <path d="M1188.37,4036.34L1195.33,4043.31L1209.13,4043.31L1202.24,4036.42L1188.37,4036.34Z" style="fill:white;fill-rule:nonzero;"/>
            </g>
            <g transform="matrix(1,0,0,1,0,-2959.9)">
                <path d="M1627.64,4027.04L1634.61,4034L1648.41,4034L1641.52,4027.11L1627.64,4027.04Z" style="fill:white;fill-rule:nonzero;"/>
            </g>
            <g transform="matrix(1,0,0,1,0,-2959.9)">
                <path d="M1087.77,4039.83L1080.81,4046.79L1067.01,4046.79L1073.9,4039.9L1087.77,4039.83Z" style="fill:white;fill-rule:nonzero;"/>
            </g>
            <g transform="matrix(1,0,0,1,0,-2959.9)">
                <path d="M1814.95,4038.8L1807.98,4045.77L1794.18,4045.77L1801.08,4038.88L1814.95,4038.8Z" style="fill:white;fill-rule:nonzero;"/>
            </g>
        </g>
    </g>
</svg>
