<?xml version="1.0" encoding="UTF-8" standalone="no"?>
<!DOCTYPE svg PUBLIC "-//W3C//DTD SVG 1.1//EN" "http://www.w3.org/Graphics/SVG/1.1/DTD/svg11.dtd">
<svg width="100%" height="100%" viewBox="0 0 1024 636" version="1.1" xmlns="http://www.w3.org/2000/svg" xmlns:xlink="http://www.w3.org/1999/xlink" xml:space="preserve" xmlns:serif="http://www.serif.com/" style="fill-rule:evenodd;clip-rule:evenodd;stroke-linecap:round;stroke-linejoin:round;stroke-miterlimit:1.5;">
    <g transform="matrix(2.40679,0,0,2.52484,-1585.76,-940.515)">
        <rect x="658.867" y="372.505" width="425.591" height="251.897" style="stroke:white;stroke-width:8.11px;"/>
    </g>
    <g transform="matrix(1,0,0,1,-469.675,-228.26)">
        <g transform="matrix(64,0,0,64,499.675,367.604)">
            <path d="M0.204,-0C0.177,-0 0.152,-0.007 0.13,-0.02C0.107,-0.033 0.089,-0.051 0.076,-0.074C0.063,-0.096 0.056,-0.121 0.056,-0.148L0.056,-0.572C0.056,-0.599 0.063,-0.624 0.076,-0.647C0.089,-0.669 0.107,-0.687 0.13,-0.7C0.152,-0.713 0.177,-0.72 0.204,-0.72L0.774,-0.72L0.774,-0.564L0.244,-0.564C0.233,-0.564 0.225,-0.561 0.22,-0.556C0.214,-0.551 0.211,-0.542 0.211,-0.531L0.211,-0.189C0.211,-0.178 0.214,-0.17 0.22,-0.165C0.225,-0.159 0.233,-0.156 0.244,-0.156L0.774,-0.156L0.774,-0L0.204,-0Z" style="fill:white;fill-rule:nonzero;"/>
        </g>
        <g transform="matrix(64,0,0,64,552.283,367.604)">
            <path d="M0.202,-0C0.175,-0 0.15,-0.007 0.128,-0.02C0.105,-0.033 0.087,-0.051 0.074,-0.074C0.061,-0.096 0.054,-0.121 0.054,-0.148L0.054,-0.572C0.054,-0.599 0.061,-0.624 0.074,-0.646C0.087,-0.669 0.105,-0.687 0.128,-0.7C0.15,-0.713 0.175,-0.72 0.202,-0.72L0.626,-0.72C0.653,-0.72 0.677,-0.713 0.7,-0.7C0.722,-0.687 0.74,-0.669 0.754,-0.646C0.767,-0.624 0.774,-0.599 0.774,-0.572L0.774,-0.148C0.774,-0.121 0.767,-0.096 0.754,-0.074C0.74,-0.051 0.722,-0.033 0.7,-0.02C0.677,-0.007 0.653,-0 0.626,-0L0.202,-0ZM0.209,-0.156L0.617,-0.156L0.617,-0.564L0.209,-0.564L0.209,-0.156Z" style="fill:white;fill-rule:nonzero;"/>
        </g>
        <g transform="matrix(64,0,0,64,605.275,367.604)">
            <path d="M0.058,-0L0.058,-0.72L0.629,-0.72C0.656,-0.72 0.681,-0.713 0.703,-0.7C0.726,-0.687 0.744,-0.669 0.758,-0.646C0.771,-0.624 0.778,-0.599 0.778,-0.572L0.778,-0.148C0.778,-0.121 0.771,-0.096 0.758,-0.074C0.744,-0.051 0.726,-0.033 0.703,-0.02C0.681,-0.007 0.656,-0 0.629,-0L0.058,-0ZM0.212,-0.156L0.621,-0.156L0.621,-0.564L0.212,-0.564L0.212,-0.156Z" style="fill:white;fill-rule:nonzero;"/>
        </g>
        <g transform="matrix(64,0,0,64,658.651,367.604)">
            <path d="M0.058,-0L0.058,-0.72L0.723,-0.72L0.723,-0.564L0.215,-0.564L0.215,-0.438L0.624,-0.438L0.624,-0.282L0.215,-0.282L0.215,-0.156L0.723,-0.156L0.723,-0L0.058,-0Z" style="fill:white;fill-rule:nonzero;"/>
        </g>
        <g transform="matrix(64,0,0,64,499.675,443.604)">
            <path d="M0.204,-0C0.177,-0 0.152,-0.007 0.13,-0.02C0.107,-0.033 0.089,-0.051 0.076,-0.074C0.063,-0.096 0.056,-0.121 0.056,-0.148L0.056,-0.572C0.056,-0.599 0.063,-0.624 0.076,-0.647C0.089,-0.669 0.107,-0.687 0.13,-0.7C0.152,-0.713 0.177,-0.72 0.204,-0.72L0.774,-0.72L0.774,-0.564L0.244,-0.564C0.233,-0.564 0.225,-0.561 0.22,-0.556C0.214,-0.551 0.211,-0.542 0.211,-0.531L0.211,-0.189C0.211,-0.178 0.214,-0.17 0.22,-0.165C0.225,-0.159 0.233,-0.156 0.244,-0.156L0.774,-0.156L0.774,-0L0.204,-0Z" style="fill:white;fill-rule:nonzero;"/>
        </g>
        <g transform="matrix(64,0,0,64,552.283,443.604)">
            <path d="M0.057,-0L0.057,-0.72L0.212,-0.72L0.212,-0.438L0.637,-0.438L0.637,-0.72L0.792,-0.72L0.792,-0L0.637,-0L0.637,-0.282L0.212,-0.282L0.212,-0L0.057,-0Z" style="fill:white;fill-rule:nonzero;"/>
        </g>
        <g transform="matrix(64,0,0,64,606.747,443.604)">
            <path d="M0.058,-0L0.058,-0.572C0.058,-0.599 0.065,-0.624 0.078,-0.646C0.091,-0.669 0.109,-0.687 0.132,-0.7C0.154,-0.713 0.179,-0.72 0.206,-0.72L0.629,-0.72C0.656,-0.72 0.681,-0.713 0.703,-0.7C0.726,-0.687 0.744,-0.669 0.758,-0.646C0.771,-0.624 0.778,-0.599 0.778,-0.572L0.778,-0L0.621,-0L0.621,-0.232L0.213,-0.232L0.213,-0L0.058,-0ZM0.213,-0.388L0.621,-0.388L0.621,-0.564L0.213,-0.564L0.213,-0.388Z" style="fill:white;fill-rule:nonzero;"/>
        </g>
        <g transform="matrix(64,0,0,64,660.251,443.604)">
            <path d="M0.057,-0L0.057,-0.721L0.212,-0.721L0.212,-0.156L0.777,-0.156L0.777,-0L0.057,-0Z" style="fill:white;fill-rule:nonzero;"/>
        </g>
        <g transform="matrix(64,0,0,64,710.107,443.604)">
            <path d="M0.057,-0L0.057,-0.721L0.212,-0.721L0.212,-0.156L0.777,-0.156L0.777,-0L0.057,-0Z" style="fill:white;fill-rule:nonzero;"/>
        </g>
        <g transform="matrix(64,0,0,64,759.963,443.604)">
            <path d="M0.058,-0L0.058,-0.72L0.723,-0.72L0.723,-0.564L0.215,-0.564L0.215,-0.438L0.624,-0.438L0.624,-0.282L0.215,-0.282L0.215,-0.156L0.723,-0.156L0.723,-0L0.058,-0Z" style="fill:white;fill-rule:nonzero;"/>
        </g>
        <g transform="matrix(64,0,0,64,808.987,443.604)">
            <path d="M0.056,-0L0.056,-0.72L0.216,-0.72L0.619,-0.24L0.619,-0.72L0.776,-0.72L0.776,-0L0.616,-0L0.211,-0.482L0.211,-0L0.056,-0Z" style="fill:white;fill-rule:nonzero;"/>
        </g>
        <g transform="matrix(64,0,0,64,862.235,443.604)">
            <path d="M0.204,-0C0.177,-0 0.152,-0.007 0.13,-0.02C0.107,-0.033 0.089,-0.051 0.076,-0.074C0.063,-0.096 0.056,-0.121 0.056,-0.148L0.056,-0.572C0.056,-0.599 0.063,-0.624 0.076,-0.646C0.089,-0.669 0.107,-0.687 0.13,-0.7C0.152,-0.713 0.177,-0.72 0.204,-0.72L0.627,-0.72C0.654,-0.72 0.679,-0.713 0.701,-0.7C0.724,-0.687 0.742,-0.669 0.756,-0.646C0.769,-0.624 0.776,-0.599 0.776,-0.572L0.776,-0.504L0.619,-0.504L0.619,-0.564L0.211,-0.564L0.211,-0.156L0.619,-0.156L0.619,-0.264L0.463,-0.264L0.463,-0.42L0.776,-0.42L0.776,-0.148C0.776,-0.121 0.769,-0.096 0.756,-0.074C0.742,-0.051 0.724,-0.033 0.701,-0.02C0.679,-0.007 0.654,-0 0.627,-0L0.204,-0Z" style="fill:white;fill-rule:nonzero;"/>
        </g>
        <g transform="matrix(64,0,0,64,915.355,443.604)">
            <path d="M0.058,-0L0.058,-0.72L0.723,-0.72L0.723,-0.564L0.215,-0.564L0.215,-0.438L0.624,-0.438L0.624,-0.282L0.215,-0.282L0.215,-0.156L0.723,-0.156L0.723,-0L0.058,-0Z" style="fill:white;fill-rule:nonzero;"/>
        </g>
        <g transform="matrix(64,0,0,64,964.379,443.604)">
            <path d="M0.202,-0C0.175,-0 0.15,-0.007 0.128,-0.02C0.105,-0.033 0.087,-0.051 0.074,-0.074C0.061,-0.096 0.054,-0.121 0.054,-0.148L0.054,-0.215L0.209,-0.215L0.209,-0.156L0.617,-0.156L0.617,-0.282L0.202,-0.282C0.175,-0.282 0.15,-0.289 0.128,-0.302C0.105,-0.315 0.087,-0.333 0.074,-0.356C0.061,-0.378 0.054,-0.403 0.054,-0.43L0.054,-0.572C0.054,-0.599 0.061,-0.624 0.074,-0.646C0.087,-0.669 0.105,-0.687 0.128,-0.7C0.15,-0.713 0.175,-0.72 0.202,-0.72L0.626,-0.72C0.653,-0.72 0.677,-0.713 0.7,-0.7C0.722,-0.687 0.74,-0.669 0.754,-0.646C0.767,-0.624 0.774,-0.599 0.774,-0.572L0.774,-0.505L0.617,-0.505L0.617,-0.564L0.209,-0.564L0.209,-0.438L0.626,-0.438C0.653,-0.438 0.677,-0.431 0.7,-0.418C0.722,-0.405 0.74,-0.387 0.754,-0.364C0.767,-0.342 0.774,-0.317 0.774,-0.29L0.774,-0.148C0.774,-0.121 0.767,-0.096 0.754,-0.074C0.74,-0.051 0.722,-0.033 0.7,-0.02C0.677,-0.007 0.653,-0 0.626,-0L0.202,-0Z" style="fill:white;fill-rule:nonzero;"/>
        </g>
    </g>
    <g transform="matrix(1.7146,0,0,1.73259,-2154.72,-4511.43)">
        <path d="M1256.69,2658.36L1311.18,2603.86L1256.69,2603.86L1256.69,2658.36Z" style="fill:white;fill-rule:nonzero;"/>
    </g>
    <g transform="matrix(1.7146,0,0,1.73259,-2057.09,-4511.43)">
        <path d="M1797.15,2916.45L1742.66,2970.94L1797.15,2970.94L1797.15,2916.45Z" style="fill:white;fill-rule:nonzero;"/>
    </g>
    <g transform="matrix(3.26131,0,0,3.26131,-905.792,-557.72)">
        <g transform="matrix(1,0,0,1,-891.055,0)">
            <path d="M1367.51,327.17L1346.73,339.17L1459.38,339.17L1438.6,327.17L1367.51,327.17Z" style="fill:rgb(255,0,0);fill-rule:nonzero;stroke:rgb(255,0,0);stroke-width:0.31px;stroke-linecap:butt;stroke-miterlimit:2;"/>
        </g>
        <g transform="matrix(1,0,0,1,-891.055,0)">
            <path d="M1398.06,256.949L1398.06,232.949L1341.73,330.51L1362.51,318.51L1398.06,256.949Z" style="fill:rgb(255,0,0);fill-rule:nonzero;stroke:rgb(255,0,0);stroke-width:0.31px;stroke-linecap:butt;stroke-miterlimit:2;"/>
        </g>
        <g transform="matrix(1,0,0,1,-891.055,0)">
            <path d="M1408.06,256.95L1443.6,318.51L1464.38,330.51L1408.06,232.95L1408.06,256.95Z" style="fill:rgb(255,0,0);fill-rule:nonzero;stroke:rgb(255,0,0);stroke-width:0.31px;stroke-linecap:butt;stroke-miterlimit:2;"/>
        </g>
    </g>
</svg>
