<?xml version="1.0" encoding="UTF-8" standalone="no"?>
<!DOCTYPE svg PUBLIC "-//W3C//DTD SVG 1.1//EN" "http://www.w3.org/Graphics/SVG/1.1/DTD/svg11.dtd">
<svg width="100%" height="100%" viewBox="0 0 401 348" version="1.1" xmlns="http://www.w3.org/2000/svg" xmlns:xlink="http://www.w3.org/1999/xlink" xml:space="preserve" xmlns:serif="http://www.serif.com/" style="fill-rule:evenodd;clip-rule:evenodd;stroke-linejoin:round;stroke-miterlimit:2;">
    <g transform="matrix(1,0,0,1,-563.5,-201.5)">
        <g transform="matrix(3.26131,0,0,3.26131,-905.792,-557.72)">
            <g transform="matrix(1,0,0,1,-891.055,0)">
                <path d="M1367.51,327.17L1346.73,339.17L1459.38,339.17L1438.6,327.17L1367.51,327.17Z" style="fill:rgb(255,0,0);fill-rule:nonzero;stroke:rgb(255,0,0);stroke-width:0.31px;"/>
            </g>
            <g transform="matrix(1,0,0,1,-891.055,0)">
                <path d="M1398.06,256.949L1398.06,232.949L1341.73,330.51L1362.51,318.51L1398.06,256.949Z" style="fill:rgb(255,0,0);fill-rule:nonzero;stroke:rgb(255,0,0);stroke-width:0.31px;"/>
            </g>
            <g transform="matrix(1,0,0,1,-891.055,0)">
                <path d="M1408.06,256.95L1443.6,318.51L1464.38,330.51L1408.06,232.95L1408.06,256.95Z" style="fill:rgb(255,0,0);fill-rule:nonzero;stroke:rgb(255,0,0);stroke-width:0.31px;"/>
            </g>
        </g>
    </g>
</svg>
