<?xml version="1.0" encoding="UTF-8" standalone="no"?>
<svg width="100%" height="100%" viewBox="0 0 620 220" version="1.1" xmlns="http://www.w3.org/2000/svg" xmlns:xlink="http://www.w3.org/1999/xlink">
  <text x="310" y="30" text-anchor="middle" fill="white" font-size="20" font-family="sans-serif">A Byte (8 Bits)</text>

  <rect x="20" y="60" width="60" height="60" rx="8" fill="none" stroke="white" stroke-width="3" />
  <text x="50" y="100" text-anchor="middle" fill="white" font-size="26" font-family="monospace">0</text>

  <rect x="90" y="60" width="60" height="60" rx="8" fill="rgb(27,212,215)" stroke="rgb(27,212,215)" stroke-width="3" />
  <text x="120" y="100" text-anchor="middle" fill="rgb(5,0,20)" font-size="26" font-family="monospace">1</text>

  <rect x="160" y="60" width="60" height="60" rx="8" fill="none" stroke="white" stroke-width="3" />
  <text x="190" y="100" text-anchor="middle" fill="white" font-size="26" font-family="monospace">0</text>

  <rect x="230" y="60" width="60" height="60" rx="8" fill="none" stroke="white" stroke-width="3" />
  <text x="260" y="100" text-anchor="middle" fill="white" font-size="26" font-family="monospace">0</text>

  <rect x="300" y="60" width="60" height="60" rx="8" fill="none" stroke="white" stroke-width="3" />
  <text x="330" y="100" text-anchor="middle" fill="white" font-size="26" font-family="monospace">0</text>

  <rect x="370" y="60" width="60" height="60" rx="8" fill="none" stroke="white" stroke-width="3" />
  <text x="400" y="100" text-anchor="middle" fill="white" font-size="26" font-family="monospace">0</text>

  <rect x="440" y="60" width="60" height="60" rx="8" fill="none" stroke="white" stroke-width="3" />
  <text x="470" y="100" text-anchor="middle" fill="white" font-size="26" font-family="monospace">0</text>

  <rect x="510" y="60" width="60" height="60" rx="8" fill="rgb(27,212,215)" stroke="rgb(27,212,215)" stroke-width="3" />
  <text x="540" y="100" text-anchor="middle" fill="rgb(5,0,20)" font-size="26" font-family="monospace">1</text>

  <text x="310" y="170" text-anchor="middle" fill="white" font-size="20" font-family="monospace">01000001 = 65 = 'A'</text>
</svg>
