<?xml version="1.0" encoding="UTF-8" standalone="no"?>
<!DOCTYPE svg PUBLIC "-//W3C//DTD SVG 1.1//EN" "http://www.w3.org/Graphics/SVG/1.1/DTD/svg11.dtd">
<svg width="100%" height="100%" viewBox="0 0 375 377" version="1.1" xmlns="http://www.w3.org/2000/svg" xmlns:xlink="http://www.w3.org/1999/xlink" xml:space="preserve" xmlns:serif="http://www.serif.com/" style="fill-rule:evenodd;clip-rule:evenodd;stroke-linejoin:round;stroke-miterlimit:2;">
    <g transform="matrix(1,0,0,1,-593.999423,-205.267599)">
        <g transform="matrix(1.084201,0,0,1.084201,338.580184,-36.083038)">
            <g transform="matrix(1,0,0,1,-597,222)">
                <rect x="863.104" y="32.479" width="283.486" height="283.484" style="fill:rgb(19,81,40);fill-rule:nonzero;"/>
            </g>
            <g transform="matrix(1,0,0,1,-597,222)">
                <path d="M1091.63,289.462L918.058,289.462C902.344,289.462 889.605,276.722 889.605,261.008L889.605,87.434C889.605,71.719 902.344,58.98 918.058,58.98L1091.63,58.98C1107.35,58.98 1120.09,71.719 1120.09,87.434L1120.09,261.008C1120.09,276.722 1107.35,289.462 1091.63,289.462Z" style="fill:rgb(210,211,212);fill-rule:nonzero;"/>
            </g>
            <g transform="matrix(1,0,0,1,-597,222)">
                <path d="M876.098,41.142C876.098,43.534 874.159,45.473 871.766,45.473C869.375,45.473 867.435,43.534 867.435,41.142C867.435,38.75 869.375,36.81 871.766,36.81C874.159,36.81 876.098,38.75 876.098,41.142Z" style="fill:white;fill-rule:nonzero;"/>
            </g>
            <g transform="matrix(1,0,0,1,-597,222)">
                <path d="M876.098,307.3C876.098,309.692 874.159,311.631 871.766,311.631C869.375,311.631 867.435,309.692 867.435,307.3C867.435,304.907 869.375,302.969 871.766,302.969C874.159,302.969 876.098,304.907 876.098,307.3Z" style="fill:white;fill-rule:nonzero;"/>
            </g>
            <g transform="matrix(1,0,0,1,-597,222)">
                <path d="M1142.26,41.142C1142.26,43.534 1140.32,45.473 1137.92,45.473C1135.53,45.473 1133.59,43.534 1133.59,41.142C1133.59,38.75 1135.53,36.81 1137.92,36.81C1140.32,36.81 1142.26,38.75 1142.26,41.142Z" style="fill:white;fill-rule:nonzero;"/>
            </g>
            <g transform="matrix(1,0,0,1,-597,222)">
                <path d="M1142.26,307.3C1142.26,309.692 1140.32,311.631 1137.92,311.631C1135.53,311.631 1133.59,309.692 1133.59,307.3C1133.59,304.907 1135.53,302.969 1137.92,302.969C1140.32,302.969 1142.26,304.907 1142.26,307.3Z" style="fill:white;fill-rule:nonzero;"/>
            </g>
            <g transform="matrix(1,0,0,1,-597,222)">
                <rect x="863.104" y="19.703" width="10.472" height="12.776" style="fill:rgb(19,81,40);fill-rule:nonzero;"/>
            </g>
            <g transform="matrix(1,0,0,1,-597,222)">
                <rect x="866.079" y="0.607" width="4.522" height="19.096" style="fill:rgb(19,81,40);fill-rule:nonzero;"/>
            </g>
            <g transform="matrix(1,0,0,1,-597,222)">
                <rect x="878.271" y="19.703" width="10.473" height="12.776" style="fill:rgb(19,81,40);fill-rule:nonzero;"/>
            </g>
            <g transform="matrix(1,0,0,1,-597,222)">
                <rect x="881.246" y="0.607" width="4.522" height="19.096" style="fill:rgb(19,81,40);fill-rule:nonzero;"/>
            </g>
            <g transform="matrix(1,0,0,1,-597,222)">
                <rect x="893.438" y="19.703" width="10.473" height="12.776" style="fill:rgb(19,81,40);fill-rule:nonzero;"/>
            </g>
            <g transform="matrix(1,0,0,1,-597,222)">
                <rect x="896.414" y="0.607" width="4.522" height="19.096" style="fill:rgb(19,81,40);fill-rule:nonzero;"/>
            </g>
            <g transform="matrix(1,0,0,1,-597,222)">
                <rect x="908.606" y="19.703" width="10.472" height="12.776" style="fill:rgb(19,81,40);fill-rule:nonzero;"/>
            </g>
            <g transform="matrix(1,0,0,1,-597,222)">
                <rect x="911.581" y="0.607" width="4.522" height="19.096" style="fill:rgb(19,81,40);fill-rule:nonzero;"/>
            </g>
            <g transform="matrix(1,0,0,1,-597,222)">
                <rect x="923.773" y="19.703" width="10.473" height="12.776" style="fill:rgb(19,81,40);fill-rule:nonzero;"/>
            </g>
            <g transform="matrix(1,0,0,1,-597,222)">
                <rect x="926.748" y="0.607" width="4.522" height="19.096" style="fill:rgb(19,81,40);fill-rule:nonzero;"/>
            </g>
            <g transform="matrix(1,0,0,1,-597,222)">
                <rect x="938.94" y="19.703" width="10.473" height="12.776" style="fill:rgb(19,81,40);fill-rule:nonzero;"/>
            </g>
            <g transform="matrix(1,0,0,1,-597,222)">
                <rect x="941.916" y="0.607" width="4.522" height="19.096" style="fill:rgb(19,81,40);fill-rule:nonzero;"/>
            </g>
            <g transform="matrix(1,0,0,1,-597,222)">
                <rect x="954.108" y="19.703" width="10.472" height="12.776" style="fill:rgb(19,81,40);fill-rule:nonzero;"/>
            </g>
            <g transform="matrix(1,0,0,1,-597,222)">
                <rect x="957.083" y="0.607" width="4.522" height="19.096" style="fill:rgb(19,81,40);fill-rule:nonzero;"/>
            </g>
            <g transform="matrix(1,0,0,1,-597,222)">
                <rect x="969.275" y="19.703" width="10.473" height="12.776" style="fill:rgb(19,81,40);fill-rule:nonzero;"/>
            </g>
            <g transform="matrix(1,0,0,1,-597,222)">
                <rect x="972.25" y="0.607" width="4.522" height="19.096" style="fill:rgb(19,81,40);fill-rule:nonzero;"/>
            </g>
            <g transform="matrix(1,0,0,1,-597,222)">
                <rect x="984.442" y="19.703" width="10.473" height="12.776" style="fill:rgb(19,81,40);fill-rule:nonzero;"/>
            </g>
            <g transform="matrix(1,0,0,1,-597,222)">
                <rect x="987.418" y="0.607" width="4.522" height="19.096" style="fill:rgb(19,81,40);fill-rule:nonzero;"/>
            </g>
            <g transform="matrix(1,0,0,1,-597,222)">
                <rect x="999.61" y="19.703" width="10.47" height="12.776" style="fill:rgb(19,81,40);fill-rule:nonzero;"/>
            </g>
            <g transform="matrix(1,0,0,1,-597,222)">
                <rect x="1002.58" y="0.607" width="4.53" height="19.096" style="fill:rgb(19,81,40);fill-rule:nonzero;"/>
            </g>
            <g transform="matrix(1,0,0,1,-597,222)">
                <rect x="1014.78" y="19.703" width="10.47" height="12.776" style="fill:rgb(19,81,40);fill-rule:nonzero;"/>
            </g>
            <g transform="matrix(1,0,0,1,-597,222)">
                <rect x="1017.75" y="0.607" width="4.52" height="19.096" style="fill:rgb(19,81,40);fill-rule:nonzero;"/>
            </g>
            <g transform="matrix(1,0,0,1,-597,222)">
                <rect x="1029.939" y="19.703" width="10.481" height="12.776" style="fill:rgb(19,81,40);fill-rule:nonzero;"/>
            </g>
            <g transform="matrix(1,0,0,1,-597,222)">
                <rect x="1032.92" y="0.607" width="4.519" height="19.096" style="fill:rgb(19,81,40);fill-rule:nonzero;"/>
            </g>
            <g transform="matrix(1,0,0,1,-597,222)">
                <rect x="1045.11" y="19.703" width="10.47" height="12.776" style="fill:rgb(19,81,40);fill-rule:nonzero;"/>
            </g>
            <g transform="matrix(1,0,0,1,-597,222)">
                <rect x="1048.089" y="0.607" width="4.521" height="19.096" style="fill:rgb(19,81,40);fill-rule:nonzero;"/>
            </g>
            <g transform="matrix(1,0,0,1,-597,222)">
                <rect x="1060.28" y="19.703" width="10.47" height="12.776" style="fill:rgb(19,81,40);fill-rule:nonzero;"/>
            </g>
            <g transform="matrix(1,0,0,1,-597,222)">
                <rect x="1063.25" y="0.607" width="4.53" height="19.096" style="fill:rgb(19,81,40);fill-rule:nonzero;"/>
            </g>
            <g transform="matrix(1,0,0,1,-597,222)">
                <rect x="1075.45" y="19.703" width="10.47" height="12.776" style="fill:rgb(19,81,40);fill-rule:nonzero;"/>
            </g>
            <g transform="matrix(1,0,0,1,-597,222)">
                <rect x="1078.42" y="0.607" width="4.52" height="19.096" style="fill:rgb(19,81,40);fill-rule:nonzero;"/>
            </g>
            <g transform="matrix(1,0,0,1,-597,222)">
                <rect x="1090.61" y="19.703" width="10.48" height="12.776" style="fill:rgb(19,81,40);fill-rule:nonzero;"/>
            </g>
            <g transform="matrix(1,0,0,1,-597,222)">
                <rect x="1093.59" y="0.607" width="4.52" height="19.096" style="fill:rgb(19,81,40);fill-rule:nonzero;"/>
            </g>
            <g transform="matrix(1,0,0,1,-597,222)">
                <rect x="1105.78" y="19.703" width="10.47" height="12.776" style="fill:rgb(19,81,40);fill-rule:nonzero;"/>
            </g>
            <g transform="matrix(1,0,0,1,-597,222)">
                <rect x="1108.76" y="0.607" width="4.52" height="19.096" style="fill:rgb(19,81,40);fill-rule:nonzero;"/>
            </g>
            <g transform="matrix(1,0,0,1,-597,222)">
                <rect x="1120.95" y="19.703" width="10.47" height="12.776" style="fill:rgb(19,81,40);fill-rule:nonzero;"/>
            </g>
            <g transform="matrix(1,0,0,1,-597,222)">
                <rect x="1123.92" y="0.607" width="4.52" height="19.096" style="fill:rgb(19,81,40);fill-rule:nonzero;"/>
            </g>
            <g transform="matrix(1,0,0,1,-597,222)">
                <rect x="1136.11" y="19.703" width="10.48" height="12.776" style="fill:rgb(19,81,40);fill-rule:nonzero;"/>
            </g>
            <g transform="matrix(1,0,0,1,-597,222)">
                <rect x="1139.09" y="0.607" width="4.52" height="19.096" style="fill:rgb(19,81,40);fill-rule:nonzero;"/>
            </g>
            <g transform="matrix(1,0,0,1,-597,222)">
                <rect x="863.104" y="315.963" width="10.472" height="12.775" style="fill:rgb(19,81,40);fill-rule:nonzero;"/>
            </g>
            <g transform="matrix(1,0,0,1,-597,222)">
                <rect x="866.079" y="328.738" width="4.522" height="19.097" style="fill:rgb(19,81,40);fill-rule:nonzero;"/>
            </g>
            <g transform="matrix(1,0,0,1,-597,222)">
                <rect x="878.271" y="315.963" width="10.473" height="12.775" style="fill:rgb(19,81,40);fill-rule:nonzero;"/>
            </g>
            <g transform="matrix(1,0,0,1,-597,222)">
                <rect x="881.246" y="328.738" width="4.522" height="19.097" style="fill:rgb(19,81,40);fill-rule:nonzero;"/>
            </g>
            <g transform="matrix(1,0,0,1,-597,222)">
                <rect x="893.438" y="315.963" width="10.473" height="12.775" style="fill:rgb(19,81,40);fill-rule:nonzero;"/>
            </g>
            <g transform="matrix(1,0,0,1,-597,222)">
                <rect x="896.414" y="328.738" width="4.522" height="19.097" style="fill:rgb(19,81,40);fill-rule:nonzero;"/>
            </g>
            <g transform="matrix(1,0,0,1,-597,222)">
                <rect x="908.606" y="315.963" width="10.472" height="12.775" style="fill:rgb(19,81,40);fill-rule:nonzero;"/>
            </g>
            <g transform="matrix(1,0,0,1,-597,222)">
                <rect x="911.581" y="328.738" width="4.522" height="19.097" style="fill:rgb(19,81,40);fill-rule:nonzero;"/>
            </g>
            <g transform="matrix(1,0,0,1,-597,222)">
                <rect x="923.773" y="315.963" width="10.473" height="12.775" style="fill:rgb(19,81,40);fill-rule:nonzero;"/>
            </g>
            <g transform="matrix(1,0,0,1,-597,222)">
                <rect x="926.748" y="328.738" width="4.522" height="19.097" style="fill:rgb(19,81,40);fill-rule:nonzero;"/>
            </g>
            <g transform="matrix(1,0,0,1,-597,222)">
                <rect x="938.94" y="315.963" width="10.473" height="12.775" style="fill:rgb(19,81,40);fill-rule:nonzero;"/>
            </g>
            <g transform="matrix(1,0,0,1,-597,222)">
                <rect x="941.916" y="328.738" width="4.522" height="19.097" style="fill:rgb(19,81,40);fill-rule:nonzero;"/>
            </g>
            <g transform="matrix(1,0,0,1,-597,222)">
                <rect x="954.108" y="315.963" width="10.472" height="12.775" style="fill:rgb(19,81,40);fill-rule:nonzero;"/>
            </g>
            <g transform="matrix(1,0,0,1,-597,222)">
                <rect x="957.083" y="328.738" width="4.522" height="19.097" style="fill:rgb(19,81,40);fill-rule:nonzero;"/>
            </g>
            <g transform="matrix(1,0,0,1,-597,222)">
                <rect x="969.275" y="315.963" width="10.473" height="12.775" style="fill:rgb(19,81,40);fill-rule:nonzero;"/>
            </g>
            <g transform="matrix(1,0,0,1,-597,222)">
                <rect x="972.25" y="328.738" width="4.522" height="19.097" style="fill:rgb(19,81,40);fill-rule:nonzero;"/>
            </g>
            <g transform="matrix(1,0,0,1,-597,222)">
                <rect x="984.442" y="315.963" width="10.473" height="12.775" style="fill:rgb(19,81,40);fill-rule:nonzero;"/>
            </g>
            <g transform="matrix(1,0,0,1,-597,222)">
                <rect x="987.418" y="328.738" width="4.522" height="19.097" style="fill:rgb(19,81,40);fill-rule:nonzero;"/>
            </g>
            <g transform="matrix(1,0,0,1,-597,222)">
                <rect x="999.61" y="315.963" width="10.47" height="12.775" style="fill:rgb(19,81,40);fill-rule:nonzero;"/>
            </g>
            <g transform="matrix(1,0,0,1,-597,222)">
                <rect x="1002.58" y="328.738" width="4.53" height="19.097" style="fill:rgb(19,81,40);fill-rule:nonzero;"/>
            </g>
            <g transform="matrix(1,0,0,1,-597,222)">
                <rect x="1014.78" y="315.963" width="10.47" height="12.775" style="fill:rgb(19,81,40);fill-rule:nonzero;"/>
            </g>
            <g transform="matrix(1,0,0,1,-597,222)">
                <rect x="1017.75" y="328.738" width="4.52" height="19.097" style="fill:rgb(19,81,40);fill-rule:nonzero;"/>
            </g>
            <g transform="matrix(1,0,0,1,-597,222)">
                <rect x="1029.939" y="315.963" width="10.481" height="12.775" style="fill:rgb(19,81,40);fill-rule:nonzero;"/>
            </g>
            <g transform="matrix(1,0,0,1,-597,222)">
                <rect x="1032.92" y="328.738" width="4.519" height="19.097" style="fill:rgb(19,81,40);fill-rule:nonzero;"/>
            </g>
            <g transform="matrix(1,0,0,1,-597,222)">
                <rect x="1045.11" y="315.963" width="10.47" height="12.775" style="fill:rgb(19,81,40);fill-rule:nonzero;"/>
            </g>
            <g transform="matrix(1,0,0,1,-597,222)">
                <rect x="1048.089" y="328.738" width="4.521" height="19.097" style="fill:rgb(19,81,40);fill-rule:nonzero;"/>
            </g>
            <g transform="matrix(1,0,0,1,-597,222)">
                <rect x="1060.28" y="315.963" width="10.47" height="12.775" style="fill:rgb(19,81,40);fill-rule:nonzero;"/>
            </g>
            <g transform="matrix(1,0,0,1,-597,222)">
                <rect x="1063.25" y="328.738" width="4.53" height="19.097" style="fill:rgb(19,81,40);fill-rule:nonzero;"/>
            </g>
            <g transform="matrix(1,0,0,1,-597,222)">
                <rect x="1075.45" y="315.963" width="10.47" height="12.775" style="fill:rgb(19,81,40);fill-rule:nonzero;"/>
            </g>
            <g transform="matrix(1,0,0,1,-597,222)">
                <rect x="1078.42" y="328.738" width="4.52" height="19.097" style="fill:rgb(19,81,40);fill-rule:nonzero;"/>
            </g>
            <g transform="matrix(1,0,0,1,-597,222)">
                <rect x="1090.61" y="315.963" width="10.48" height="12.775" style="fill:rgb(19,81,40);fill-rule:nonzero;"/>
            </g>
            <g transform="matrix(1,0,0,1,-597,222)">
                <rect x="1093.59" y="328.738" width="4.52" height="19.097" style="fill:rgb(19,81,40);fill-rule:nonzero;"/>
            </g>
            <g transform="matrix(1,0,0,1,-597,222)">
                <rect x="1105.78" y="315.963" width="10.47" height="12.775" style="fill:rgb(19,81,40);fill-rule:nonzero;"/>
            </g>
            <g transform="matrix(1,0,0,1,-597,222)">
                <rect x="1108.76" y="328.738" width="4.52" height="19.097" style="fill:rgb(19,81,40);fill-rule:nonzero;"/>
            </g>
            <g transform="matrix(1,0,0,1,-597,222)">
                <rect x="1120.95" y="315.963" width="10.47" height="12.775" style="fill:rgb(19,81,40);fill-rule:nonzero;"/>
            </g>
            <g transform="matrix(1,0,0,1,-597,222)">
                <rect x="1123.92" y="328.738" width="4.52" height="19.097" style="fill:rgb(19,81,40);fill-rule:nonzero;"/>
            </g>
            <g transform="matrix(1,0,0,1,-597,222)">
                <rect x="1136.11" y="315.963" width="10.48" height="12.775" style="fill:rgb(19,81,40);fill-rule:nonzero;"/>
            </g>
            <g transform="matrix(1,0,0,1,-597,222)">
                <rect x="1139.09" y="328.738" width="4.52" height="19.097" style="fill:rgb(19,81,40);fill-rule:nonzero;"/>
            </g>
            <g transform="matrix(1,0,0,1,-597,222)">
                <rect x="1146.59" y="309.09" width="12.77" height="10.472" style="fill:rgb(19,81,40);fill-rule:nonzero;"/>
            </g>
            <g transform="matrix(1,0,0,1,-597,222)">
                <rect x="1159.36" y="312.065" width="19.1" height="4.522" style="fill:rgb(19,81,40);fill-rule:nonzero;"/>
            </g>
            <g transform="matrix(1,0,0,1,-597,222)">
                <rect x="1146.59" y="293.923" width="12.77" height="10.472" style="fill:rgb(19,81,40);fill-rule:nonzero;"/>
            </g>
            <g transform="matrix(1,0,0,1,-597,222)">
                <rect x="1159.36" y="296.898" width="19.1" height="4.522" style="fill:rgb(19,81,40);fill-rule:nonzero;"/>
            </g>
            <g transform="matrix(1,0,0,1,-597,222)">
                <rect x="1146.59" y="278.755" width="12.77" height="10.473" style="fill:rgb(19,81,40);fill-rule:nonzero;"/>
            </g>
            <g transform="matrix(1,0,0,1,-597,222)">
                <rect x="1159.36" y="281.73" width="19.1" height="4.523" style="fill:rgb(19,81,40);fill-rule:nonzero;"/>
            </g>
            <g transform="matrix(1,0,0,1,-597,222)">
                <rect x="1146.59" y="263.588" width="12.77" height="10.472" style="fill:rgb(19,81,40);fill-rule:nonzero;"/>
            </g>
            <g transform="matrix(1,0,0,1,-597,222)">
                <rect x="1159.36" y="266.563" width="19.1" height="4.522" style="fill:rgb(19,81,40);fill-rule:nonzero;"/>
            </g>
            <g transform="matrix(1,0,0,1,-597,222)">
                <rect x="1146.59" y="248.421" width="12.77" height="10.472" style="fill:rgb(19,81,40);fill-rule:nonzero;"/>
            </g>
            <g transform="matrix(1,0,0,1,-597,222)">
                <rect x="1159.36" y="251.396" width="19.1" height="4.522" style="fill:rgb(19,81,40);fill-rule:nonzero;"/>
            </g>
            <g transform="matrix(1,0,0,1,-597,222)">
                <rect x="1146.59" y="233.253" width="12.77" height="10.473" style="fill:rgb(19,81,40);fill-rule:nonzero;"/>
            </g>
            <g transform="matrix(1,0,0,1,-597,222)">
                <rect x="1159.36" y="236.228" width="19.1" height="4.523" style="fill:rgb(19,81,40);fill-rule:nonzero;"/>
            </g>
            <g transform="matrix(1,0,0,1,-597,222)">
                <rect x="1146.59" y="218.086" width="12.77" height="10.472" style="fill:rgb(19,81,40);fill-rule:nonzero;"/>
            </g>
            <g transform="matrix(1,0,0,1,-597,222)">
                <rect x="1159.36" y="221.061" width="19.1" height="4.522" style="fill:rgb(19,81,40);fill-rule:nonzero;"/>
            </g>
            <g transform="matrix(1,0,0,1,-597,222)">
                <rect x="1146.59" y="202.919" width="12.77" height="10.472" style="fill:rgb(19,81,40);fill-rule:nonzero;"/>
            </g>
            <g transform="matrix(1,0,0,1,-597,222)">
                <rect x="1159.36" y="205.894" width="19.1" height="4.522" style="fill:rgb(19,81,40);fill-rule:nonzero;"/>
            </g>
            <g transform="matrix(1,0,0,1,-597,222)">
                <rect x="1146.59" y="187.751" width="12.77" height="10.473" style="fill:rgb(19,81,40);fill-rule:nonzero;"/>
            </g>
            <g transform="matrix(1,0,0,1,-597,222)">
                <rect x="1159.36" y="190.726" width="19.1" height="4.523" style="fill:rgb(19,81,40);fill-rule:nonzero;"/>
            </g>
            <g transform="matrix(1,0,0,1,-597,222)">
                <rect x="1146.59" y="172.584" width="12.77" height="10.472" style="fill:rgb(19,81,40);fill-rule:nonzero;"/>
            </g>
            <g transform="matrix(1,0,0,1,-597,222)">
                <rect x="1159.36" y="175.559" width="19.1" height="4.522" style="fill:rgb(19,81,40);fill-rule:nonzero;"/>
            </g>
            <g transform="matrix(1,0,0,1,-597,222)">
                <rect x="1146.59" y="157.417" width="12.77" height="10.472" style="fill:rgb(19,81,40);fill-rule:nonzero;"/>
            </g>
            <g transform="matrix(1,0,0,1,-597,222)">
                <rect x="1159.36" y="160.392" width="19.1" height="4.522" style="fill:rgb(19,81,40);fill-rule:nonzero;"/>
            </g>
            <g transform="matrix(1,0,0,1,-597,222)">
                <rect x="1146.59" y="142.249" width="12.77" height="10.473" style="fill:rgb(19,81,40);fill-rule:nonzero;"/>
            </g>
            <g transform="matrix(1,0,0,1,-597,222)">
                <rect x="1159.36" y="145.224" width="19.1" height="4.523" style="fill:rgb(19,81,40);fill-rule:nonzero;"/>
            </g>
            <g transform="matrix(1,0,0,1,-597,222)">
                <rect x="1146.59" y="127.082" width="12.77" height="10.472" style="fill:rgb(19,81,40);fill-rule:nonzero;"/>
            </g>
            <g transform="matrix(1,0,0,1,-597,222)">
                <rect x="1159.36" y="130.057" width="19.1" height="4.522" style="fill:rgb(19,81,40);fill-rule:nonzero;"/>
            </g>
            <g transform="matrix(1,0,0,1,-597,222)">
                <rect x="1146.59" y="111.915" width="12.77" height="10.472" style="fill:rgb(19,81,40);fill-rule:nonzero;"/>
            </g>
            <g transform="matrix(1,0,0,1,-597,222)">
                <rect x="1159.36" y="114.89" width="19.1" height="4.522" style="fill:rgb(19,81,40);fill-rule:nonzero;"/>
            </g>
            <g transform="matrix(1,0,0,1,-597,222)">
                <rect x="1146.59" y="96.748" width="12.77" height="10.472" style="fill:rgb(19,81,40);fill-rule:nonzero;"/>
            </g>
            <g transform="matrix(1,0,0,1,-597,222)">
                <rect x="1159.36" y="99.723" width="19.1" height="4.522" style="fill:rgb(19,81,40);fill-rule:nonzero;"/>
            </g>
            <g transform="matrix(1,0,0,1,-597,222)">
                <rect x="1146.59" y="81.581" width="12.77" height="10.472" style="fill:rgb(19,81,40);fill-rule:nonzero;"/>
            </g>
            <g transform="matrix(1,0,0,1,-597,222)">
                <rect x="1159.36" y="84.556" width="19.1" height="4.522" style="fill:rgb(19,81,40);fill-rule:nonzero;"/>
            </g>
            <g transform="matrix(1,0,0,1,-597,222)">
                <rect x="1146.59" y="66.413" width="12.77" height="10.473" style="fill:rgb(19,81,40);fill-rule:nonzero;"/>
            </g>
            <g transform="matrix(1,0,0,1,-597,222)">
                <rect x="1159.36" y="69.388" width="19.1" height="4.523" style="fill:rgb(19,81,40);fill-rule:nonzero;"/>
            </g>
            <g transform="matrix(1,0,0,1,-597,222)">
                <rect x="1146.59" y="51.246" width="12.77" height="10.472" style="fill:rgb(19,81,40);fill-rule:nonzero;"/>
            </g>
            <g transform="matrix(1,0,0,1,-597,222)">
                <rect x="1159.36" y="54.221" width="19.1" height="4.522" style="fill:rgb(19,81,40);fill-rule:nonzero;"/>
            </g>
            <g transform="matrix(1,0,0,1,-597,222)">
                <rect x="1146.59" y="36.079" width="12.77" height="10.472" style="fill:rgb(19,81,40);fill-rule:nonzero;"/>
            </g>
            <g transform="matrix(1,0,0,1,-597,222)">
                <rect x="1159.36" y="39.054" width="19.1" height="4.522" style="fill:rgb(19,81,40);fill-rule:nonzero;"/>
            </g>
            <g transform="matrix(1,0,0,1,-597,222)">
                <rect x="851.68" y="309.09" width="12.776" height="10.472" style="fill:rgb(19,81,40);fill-rule:nonzero;"/>
            </g>
            <g transform="matrix(1,0,0,1,-597,222)">
                <rect x="832.583" y="312.065" width="19.097" height="4.522" style="fill:rgb(19,81,40);fill-rule:nonzero;"/>
            </g>
            <g transform="matrix(1,0,0,1,-597,222)">
                <rect x="851.68" y="293.923" width="12.776" height="10.472" style="fill:rgb(19,81,40);fill-rule:nonzero;"/>
            </g>
            <g transform="matrix(1,0,0,1,-597,222)">
                <rect x="832.583" y="296.898" width="19.097" height="4.522" style="fill:rgb(19,81,40);fill-rule:nonzero;"/>
            </g>
            <g transform="matrix(1,0,0,1,-597,222)">
                <rect x="851.68" y="278.755" width="12.776" height="10.473" style="fill:rgb(19,81,40);fill-rule:nonzero;"/>
            </g>
            <g transform="matrix(1,0,0,1,-597,222)">
                <rect x="832.583" y="281.73" width="19.097" height="4.523" style="fill:rgb(19,81,40);fill-rule:nonzero;"/>
            </g>
            <g transform="matrix(1,0,0,1,-597,222)">
                <rect x="851.68" y="263.588" width="12.776" height="10.472" style="fill:rgb(19,81,40);fill-rule:nonzero;"/>
            </g>
            <g transform="matrix(1,0,0,1,-597,222)">
                <rect x="832.583" y="266.563" width="19.097" height="4.522" style="fill:rgb(19,81,40);fill-rule:nonzero;"/>
            </g>
            <g transform="matrix(1,0,0,1,-597,222)">
                <rect x="851.68" y="248.421" width="12.776" height="10.472" style="fill:rgb(19,81,40);fill-rule:nonzero;"/>
            </g>
            <g transform="matrix(1,0,0,1,-597,222)">
                <rect x="832.583" y="251.396" width="19.097" height="4.522" style="fill:rgb(19,81,40);fill-rule:nonzero;"/>
            </g>
            <g transform="matrix(1,0,0,1,-597,222)">
                <rect x="851.68" y="233.253" width="12.776" height="10.473" style="fill:rgb(19,81,40);fill-rule:nonzero;"/>
            </g>
            <g transform="matrix(1,0,0,1,-597,222)">
                <rect x="832.583" y="236.228" width="19.097" height="4.523" style="fill:rgb(19,81,40);fill-rule:nonzero;"/>
            </g>
            <g transform="matrix(1,0,0,1,-597,222)">
                <rect x="851.68" y="218.086" width="12.776" height="10.472" style="fill:rgb(19,81,40);fill-rule:nonzero;"/>
            </g>
            <g transform="matrix(1,0,0,1,-597,222)">
                <rect x="832.583" y="221.061" width="19.097" height="4.522" style="fill:rgb(19,81,40);fill-rule:nonzero;"/>
            </g>
            <g transform="matrix(1,0,0,1,-597,222)">
                <rect x="851.68" y="202.919" width="12.776" height="10.472" style="fill:rgb(19,81,40);fill-rule:nonzero;"/>
            </g>
            <g transform="matrix(1,0,0,1,-597,222)">
                <rect x="832.583" y="205.894" width="19.097" height="4.522" style="fill:rgb(19,81,40);fill-rule:nonzero;"/>
            </g>
            <g transform="matrix(1,0,0,1,-597,222)">
                <rect x="851.68" y="187.751" width="12.776" height="10.473" style="fill:rgb(19,81,40);fill-rule:nonzero;"/>
            </g>
            <g transform="matrix(1,0,0,1,-597,222)">
                <rect x="832.583" y="190.726" width="19.097" height="4.523" style="fill:rgb(19,81,40);fill-rule:nonzero;"/>
            </g>
            <g transform="matrix(1,0,0,1,-597,222)">
                <rect x="851.68" y="172.584" width="12.776" height="10.472" style="fill:rgb(19,81,40);fill-rule:nonzero;"/>
            </g>
            <g transform="matrix(1,0,0,1,-597,222)">
                <rect x="832.583" y="175.559" width="19.097" height="4.522" style="fill:rgb(19,81,40);fill-rule:nonzero;"/>
            </g>
            <g transform="matrix(1,0,0,1,-597,222)">
                <rect x="851.68" y="157.417" width="12.776" height="10.472" style="fill:rgb(19,81,40);fill-rule:nonzero;"/>
            </g>
            <g transform="matrix(1,0,0,1,-597,222)">
                <rect x="832.583" y="160.392" width="19.097" height="4.522" style="fill:rgb(19,81,40);fill-rule:nonzero;"/>
            </g>
            <g transform="matrix(1,0,0,1,-597,222)">
                <rect x="851.68" y="142.249" width="12.776" height="10.473" style="fill:rgb(19,81,40);fill-rule:nonzero;"/>
            </g>
            <g transform="matrix(1,0,0,1,-597,222)">
                <rect x="832.583" y="145.224" width="19.097" height="4.523" style="fill:rgb(19,81,40);fill-rule:nonzero;"/>
            </g>
            <g transform="matrix(1,0,0,1,-597,222)">
                <rect x="851.68" y="127.082" width="12.776" height="10.472" style="fill:rgb(19,81,40);fill-rule:nonzero;"/>
            </g>
            <g transform="matrix(1,0,0,1,-597,222)">
                <rect x="832.583" y="130.057" width="19.097" height="4.522" style="fill:rgb(19,81,40);fill-rule:nonzero;"/>
            </g>
            <g transform="matrix(1,0,0,1,-597,222)">
                <rect x="851.68" y="111.915" width="12.776" height="10.472" style="fill:rgb(19,81,40);fill-rule:nonzero;"/>
            </g>
            <g transform="matrix(1,0,0,1,-597,222)">
                <rect x="832.583" y="114.89" width="19.097" height="4.522" style="fill:rgb(19,81,40);fill-rule:nonzero;"/>
            </g>
            <g transform="matrix(1,0,0,1,-597,222)">
                <rect x="851.68" y="96.748" width="12.776" height="10.472" style="fill:rgb(19,81,40);fill-rule:nonzero;"/>
            </g>
            <g transform="matrix(1,0,0,1,-597,222)">
                <rect x="832.583" y="99.723" width="19.097" height="4.522" style="fill:rgb(19,81,40);fill-rule:nonzero;"/>
            </g>
            <g transform="matrix(1,0,0,1,-597,222)">
                <rect x="851.68" y="81.581" width="12.776" height="10.472" style="fill:rgb(19,81,40);fill-rule:nonzero;"/>
            </g>
            <g transform="matrix(1,0,0,1,-597,222)">
                <rect x="832.583" y="84.556" width="19.097" height="4.522" style="fill:rgb(19,81,40);fill-rule:nonzero;"/>
            </g>
            <g transform="matrix(1,0,0,1,-597,222)">
                <rect x="851.68" y="66.413" width="12.776" height="10.473" style="fill:rgb(19,81,40);fill-rule:nonzero;"/>
            </g>
            <g transform="matrix(1,0,0,1,-597,222)">
                <rect x="832.583" y="69.388" width="19.097" height="4.523" style="fill:rgb(19,81,40);fill-rule:nonzero;"/>
            </g>
            <g transform="matrix(1,0,0,1,-597,222)">
                <rect x="851.68" y="51.246" width="12.776" height="10.472" style="fill:rgb(19,81,40);fill-rule:nonzero;"/>
            </g>
            <g transform="matrix(1,0,0,1,-597,222)">
                <rect x="832.583" y="54.221" width="19.097" height="4.522" style="fill:rgb(19,81,40);fill-rule:nonzero;"/>
            </g>
            <g transform="matrix(1,0,0,1,-597,222)">
                <rect x="851.68" y="36.079" width="12.776" height="10.472" style="fill:rgb(19,81,40);fill-rule:nonzero;"/>
            </g>
            <g transform="matrix(1,0,0,1,-597,222)">
                <rect x="832.583" y="39.054" width="19.097" height="4.522" style="fill:rgb(19,81,40);fill-rule:nonzero;"/>
            </g>
            <g transform="matrix(1,0,0,1,-597,222)">
                <path d="M1056.77,59.252L970.462,59.252L918.064,289.189L1004.37,289.189L1056.77,59.252Z" style="fill:rgb(243,244,245);fill-rule:nonzero;"/>
            </g>
            <g transform="matrix(1,0,0,1,-597,222)">
                <path d="M1083.31,59.252L1065.26,59.252L1012.86,289.189L1030.92,289.189L1083.31,59.252Z" style="fill:rgb(243,244,245);fill-rule:nonzero;"/>
            </g>
        </g>
    </g>
</svg>
